<svg width="128" height="40" viewBox="0 0 128 40" fill="none" xmlns="http://www.w3.org/2000/svg">
<g clip-path="url(#clip0_5874_34604)">
<path d="M66.8282 34.0187H65.0911L64.7392 35.0374H64.004L65.6708 30.4787H66.2478L67.9146 35.0374H67.1821L66.8282 34.0187ZM66.6292 33.4067L65.965 31.4154H65.9516L65.2895 33.4067H66.6299H66.6292ZM69.9487 30.4814H71.7374C72.1187 30.4814 72.429 30.5814 72.6717 30.7814C72.9632 31.0094 73.1153 31.3347 73.1267 31.7547C73.118 32.3747 72.8211 32.7947 72.2387 33.0167L73.301 35.04H72.4726L71.5283 33.092H70.6403V35.04H69.946V30.4814H69.9487ZM70.643 32.4774H71.6938C71.9525 32.472 72.1489 32.3987 72.2796 32.2527C72.4076 32.1174 72.4699 31.9494 72.4699 31.7514C72.4646 31.5134 72.3882 31.3427 72.2414 31.2367C72.1241 31.142 71.9552 31.096 71.732 31.096H70.6457V32.4774H70.643ZM74.3083 33.664C74.3083 33.924 74.3847 34.1214 74.5341 34.2574C74.6729 34.3954 74.8585 34.4627 75.087 34.4627C75.3538 34.4627 75.591 34.3574 75.8001 34.146L76.2739 34.5494C75.9422 34.904 75.5501 35.078 75.0978 35.0747C74.9262 35.0747 74.7573 35.0507 74.5938 34.9994C74.5104 34.9715 74.4303 34.9351 74.3545 34.8907C74.2732 34.8503 74.1965 34.8011 74.126 34.744C73.9866 34.6227 73.8753 34.4547 73.7909 34.238C73.6957 34.0294 73.6495 33.758 73.6495 33.4254C73.6495 33.1054 73.6903 32.8374 73.7714 32.6267C73.8382 32.4358 73.9451 32.2612 74.0851 32.1147C74.2158 31.9874 74.3599 31.8947 74.5207 31.838C74.76 31.7512 75.0188 31.7315 75.2686 31.7813C75.5184 31.831 75.7496 31.9482 75.9368 32.12C76.1982 32.3634 76.3316 32.7 76.3369 33.1274V33.664H74.3083ZM75.6862 33.1247C75.6781 32.8727 75.6098 32.6834 75.4818 32.5534C75.4176 32.4919 75.3416 32.4439 75.2583 32.4123C75.1751 32.3807 75.0863 32.3661 74.9972 32.3694C74.9082 32.3663 74.8194 32.3809 74.7362 32.4125C74.653 32.4441 74.577 32.492 74.5127 32.5534C74.39 32.6834 74.3217 32.8734 74.3083 33.1247H75.6862ZM78.7443 34.75H78.7302C78.6686 34.8626 78.5681 34.9493 78.4474 34.994C78.3221 35.0474 78.1478 35.0747 77.9246 35.0747C77.5594 35.0694 77.2792 34.9747 77.0829 34.788C76.982 34.7007 76.9019 34.5922 76.8482 34.4704C76.7946 34.3485 76.7687 34.2163 76.7726 34.0834C76.7726 33.81 76.8624 33.5854 77.042 33.4067C77.2216 33.222 77.4857 33.13 77.8342 33.1247H78.7443V32.7834C78.7496 32.4994 78.5258 32.358 78.0741 32.3694C77.9106 32.3694 77.7825 32.3854 77.6874 32.418C77.5897 32.4567 77.5082 32.5272 77.4562 32.618L76.9415 32.228C77.1921 31.9034 77.5594 31.746 78.0439 31.7547C78.4554 31.7487 78.7818 31.8274 79.0271 31.9847C79.2724 32.1467 79.3977 32.426 79.4004 32.8214V35.0374H78.7443V34.75ZM78.7443 33.6634H77.9568C77.5761 33.672 77.3878 33.802 77.3905 34.054C77.3905 34.1647 77.4394 34.2567 77.5379 34.3354C77.6331 34.422 77.7879 34.4627 78.0057 34.4627C78.2812 34.468 78.4742 34.436 78.5861 34.3654C78.6893 34.2974 78.7409 34.1407 78.7409 33.8967V33.6634H78.7443ZM80.2495 30.4814H80.9063V34.2C80.9063 34.3494 80.9874 34.422 81.1509 34.422H81.3768V35.0374H81.0859C80.846 35.0374 80.6503 34.9774 80.4948 34.858C80.3313 34.7367 80.2495 34.5334 80.2495 34.2487V30.4814ZM81.9679 30.4814H83.6266C83.8063 30.4814 83.9805 30.4974 84.1494 30.53C84.3183 30.5734 84.4865 30.6627 84.6581 30.798C84.8028 30.9007 84.9194 31.0474 85.0099 31.2367C85.1051 31.4207 85.1513 31.638 85.1513 31.8867C85.1513 32.2254 85.0314 32.5314 84.7948 32.808C84.5495 33.1 84.1903 33.2494 83.7191 33.2574H82.6622V35.0374H81.9679V30.4814ZM82.6622 32.608H83.689C83.9477 32.6014 84.1407 32.5234 84.2687 32.3694C84.3913 32.22 84.4543 32.052 84.4543 31.868C84.4543 31.716 84.4295 31.5887 84.3779 31.4834C84.3271 31.39 84.2506 31.313 84.1574 31.2614C84.009 31.1698 83.836 31.1253 83.6615 31.134H82.6596V32.6074L82.6622 32.608ZM87.2752 34.75H87.2618C87.1997 34.8625 87.0991 34.9491 86.9783 34.994C86.853 35.0474 86.6787 35.0747 86.4555 35.0747C86.0909 35.0694 85.8101 34.9747 85.6144 34.788C85.5135 34.7008 85.4332 34.5923 85.3794 34.4704C85.3256 34.3486 85.2997 34.2164 85.3035 34.0834C85.3035 33.81 85.3933 33.5854 85.5736 33.4067C85.7532 33.222 86.0172 33.13 86.3657 33.1247H87.2752V32.7834C87.2805 32.4994 87.0574 32.358 86.605 32.3694C86.4421 32.3694 86.3141 32.3854 86.219 32.418C86.121 32.4565 86.0392 32.5271 85.9871 32.618L85.4724 32.228C85.723 31.9034 86.0909 31.746 86.5755 31.7547C86.9863 31.7487 87.3134 31.8274 87.5587 31.9847C87.8033 32.1467 87.9286 32.426 87.9313 32.8214V35.0374H87.2752V34.75ZM87.2752 33.6634H86.4884C86.107 33.672 85.9194 33.802 85.9221 34.054C85.9221 34.1647 85.971 34.2567 86.0688 34.3354C86.164 34.422 86.3195 34.4627 86.5373 34.4627C86.8121 34.468 87.0058 34.436 87.117 34.3654C87.2209 34.2974 87.2725 34.1407 87.2725 33.8967V33.6634H87.2752ZM90.6161 34.6987C90.401 34.942 90.1208 35.0694 89.775 35.078C89.5625 35.072 89.3883 35.0287 89.2469 34.942C89.1192 34.8768 89.0054 34.7876 88.9118 34.6794C88.8211 34.5651 88.7579 34.4317 88.7268 34.2894C88.6859 34.138 88.6665 33.848 88.6665 33.42C88.6665 32.984 88.6859 32.6887 88.7268 32.534C88.7644 32.3827 88.8274 32.2554 88.9118 32.1494C88.9909 32.0467 89.1021 31.9547 89.2469 31.8734C89.3883 31.7974 89.5625 31.7567 89.775 31.7514C90.0987 31.7514 90.3795 31.8787 90.6161 32.136V31.792H91.2722V34.9614C91.2642 35.4487 91.1228 35.806 90.848 36.0367C90.5699 36.272 90.2408 36.3887 89.8541 36.3887C89.4124 36.3807 89.0344 36.1994 88.7241 35.844L89.2328 35.4407C89.3173 35.5167 89.4124 35.584 89.5217 35.6387C89.6336 35.698 89.7475 35.7307 89.8675 35.736C90.0907 35.736 90.2703 35.6734 90.4063 35.552C90.5404 35.4274 90.6107 35.254 90.6134 35.032V34.6987H90.6161ZM89.3199 33.42C89.3199 33.6694 89.328 33.84 89.3447 33.932C89.3581 34.0294 89.3937 34.1107 89.4479 34.1754C89.5026 34.2427 89.5715 34.2973 89.6497 34.3354C89.7368 34.3954 89.8427 34.422 89.9707 34.422C90.0987 34.422 90.2053 34.3927 90.2924 34.3354C90.3679 34.2959 90.4345 34.2414 90.4881 34.1754C90.5448 34.1049 90.5824 34.0211 90.5973 33.932C90.6107 33.8374 90.6161 33.6667 90.6161 33.42C90.6161 33.168 90.6107 32.992 90.5973 32.8947C90.5831 32.8069 90.5453 32.7244 90.4881 32.656C90.4343 32.5873 90.3679 32.5294 90.2924 32.4854C90.1929 32.4343 90.0827 32.4073 89.9707 32.4067C89.8589 32.4073 89.7489 32.4343 89.6497 32.4854C89.5731 32.5304 89.5049 32.5881 89.4479 32.656C89.39 32.7234 89.354 32.8066 89.3447 32.8947C89.328 32.992 89.3199 33.168 89.3199 33.42ZM92.618 33.664C92.618 33.924 92.6937 34.1214 92.8438 34.2574C92.9825 34.3954 93.1675 34.4627 93.3967 34.4627C93.6635 34.4627 93.9 34.3574 94.1098 34.146L94.5836 34.5494C94.2519 34.904 93.8592 35.078 93.4075 35.0747C93.2359 35.0747 93.067 35.0507 92.9035 34.9994C92.8201 34.9716 92.7399 34.9352 92.6642 34.8907C92.5827 34.8501 92.5059 34.801 92.435 34.744C92.2963 34.6227 92.185 34.4547 92.1006 34.238C92.0054 34.0294 91.9585 33.758 91.9585 33.4254C91.9585 33.1054 91.9994 32.8374 92.0811 32.6267C92.1479 32.4358 92.2548 32.2612 92.3948 32.1147C92.5255 31.9874 92.6696 31.8947 92.8304 31.838C93.0696 31.7513 93.3283 31.7317 93.5779 31.7815C93.8276 31.8312 94.0587 31.9484 94.2459 32.12C94.5072 32.3634 94.6413 32.7 94.6466 33.1274V33.664H92.618ZM93.9959 33.1247C93.9872 32.8727 93.9195 32.6834 93.7915 32.5534C93.7273 32.4919 93.6513 32.4439 93.568 32.4123C93.4848 32.3807 93.396 32.3661 93.3069 32.3694C93.2178 32.3661 93.1289 32.3806 93.0455 32.4123C92.9621 32.4439 92.886 32.4919 92.8217 32.5534C92.6997 32.6834 92.6314 32.8734 92.618 33.1247H93.9959ZM100.032 33.764C99.9318 34.1867 99.7415 34.5114 99.458 34.7394C99.1664 34.964 98.8206 35.078 98.4232 35.078C98.064 35.0694 97.7617 34.9827 97.5218 34.8147C97.2765 34.6547 97.0996 34.468 96.9883 34.2594C96.9555 34.192 96.9253 34.124 96.8958 34.062C96.8671 33.9829 96.846 33.9012 96.8328 33.818C96.8027 33.634 96.7866 33.282 96.7866 32.762C96.7866 32.2334 96.8027 31.8787 96.8328 31.7C96.8657 31.5214 96.9173 31.3747 96.9883 31.2667C97.0996 31.0554 97.2765 30.8687 97.5218 30.7034C97.7644 30.5354 98.064 30.4514 98.4232 30.446C98.8642 30.4514 99.2267 30.5814 99.5042 30.836C99.7817 31.0934 99.9593 31.416 100.032 31.7947H99.2971C99.2418 31.6124 99.135 31.4498 98.9895 31.326C98.8277 31.2009 98.6281 31.1342 98.4232 31.1367C98.2768 31.1366 98.1324 31.1699 98.001 31.234C97.8886 31.2906 97.7901 31.3712 97.7128 31.47C97.6182 31.577 97.5557 31.7082 97.5325 31.8487C97.5003 32.0114 97.4836 32.3174 97.4836 32.7647C97.4836 33.2114 97.5003 33.5147 97.5325 33.6747C97.5627 33.832 97.6223 33.9614 97.7128 34.0594C97.7858 34.154 97.881 34.23 98.001 34.2867C98.1182 34.3547 98.2597 34.3894 98.4232 34.3894C98.8126 34.3894 99.1041 34.1814 99.2971 33.7667H100.032V33.764ZM100.302 33.4147C100.302 33.0734 100.329 32.8107 100.386 32.6267C100.44 32.4573 100.533 32.3025 100.656 32.174C100.746 32.0654 100.871 31.968 101.032 31.884C101.19 31.8027 101.394 31.7594 101.645 31.7574C101.904 31.762 102.11 31.8027 102.271 31.884C102.429 31.9707 102.548 32.0654 102.636 32.174C102.767 32.296 102.859 32.4474 102.913 32.626C102.965 32.8107 102.993 33.0727 102.993 33.4147C102.993 33.756 102.965 34.016 102.913 34.1974C102.859 34.376 102.767 34.5307 102.636 34.6634C102.59 34.7162 102.538 34.7634 102.481 34.804C102.419 34.8605 102.348 34.9062 102.271 34.9394C102.113 35.0287 101.904 35.0747 101.645 35.0807C101.394 35.0747 101.19 35.0287 101.032 34.9394C100.878 34.8667 100.742 34.7633 100.631 34.6356C100.52 34.5079 100.436 34.3587 100.386 34.1974C100.329 34.016 100.302 33.756 100.302 33.4147ZM102.334 33.42C102.334 33.19 102.322 33.0194 102.304 32.9134C102.284 32.8147 102.24 32.7225 102.176 32.6454C102.123 32.5692 102.049 32.5099 101.963 32.4747C101.865 32.4297 101.758 32.4074 101.65 32.4094C101.538 32.4094 101.438 32.4314 101.343 32.4747C101.256 32.5136 101.181 32.572 101.121 32.6454C101.063 32.7256 101.021 32.8168 100.999 32.9134C100.975 33.0194 100.961 33.1867 100.961 33.4147C100.961 33.6394 100.975 33.8047 100.999 33.908C101.024 34.0134 101.064 34.108 101.121 34.1894C101.179 34.2514 101.252 34.306 101.343 34.3547C101.438 34.4007 101.538 34.422 101.65 34.422C101.769 34.422 101.873 34.4007 101.963 34.3547C102.046 34.3165 102.118 34.2599 102.176 34.1894C102.241 34.1074 102.285 34.0105 102.304 33.9074C102.325 33.802 102.334 33.6394 102.334 33.42ZM103.716 31.7947H104.373V32.1387H104.387C104.602 31.8814 104.885 31.754 105.239 31.754C105.465 31.7594 105.647 31.7974 105.786 31.8707C105.923 31.952 106.047 32.0547 106.159 32.1794C106.415 31.8927 106.758 31.7487 107.186 31.754C107.455 31.754 107.703 31.8487 107.927 32.0387C108.15 32.2307 108.264 32.512 108.272 32.8834V35.04H107.616V33.1087C107.616 32.8807 107.556 32.7074 107.437 32.5887C107.317 32.4667 107.164 32.4067 106.974 32.4067C106.887 32.4036 106.802 32.4181 106.722 32.4494C106.641 32.4807 106.569 32.5281 106.508 32.5887C106.385 32.7074 106.323 32.8807 106.323 33.1087V35.04H105.667V33.1087C105.667 32.8807 105.606 32.7074 105.486 32.5887C105.425 32.5284 105.353 32.4811 105.273 32.4498C105.193 32.4185 105.107 32.4038 105.021 32.4067C104.936 32.4035 104.85 32.418 104.77 32.4494C104.691 32.4807 104.618 32.5281 104.558 32.5887C104.433 32.7074 104.37 32.8807 104.37 33.1087V35.04H103.714V31.7947H103.716ZM109.163 31.7947H109.819V32.1334C110.037 31.892 110.317 31.7647 110.66 31.754C111.06 31.7647 111.352 31.906 111.538 32.1794C111.627 32.282 111.69 32.4154 111.723 32.5827C111.755 32.748 111.769 33.0274 111.769 33.42C111.769 33.8047 111.752 34.078 111.723 34.2467C111.697 34.3965 111.634 34.5373 111.538 34.6554C111.445 34.782 111.324 34.8849 111.183 34.9554C111.021 35.0359 110.842 35.0779 110.66 35.078C110.491 35.078 110.342 35.0427 110.211 34.9694C110.066 34.9002 109.933 34.8069 109.819 34.6934V36.3534H109.163V31.7947ZM110.465 34.422C110.619 34.422 110.742 34.3927 110.832 34.3354C110.917 34.2796 110.984 34.1995 111.023 34.1054C111.064 34.008 111.093 33.8994 111.107 33.78C111.113 33.664 111.113 33.5447 111.113 33.42C111.113 33.29 111.11 33.1654 111.107 33.0407C111.095 32.929 111.067 32.8196 111.023 32.716C110.987 32.6199 110.92 32.5387 110.832 32.4854C110.742 32.434 110.619 32.4067 110.465 32.4067C110.317 32.4067 110.201 32.4367 110.116 32.4967C110.028 32.5553 109.959 32.638 109.917 32.7347C109.876 32.8372 109.849 32.9449 109.838 33.0547C109.813 33.2905 109.813 33.5283 109.838 33.764C109.852 33.886 109.876 33.994 109.917 34.092C109.959 34.1889 110.028 34.2715 110.116 34.33C110.201 34.3927 110.317 34.422 110.465 34.422ZM114.217 34.75H114.203C114.141 34.8626 114.041 34.9493 113.92 34.994C113.795 35.0474 113.621 35.0747 113.397 35.0747C113.032 35.0694 112.752 34.9747 112.556 34.788C112.455 34.7007 112.375 34.5922 112.321 34.4704C112.267 34.3485 112.241 34.2163 112.245 34.0834C112.245 33.81 112.335 33.5854 112.515 33.4067C112.694 33.222 112.958 33.13 113.307 33.1247H114.217V32.7834C114.222 32.4994 113.999 32.358 113.547 32.3694C113.383 32.3694 113.255 32.3854 113.16 32.418C113.062 32.4567 112.981 32.5272 112.929 32.618L112.414 32.228C112.665 31.9034 113.032 31.746 113.517 31.7547C113.928 31.7487 114.255 31.8274 114.5 31.9847C114.745 32.1467 114.87 32.426 114.873 32.8214V35.0374H114.217V34.75ZM114.217 33.6634H113.429C113.048 33.672 112.861 33.802 112.863 34.054C112.863 34.1647 112.912 34.2567 113.011 34.3354C113.106 34.422 113.261 34.4627 113.478 34.4627C113.754 34.468 113.947 34.436 114.059 34.3654C114.162 34.2974 114.214 34.1407 114.214 33.8967V33.6634H114.217ZM115.722 31.7947H116.379V32.1387H116.392C116.608 31.8814 116.89 31.754 117.242 31.754C117.512 31.754 117.76 31.8487 117.983 32.0387C118.206 32.2307 118.321 32.512 118.331 32.8834V35.04H117.675V33.1087C117.675 32.8807 117.615 32.7074 117.492 32.5887C117.373 32.4667 117.22 32.4067 117.03 32.4067C116.944 32.4036 116.858 32.4181 116.778 32.4494C116.698 32.4807 116.625 32.5281 116.564 32.5887C116.441 32.7074 116.379 32.8807 116.379 33.1087V35.04H115.722V31.7947ZM118.709 31.7947H119.404L120.177 34.0674H120.191L120.962 31.7947H121.659L120.253 35.7114C120.164 35.9554 120.038 36.1234 119.881 36.218C119.72 36.3074 119.538 36.3534 119.333 36.3534H119.115V35.7387H119.306C119.393 35.7387 119.472 35.7167 119.546 35.6707C119.621 35.6205 119.675 35.5457 119.701 35.4594L119.881 34.9154L118.709 31.7947Z" fill="#727274"/>
<path d="M123.494 16.648C123.494 16.3427 123.571 16.0567 123.726 15.7893C123.876 15.5265 124.094 15.3086 124.358 15.158C124.621 15.005 124.921 14.9247 125.226 14.9253C125.534 14.9253 125.821 15.0013 126.089 15.1553C126.359 15.3067 126.569 15.5187 126.724 15.784C126.88 16.052 126.958 16.34 126.958 16.648C126.958 16.948 126.884 17.2313 126.735 17.4947C126.586 17.7576 126.37 17.9762 126.108 18.128C125.841 18.286 125.536 18.3681 125.226 18.3653C124.909 18.3653 124.617 18.2873 124.348 18.128C124.086 17.9762 123.869 17.7576 123.72 17.4947C123.57 17.2375 123.493 16.9452 123.494 16.648ZM123.819 16.648C123.819 16.8315 123.855 17.0134 123.925 17.183C123.996 17.3527 124.099 17.5068 124.23 17.6366C124.36 17.7664 124.515 17.8692 124.686 17.9392C124.856 18.0093 125.039 18.0451 125.224 18.0447C125.47 18.0452 125.713 17.9807 125.927 17.8577C126.14 17.7348 126.317 17.5578 126.44 17.3447C126.565 17.128 126.628 16.8953 126.628 16.648C126.629 16.4025 126.564 16.161 126.441 15.9485C126.317 15.7359 126.139 15.5597 125.925 15.438C125.712 15.3153 125.47 15.2509 125.224 15.2513C124.977 15.2505 124.734 15.3149 124.52 15.4379C124.307 15.5609 124.13 15.738 124.007 15.9513C123.883 16.168 123.819 16.4007 123.819 16.648ZM125.927 16.2487C125.927 16.5087 125.818 16.686 125.597 16.782L126.143 17.6987H125.559L125.148 16.9233H125.039V17.6967H124.51V15.6H125.117C125.394 15.6 125.6 15.6533 125.729 15.7587C125.861 15.8673 125.927 16.032 125.927 16.2487ZM125.041 16.5393H125.112C125.213 16.5393 125.285 16.5167 125.33 16.474C125.374 16.4307 125.396 16.3573 125.396 16.2567C125.396 16.158 125.376 16.0873 125.333 16.0467C125.29 16.0067 125.216 15.9867 125.11 15.9867H125.043V16.54L125.041 16.5393ZM76.2243 17.1687H74.3833V26.2687H76.2243V17.1687ZM75.5514 13.4353H75.0535C74.652 13.4353 74.327 13.7553 74.327 14.1573V14.6527C74.327 15.052 74.65 15.3753 75.0535 15.3753H75.5514C75.6469 15.3756 75.7414 15.3571 75.8297 15.3208C75.9179 15.2846 75.998 15.2314 76.0655 15.1642C76.133 15.0971 76.1864 15.0173 76.2227 14.9295C76.2591 14.8417 76.2776 14.7476 76.2773 14.6527V14.1573C76.2775 14.0624 76.2589 13.9684 76.2225 13.8807C76.1862 13.793 76.1327 13.7133 76.0653 13.6462C75.9978 13.5791 75.9177 13.5259 75.8295 13.4898C75.7413 13.4536 75.6468 13.4351 75.5514 13.4353ZM59.5311 19.6993C60.397 19.358 61.2629 18.3707 61.2629 16.9887C61.2629 14.8347 59.765 13.4887 57.3825 13.4887H52.3855V25.544C52.3855 25.9433 52.7105 26.2693 53.1093 26.2693H57.5835C59.8562 26.2693 61.464 25.014 61.464 22.6627C61.464 21.0453 60.5243 20.096 59.5311 19.6993ZM54.3358 15.2307H57.223C58.4675 15.2307 59.3153 15.8773 59.3153 17.062C59.3153 18.2467 58.4675 18.8933 57.223 18.8933H54.3358V15.2307ZM57.4032 24.5287H54.3358V20.634H57.4032C58.757 20.634 59.513 21.442 59.513 22.5713C59.513 23.7 58.7564 24.5287 57.4032 24.5287ZM69.6195 22.7153C69.6195 24.1147 68.7537 24.7433 67.7256 24.7433C66.6968 24.7433 65.8846 24.132 65.8846 22.7153V17.1687H64.0435V22.9853C64.0435 24.0087 64.2593 24.87 64.9624 25.552C65.5032 26.072 66.2806 26.3773 67.2176 26.3773C68.1364 26.3773 69.0231 26.0367 69.6524 25.3547V26.2693H71.4579V17.168H69.6169V22.7147H69.6195V22.7153ZM104.305 22.7153C104.305 24.1147 103.44 24.7433 102.411 24.7433C101.383 24.7433 100.57 24.132 100.57 22.7153V17.1687H98.7294V22.9853C98.7294 24.0087 98.9452 24.87 99.6483 25.552C100.189 26.072 100.967 26.3773 101.903 26.3773C102.822 26.3773 103.709 26.0367 104.338 25.3547V26.2693H106.144V17.168H104.303V22.7147H104.305V22.7153ZM121.087 17.888C120.546 17.368 119.716 17.062 118.776 17.062C117.568 17.062 116.646 17.494 115.907 18.3907C115.331 17.512 114.445 17.062 113.309 17.062C112.391 17.062 111.487 17.4207 110.875 18.0853V17.1707H109.069V26.2693H110.91V20.7227C110.91 19.3227 111.776 18.694 112.804 18.694C113.833 18.694 114.645 19.3053 114.645 20.722V26.2687H116.486V20.634C116.486 19.3227 117.388 18.6967 118.38 18.6967C119.409 18.6967 120.221 19.308 120.221 20.7247V26.2693H121.334C121.735 26.2693 122.06 25.948 122.06 25.5567V20.4547C122.06 19.4313 121.791 18.57 121.087 17.888ZM95.225 13.4353H94.7277C94.3262 13.4353 94.0012 13.7553 94.0012 14.1573V14.6527C94.0012 15.052 94.3236 15.3753 94.7277 15.3753H95.225C95.6264 15.3753 95.9515 15.054 95.9515 14.6527V14.1573C95.9517 14.0624 95.9331 13.9683 95.8967 13.8806C95.8603 13.7928 95.8068 13.7131 95.7392 13.646C95.6717 13.5789 95.5915 13.5257 95.5033 13.4896C95.415 13.4534 95.3204 13.435 95.225 13.4353ZM89.2938 18.0853C88.6256 17.2947 87.8689 17.062 86.8938 17.062C85.975 17.062 85.1801 17.368 84.6748 17.8707C83.7553 18.7847 83.646 20.3307 83.646 21.7127C83.646 23.094 83.7553 24.6547 84.6748 25.572C85.1801 26.0747 85.9924 26.38 86.9119 26.38C87.9044 26.38 88.6437 26.13 89.3293 25.304V26.2693H91.1348V13.488H89.2938V18.0853ZM87.3964 24.7433C85.7364 24.7433 85.4844 23.3267 85.4844 21.71C85.4844 20.0933 85.7384 18.694 87.3964 18.694C89.0545 18.694 89.2911 20.0933 89.2911 21.71C89.2911 23.3267 89.0572 24.7433 87.3964 24.7433ZM95.8979 17.1687H94.0568V26.2687H95.8979V17.1687ZM82.0108 24.708H81.925C81.1858 24.708 80.9317 24.3493 80.9317 23.65V13.4907H79.0907V23.7587C79.0907 25.1047 79.8474 26.272 81.5999 26.272H82.0108C82.4122 26.272 82.7373 25.956 82.7373 25.554V25.4253C82.7373 25.0287 82.4068 24.708 82.0108 24.708ZM40.8783 0H0.666626V40H40.8783V0Z" fill="#70B37F"/>
<path d="M29.304 6.55469L21.9855 8.29469C21.5317 8.40802 20.9118 8.78269 20.6196 9.13335L12.2408 19.6107H15.0597V30.1007C15.0597 30.5634 15.4122 31.0534 15.8693 31.1894L22.5431 33.2054V19.6107H18.9294L29.304 6.55469Z" fill="white"/>
</g>
<defs>
<clipPath id="clip0_5874_34604">
<rect width="126.667" height="40" fill="white" transform="translate(0.666626)"/>
</clipPath>
</defs>
</svg>
