<svg width="16" height="20" viewBox="0 0 16 20" fill="none" xmlns="http://www.w3.org/2000/svg">
<path d="M9.66671 1.89127V5.33338C9.66671 5.80009 9.66671 6.03345 9.75754 6.21171C9.83743 6.36851 9.96491 6.49599 10.1217 6.57589C10.3 6.66672 10.5333 6.66672 11 6.66672H14.4422M5.50004 12.5L8.00004 15M8.00004 15L10.5 12.5M8.00004 15L8.00004 9.99999M9.66671 1.66666H5.33337C3.93324 1.66666 3.23318 1.66666 2.6984 1.93914C2.22799 2.17882 1.84554 2.56128 1.60586 3.03168C1.33337 3.56646 1.33337 4.26653 1.33337 5.66666V14.3333C1.33337 15.7335 1.33337 16.4335 1.60586 16.9683C1.84554 17.4387 2.22799 17.8212 2.6984 18.0608C3.23318 18.3333 3.93324 18.3333 5.33337 18.3333H10.6667C12.0668 18.3333 12.7669 18.3333 13.3017 18.0608C13.7721 17.8212 14.1545 17.4387 14.3942 16.9683C14.6667 16.4335 14.6667 15.7335 14.6667 14.3333V6.66666L9.66671 1.66666Z" stroke="#363F72" stroke-width="1.66667" stroke-linecap="round" stroke-linejoin="round"/>
</svg>
