<svg width="20" height="20" viewBox="0 0 20 20" fill="none" xmlns="http://www.w3.org/2000/svg">
<path d="M15 5.83332V4.33332C15 3.3999 15 2.93319 14.8183 2.57667C14.6585 2.26307 14.4035 2.0081 14.0899 1.84831C13.7334 1.66666 13.2667 1.66666 12.3333 1.66666H7.66663C6.73321 1.66666 6.2665 1.66666 5.90998 1.84831C5.59637 2.0081 5.3414 2.26307 5.18162 2.57667C4.99996 2.93319 4.99996 3.3999 4.99996 4.33332V5.83332M4.99996 15C4.22498 15 3.83749 15 3.51958 14.9148C2.65685 14.6836 1.98298 14.0098 1.75181 13.147C1.66663 12.8291 1.66663 12.4416 1.66663 11.6667V9.83332C1.66663 8.43319 1.66663 7.73313 1.93911 7.19835C2.17879 6.72794 2.56124 6.34549 3.03165 6.10581C3.56643 5.83332 4.26649 5.83332 5.66663 5.83332H14.3333C15.7334 5.83332 16.4335 5.83332 16.9683 6.10581C17.4387 6.34549 17.8211 6.72794 18.0608 7.19835C18.3333 7.73313 18.3333 8.43319 18.3333 9.83332V11.6667C18.3333 12.4416 18.3333 12.8291 18.2481 13.147C18.0169 14.0098 17.3431 14.6836 16.4803 14.9148C16.1624 15 15.7749 15 15 15M12.5 8.74999H15M7.66663 18.3333H12.3333C13.2667 18.3333 13.7334 18.3333 14.0899 18.1517C14.4035 17.9919 14.6585 17.7369 14.8183 17.4233C15 17.0668 15 16.6001 15 15.6667V14.3333C15 13.3999 15 12.9332 14.8183 12.5767C14.6585 12.2631 14.4035 12.0081 14.0899 11.8483C13.7334 11.6667 13.2667 11.6667 12.3333 11.6667H7.66663C6.73321 11.6667 6.2665 11.6667 5.90998 11.8483C5.59637 12.0081 5.3414 12.2631 5.18162 12.5767C4.99996 12.9332 4.99996 13.3999 4.99996 14.3333V15.6667C4.99996 16.6001 4.99996 17.0668 5.18162 17.4233C5.3414 17.7369 5.59637 17.9919 5.90998 18.1517C6.2665 18.3333 6.73321 18.3333 7.66663 18.3333Z" stroke="#363F72" stroke-width="1.66667" stroke-linecap="round" stroke-linejoin="round"/>
</svg>
