<svg width="16" height="16" viewBox="0 0 16 16" fill="none" xmlns="http://www.w3.org/2000/svg">
<path fill-rule="evenodd" clip-rule="evenodd" d="M14.8802 10.2752L15.4502 14.2352C15.4913 14.5401 15.3986 14.8479 15.1959 15.0793C14.9932 15.3108 14.7003 15.4433 14.3927 15.4427H14.2352L10.2752 14.8727C9.73839 14.7987 9.24057 14.5511 8.85767 14.1677L1.55267 6.85517C0.131524 5.38375 0.151849 3.04485 1.59835 1.59835C3.04485 0.151849 5.38375 0.131524 6.85517 1.55267L14.1752 8.85767C14.5586 9.24057 14.8062 9.73839 14.8802 10.2752ZM9.69017 13.3727C9.89761 13.5719 10.158 13.7073 10.4402 13.7627L14.3477 14.2802L13.8002 10.4027C13.7448 10.1205 13.6094 9.86011 13.4102 9.65267L6.09767 2.34767C5.60497 1.84185 4.92879 1.55655 4.22267 1.55655C3.51655 1.55655 2.84038 1.84185 2.34767 2.34767C1.85348 2.83898 1.57561 3.50707 1.57561 4.20392C1.57561 4.90077 1.85348 5.56886 2.34767 6.06017L9.69017 13.3727Z" fill="white"/>
<path d="M4.57517 3.78017C4.35354 3.57365 4.00816 3.57974 3.79395 3.79395C3.57974 4.00816 3.57365 4.35354 3.78017 4.57517L6.93767 7.73267C7.15728 7.95201 7.51306 7.95201 7.73267 7.73267C7.95201 7.51306 7.95201 7.15728 7.73267 6.93767L4.57517 3.78017Z" fill="white"/>
</svg>
