<svg width="14" height="17" viewBox="0 0 14 17" fill="none" xmlns="http://www.w3.org/2000/svg">
<path d="M12.657 4.83329C12.2934 4.83329 11.9987 5.12804 11.9987 5.49163V12.8583C11.9987 14.4093 10.7414 15.6666 9.19037 15.6666H4.45703C2.90603 15.6666 1.6487 14.4093 1.6487 12.8583V5.49163C1.6487 5.12804 1.35395 4.83329 0.990365 4.83329C0.626777 4.83329 0.332031 5.12804 0.332031 5.49163V12.8583C0.354881 15.1432 2.21369 16.9834 4.4987 16.9833H9.23203C11.5008 16.9607 13.3345 15.1271 13.357 12.8583V5.49163C13.3574 5.30956 13.2823 5.13547 13.1497 5.01074C13.0171 4.88601 12.8387 4.82177 12.657 4.83329Z" fill="#FF5555"/>
<path fill-rule="evenodd" clip-rule="evenodd" d="M12.657 3.64996H0.990365C0.626777 3.64996 0.332031 3.35521 0.332031 2.99163C0.332031 2.62804 0.626777 2.33329 0.990365 2.33329H3.1987L4.18203 1.26663C4.55792 0.884468 5.07099 0.668439 5.60703 0.666626H8.04037C8.56859 0.666619 9.07518 0.876451 9.4487 1.24996L10.4487 2.33329H12.657C13.0206 2.33329 13.3154 2.62804 13.3154 2.99163C13.3154 3.35521 13.0206 3.64996 12.657 3.64996ZM8.04037 1.98329H5.60703C5.44044 1.98335 5.2799 2.04578 5.15703 2.15829L4.9987 2.32496H8.6487L8.49037 2.15829C8.3684 2.04435 8.20727 1.98168 8.04037 1.98329Z" fill="#FF5555"/>
<path d="M3.6987 6.32496V8.82496C3.6987 9.17014 3.97852 9.44996 4.3237 9.44996C4.66888 9.44996 4.9487 9.17014 4.9487 8.82496V6.32496C4.9487 5.97978 4.66888 5.69996 4.3237 5.69996C3.97852 5.69996 3.6987 5.97978 3.6987 6.32496Z" fill="#FF5555"/>
<path d="M6.1987 6.32496V12.9916C6.1987 13.3368 6.47852 13.6166 6.8237 13.6166C7.16888 13.6166 7.4487 13.3368 7.4487 12.9916V6.32496C7.4487 5.97978 7.16888 5.69996 6.8237 5.69996C6.47852 5.69996 6.1987 5.97978 6.1987 6.32496Z" fill="#FF5555"/>
<path d="M8.6987 6.32496V8.82496C8.6987 9.17014 8.97852 9.44996 9.3237 9.44996C9.66888 9.44996 9.9487 9.17014 9.9487 8.82496V6.32496C9.9487 5.97978 9.66888 5.69996 9.3237 5.69996C8.97852 5.69996 8.6987 5.97978 8.6987 6.32496Z" fill="#FF5555"/>
</svg>
