<svg width="16" height="16" viewBox="0 0 16 16" fill="none" xmlns="http://www.w3.org/2000/svg">
<path fill-rule="evenodd" clip-rule="evenodd" d="M4.29354 1.33331H11.7069C13.3956 1.39127 14.7193 2.80438 14.6669 4.49331V8.83998C14.692 9.65566 14.3909 10.4477 13.8304 11.0408C13.2698 11.6339 12.496 11.9791 11.6802 12H5.33354C4.89433 12.0091 4.47782 12.1969 4.1802 12.52L2.6002 14.2066C2.46634 14.3526 2.27825 14.437 2.0802 14.44C1.87566 14.4348 1.68168 14.348 1.54144 14.199C1.40121 14.05 1.32635 13.8511 1.33354 13.6466V4.49331C1.28111 2.80438 2.60478 1.39127 4.29354 1.33331ZM11.7069 11C12.8435 10.9425 13.7197 9.97683 13.6669 8.83998V4.49331C13.7197 3.35646 12.8435 2.39082 11.7069 2.33331H4.29353C3.15691 2.39082 2.28068 3.35646 2.33353 4.49331V13.0266L3.4202 11.84C3.91715 11.3114 4.60804 11.008 5.33353 11H11.7069Z" fill="#E9E9E9"/>
<path d="M5.5002 5.83331H8.83354C9.10968 5.83331 9.33354 5.60946 9.33354 5.33331C9.33354 5.05717 9.10968 4.83331 8.83354 4.83331H5.5002C5.22406 4.83331 5.0002 5.05717 5.0002 5.33331C5.0002 5.60946 5.22406 5.83331 5.5002 5.83331Z" fill="#E9E9E9"/>
<path d="M10.5002 7.49998H5.5002C5.22406 7.49998 5.0002 7.72384 5.0002 7.99998C5.0002 8.27612 5.22406 8.49998 5.5002 8.49998H10.5002C10.7763 8.49998 11.0002 8.27612 11.0002 7.99998C11.0002 7.72384 10.7763 7.49998 10.5002 7.49998Z" fill="#E9E9E9"/>
</svg>
