<svg width="55" height="70" viewBox="0 0 55 70" fill="none" xmlns="http://www.w3.org/2000/svg">
<path fill-rule="evenodd" clip-rule="evenodd" d="M53.262 51.0769L54.0812 54.9681C54.8575 58.3322 54.0911 61.8673 51.9911 64.6078C49.8911 67.3483 46.6771 69.0079 43.2269 69.1334H11.5512C8.10089 69.0079 4.88687 67.3483 2.78692 64.6078C0.686967 61.8673 -0.0795269 58.3322 0.696779 54.9681L1.51598 51.0769C2.45818 45.8093 6.98625 41.9383 12.3362 41.8267H42.4418C47.7918 41.9383 52.3198 45.8093 53.262 51.0769ZM43.2269 63.9792C44.9601 63.9591 46.5913 63.1561 47.6642 61.7947V61.8288C48.9807 60.1774 49.4936 58.0256 49.0637 55.9579L48.2445 52.0667C47.7899 49.1831 45.3589 47.0238 42.4418 46.9126H12.3362C9.41909 47.0238 6.98811 49.1831 6.53358 52.0667L5.71438 55.9579C5.29507 58.0147 5.80744 60.1517 7.11385 61.7947C8.18677 63.1561 9.81792 63.9591 11.5512 63.9792H43.2269Z" fill="#D2D2D2"/>
<path fill-rule="evenodd" clip-rule="evenodd" d="M29.0956 35H25.6823C18.1418 35 12.029 28.8872 12.029 21.3467V12.3355C12.0199 9.29104 13.2253 6.36862 15.3781 4.21583C17.5308 2.06304 20.4533 0.857649 23.4978 0.86675H31.2802C34.3246 0.857649 37.2471 2.06304 39.3999 4.21583C41.5526 6.36862 42.758 9.29104 42.7489 12.3355V21.3467C42.7489 28.8872 36.6361 35 29.0956 35ZM23.4978 5.98674C19.9914 5.98674 17.149 8.82919 17.149 12.3355V21.3467C17.149 26.0595 20.9695 29.88 25.6823 29.88H29.0956C33.8084 29.88 37.6289 26.0595 37.6289 21.3467V12.3355C37.6289 10.6517 36.9601 9.03689 35.7694 7.84626C34.5788 6.65563 32.964 5.98674 31.2802 5.98674H23.4978Z" fill="#D2D2D2"/>
</svg>
