<svg width="20" height="20" viewBox="0 0 20 20" fill="none" xmlns="http://www.w3.org/2000/svg">
<path d="M5.18698 14.9406C5.30493 15.0556 5.46397 15.1186 5.62865 15.1156C5.79284 15.1159 5.95091 15.0533 6.07032 14.9406L13.8453 7.15829V13.8739C13.8453 14.2191 14.1251 14.4989 14.4703 14.4989C14.6382 14.5035 14.8007 14.4394 14.9202 14.3214C15.0397 14.2035 15.106 14.0419 15.1037 13.8739V5.76375C15.1253 5.66867 15.1248 5.56823 15.0998 5.47037C15.0433 5.24892 14.8703 5.07601 14.6489 5.01945C14.551 4.99446 14.4506 4.99396 14.3555 5.01561H6.24532C5.90014 5.01561 5.62032 5.29543 5.62032 5.64061C5.62032 5.98579 5.90014 6.26561 6.24532 6.26561H12.9703L5.18698 14.0489C5.06738 14.1665 5 14.3271 5 14.4948C5 14.6624 5.06738 14.8231 5.18698 14.9406Z" fill="white"/>
</svg>
