<svg xmlns="http://www.w3.org/2000/svg" width="38" height="37" viewBox="0 0 38 37" fill="none">
  <path d="M32.1686 6.40656C29.7466 5.32449 27.1494 4.52727 24.4338 4.07067C24.3844 4.06186 24.335 4.08388 24.3095 4.12793C23.9755 4.70638 23.6055 5.46103 23.3464 6.05417C20.4256 5.62841 17.5199 5.62841 14.659 6.05417C14.3999 5.44784 14.0164 4.70638 13.6809 4.12793C13.6554 4.08535 13.606 4.06333 13.5566 4.07067C10.8425 4.52581 8.2453 5.32303 5.82181 6.40656C5.80083 6.41537 5.78285 6.43006 5.77092 6.44914C0.844537 13.6154 -0.505005 20.6054 0.157035 27.5089C0.160031 27.5426 0.179502 27.5749 0.206464 27.5955C3.45675 29.9196 6.6052 31.3305 9.69519 32.2658C9.74465 32.2805 9.79704 32.2628 9.82851 32.2232C10.5595 31.2513 11.211 30.2265 11.7697 29.1488C11.8026 29.0857 11.7712 29.0108 11.7038 28.9858C10.6703 28.6041 9.6862 28.1387 8.73957 27.6102C8.6647 27.5676 8.6587 27.4633 8.72758 27.4134C8.92679 27.268 9.12605 27.1168 9.31626 26.9641C9.35068 26.9362 9.39863 26.9304 9.43909 26.948C15.658 29.7126 22.3908 29.7126 28.5363 26.948C28.5768 26.9289 28.6248 26.9348 28.6607 26.9627C28.8509 27.1154 29.0501 27.268 29.2508 27.4134C29.3197 27.4633 29.3152 27.5676 29.2404 27.6102C28.2937 28.149 27.3096 28.6041 26.2746 28.9844C26.2073 29.0093 26.1773 29.0857 26.2103 29.1488C26.7809 30.225 27.4325 31.2498 28.1499 32.2217C28.1799 32.2628 28.2338 32.2805 28.2832 32.2658C31.3882 31.3305 34.5366 29.9196 37.7869 27.5955C37.8154 27.5749 37.8334 27.5441 37.8364 27.5103C38.6287 19.5292 36.5093 12.5965 32.218 6.45059C32.2075 6.43006 32.1896 6.41537 32.1686 6.40656ZM12.6984 23.3054C10.826 23.3054 9.28329 21.6317 9.28329 19.5762C9.28329 17.5207 10.7961 15.847 12.6984 15.847C14.6155 15.847 16.1434 17.5354 16.1134 19.5762C16.1134 21.6317 14.6006 23.3054 12.6984 23.3054ZM25.325 23.3054C23.4527 23.3054 21.91 21.6317 21.91 19.5762C21.91 17.5207 23.4228 15.847 25.325 15.847C27.2423 15.847 28.77 17.5354 28.7401 19.5762C28.7401 21.6317 27.2423 23.3054 25.325 23.3054Z" fill="#919191"/>
</svg>