<svg width="28" height="28" viewBox="0 0 28 28" fill="none" xmlns="http://www.w3.org/2000/svg">
<path fill-rule="evenodd" clip-rule="evenodd" d="M1.76728 18.0451L0.753952 25.0851C0.680765 25.6271 0.845568 26.1743 1.20593 26.5858C1.56629 26.9973 2.08699 27.2328 2.63395 27.2317H2.91395L9.95395 26.2184C10.9082 26.0868 11.7932 25.6467 12.474 24.9651L25.4606 11.9651C27.9871 9.34921 27.951 5.19117 25.3794 2.61962C22.8078 0.0480564 18.6498 0.0119243 16.034 2.53841L3.02062 15.5251C2.33901 16.2058 1.89885 17.0908 1.76728 18.0451ZM10.9939 23.5517C10.6252 23.9059 10.1623 24.1466 9.66062 24.2451L2.71395 25.1651L3.68728 18.2717C3.78579 17.77 4.02646 17.3072 4.38062 16.9384L17.3806 3.95174C18.2565 3.0525 19.4586 2.54531 20.714 2.54531C21.9693 2.54531 23.1714 3.0525 24.0473 3.95174C24.9258 4.82518 25.4198 6.01289 25.4198 7.25174C25.4198 8.49059 24.9258 9.6783 24.0473 10.5517L10.9939 23.5517Z" fill="#A6A6A6"/>
<path d="M20.0873 6.49841C20.4813 6.13126 21.0953 6.14209 21.4761 6.52291C21.8569 6.90373 21.8678 7.51773 21.5006 7.91174L15.8873 13.5251C15.4969 13.915 14.8644 13.915 14.4739 13.5251C14.084 13.1346 14.084 12.5022 14.4739 12.1117L20.0873 6.49841Z" fill="#A6A6A6"/>
</svg>
