<svg width="30" height="30" viewBox="0 0 30 30" fill="none" xmlns="http://www.w3.org/2000/svg">
<path fill-rule="evenodd" clip-rule="evenodd" d="M2.00543 19.2972L0.928761 26.7772C0.851 27.3531 1.0261 27.9346 1.40899 28.3717C1.79187 28.8089 2.34511 29.0592 2.92626 29.0581H3.22376L10.7038 27.9814C11.7177 27.8416 12.658 27.3739 13.3813 26.6497L27.1796 12.8372C29.864 10.0579 29.8256 5.63995 27.0933 2.90767C24.361 0.175389 19.9431 0.136998 17.1638 2.82138L3.33709 16.6197C2.61289 17.343 2.14521 18.2833 2.00543 19.2972ZM11.8088 25.148C11.4169 25.5243 10.9252 25.7801 10.3921 25.8847L3.01126 26.8622L4.04543 19.5381C4.15009 19.005 4.4058 18.5132 4.78209 18.1214L18.5946 4.32305C19.5253 3.36761 20.8025 2.82872 22.1363 2.82872C23.47 2.82872 24.7473 3.36761 25.6779 4.32305C26.6114 5.25108 27.1363 6.51302 27.1363 7.8293C27.1363 9.14558 26.6114 10.4075 25.6779 11.3356L11.8088 25.148Z" fill="white"/>
<path d="M21.4704 7.02888C21.8891 6.63879 22.5414 6.6503 22.9461 7.05492C23.3507 7.45954 23.3622 8.11191 22.9721 8.53055L17.0079 14.4947C16.5931 14.909 15.9211 14.909 15.5063 14.4947C15.0919 14.0799 15.0919 13.4079 15.5063 12.9931L21.4704 7.02888Z" fill="white"/>
</svg>
