<svg width="11" height="11" viewBox="0 0 11 11" fill="none" xmlns="http://www.w3.org/2000/svg">
<path d="M6.82163 1.45741L7.17913 2.54074C7.34067 3.04216 7.80609 3.38303 8.33288 3.38574H9.45954C9.98794 3.38239 10.4578 3.72138 10.6211 4.2239C10.7845 4.72641 10.6039 5.27688 10.1745 5.58491L9.24829 6.25658C8.82192 6.56611 8.64273 7.1146 8.80413 7.61616L9.16163 8.69949C9.33845 9.20277 9.16582 9.7625 8.73625 10.0788C8.30668 10.395 7.72094 10.3936 7.29288 10.0753L6.38288 9.39824C5.9563 9.08921 5.37946 9.08921 4.95288 9.39824L4.04288 10.0753C3.61721 10.3869 3.039 10.3877 2.61244 10.0774C2.18588 9.76703 2.00871 9.21664 2.17413 8.71574L2.53163 7.63241C2.69302 7.13085 2.51384 6.58236 2.08746 6.27283L1.13954 5.59033C0.701498 5.28166 0.517807 4.7222 0.687639 4.21395C0.857471 3.7057 1.3406 3.36905 1.87621 3.38574H3.00288C3.52678 3.38457 3.99131 3.04871 4.15663 2.55158L4.51413 1.46824C4.67439 0.967855 5.13852 0.62748 5.66394 0.625013C6.18936 0.622547 6.65667 0.958548 6.82163 1.45741Z" fill="white"/>
</svg>
