<svg width="22" height="22" viewBox="0 0 22 22" fill="none" xmlns="http://www.w3.org/2000/svg">
<path fill-rule="evenodd" clip-rule="evenodd" d="M0.820508 6.61755C2.48524 2.60746 6.40215 -0.00454533 10.7441 5.93822e-06C13.5895 4.37173e-06 16.3182 1.13111 18.3291 3.14416C20.3401 5.15722 21.4683 7.88711 21.4653 10.7325C21.4653 15.0744 18.8492 18.9886 14.8374 20.6491C10.8255 22.3096 6.2084 21.3893 3.13981 18.3175C0.0712239 15.2457 -0.844224 10.6277 0.820508 6.61755ZM19.1591 13.995C19.5519 12.9524 19.7501 11.8466 19.7441 10.7325C19.7693 8.68354 19.0947 6.68728 17.8316 5.07376C17.3253 5.91751 16.3691 7.17751 15.1878 7.17751C14.7334 7.14097 14.276 7.1867 13.8378 7.31251V7.43626C13.8378 7.63876 14.3891 8.19001 14.6816 8.48251C15.41 9.02571 15.8951 9.83411 16.0316 10.7325C16.0316 12.5325 16.2116 13.0838 16.3691 13.2188C17.3416 13.2883 18.2903 13.5523 19.1591 13.995ZM1.74406 10.7325C1.73383 8.73118 2.39096 6.78355 3.61156 5.19751C3.93033 5.77888 4.54618 6.13452 5.20906 6.12001C6.11934 6.57899 6.92396 7.22268 7.57156 8.01001C7.09507 8.30298 6.66316 8.66291 6.28906 9.07876C6.25434 9.11219 6.21653 9.14901 6.17647 9.18802C5.86611 9.49023 5.42087 9.92379 5.23156 9.93375C4.71071 9.91801 4.20648 10.118 3.83801 10.4865C3.46955 10.8549 3.26956 11.3592 3.28531 11.88C3.28693 12.009 3.31769 12.1359 3.37531 12.2513L4.38781 14.2763C4.40073 15.441 4.5865 16.5973 4.93906 17.7075C2.88681 15.9756 1.71514 13.4177 1.74406 10.7325ZM7.67281 19.1925C8.65734 19.5498 9.69669 19.7326 10.7441 19.7325V19.7663C13.8403 19.7871 16.7299 18.2148 18.3941 15.6038C17.7155 15.2752 16.991 15.0514 16.2453 14.94C14.2991 14.94 14.2991 12.15 14.2991 10.8C14.2991 10.5961 13.7975 10.0954 13.4876 9.78602C13.4726 9.77105 13.4581 9.75653 13.4441 9.74251C12.7207 9.19645 12.2401 8.38873 12.1053 7.49251C12.1053 5.54626 14.0853 5.54626 15.1428 5.54626C15.4353 5.53501 16.1328 4.70251 16.5603 3.87001C13.2244 1.0461 8.34184 1.02712 4.98406 3.82501C5.00109 3.92176 5.00109 4.02075 4.98406 4.11751C4.99531 4.38751 5.11906 4.38751 5.24281 4.38751C6.59281 4.38751 9.61906 7.13251 9.66406 8.41501C9.66585 8.70422 9.54388 8.98039 9.32891 9.17386C9.11393 9.36734 8.82649 9.45965 8.53906 9.42751C8.33656 9.43876 7.78531 9.99001 7.49281 10.2825C6.94554 11.0065 6.13913 11.4903 5.24281 11.6325C5.15281 11.6325 5.01781 11.6325 5.01781 11.745L5.99656 13.6238C6.05418 13.7391 6.08494 13.8661 6.08656 13.995C6.08656 15.2213 6.35656 17.2125 6.94156 17.8088C7.34972 18.1624 7.61061 18.6561 7.67281 19.1925Z" fill="currentColor"/>
</svg>
