<svg width="23" height="20" viewBox="0 0 23 20" fill="none" xmlns="http://www.w3.org/2000/svg">
<path fill-rule="evenodd" clip-rule="evenodd" d="M22.3518 13.0683L22.5067 13.841C22.6753 14.5011 22.5377 15.2029 22.1331 15.7479C21.7284 16.2928 21.1007 16.6214 20.4277 16.6405H16.2143C16.2153 18.4531 14.7963 19.9396 13.0073 20H3.83977C2.82739 19.983 1.87811 19.4988 1.26202 18.6852C0.645928 17.8715 0.430492 16.8175 0.677008 15.8231L0.909239 14.7032C1.17927 13.1606 2.49187 12.0287 4.03882 12.0045H12.8193C13.2112 11.5302 13.7901 11.2556 14.4007 11.2542H20.2507C21.2836 11.2876 22.156 12.0408 22.3518 13.0683ZM20.4055 14.9496C20.5404 14.9445 20.6661 14.8789 20.7483 14.7704C20.893 14.6227 20.9658 14.4178 20.9474 14.2105L20.7926 13.4378C20.7626 13.1875 20.5649 12.992 20.3171 12.9675H14.4671C14.3398 12.9684 14.2206 13.0308 14.1464 13.1355C13.8293 13.5053 13.3694 13.7177 12.8857 13.7178H4.10517C3.34811 13.7365 2.71376 14.3033 2.6012 15.0616L2.36897 16.1814C2.25555 16.7329 2.38918 17.307 2.7339 17.7492C3.00318 18.0931 3.40675 18.3015 3.83976 18.3203H12.9742C13.8642 18.2604 14.5481 17.4986 14.5224 16.5957C14.5404 15.6812 15.2778 14.9494 16.1811 14.9496H20.4055Z" fill="#E3E3E3"/>
<path fill-rule="evenodd" clip-rule="evenodd" d="M12.7972 5.52072C12.7972 7.99456 10.8168 10 8.37379 10C5.93079 10 3.95035 7.99456 3.95035 5.52072V3.7626C3.95035 1.68457 5.61392 0 7.66604 0H9.11471C11.1539 0.0184373 12.7973 1.69762 12.7972 3.7626V5.52072ZM7.66604 1.67973C6.53004 1.67973 5.60914 2.61226 5.60914 3.7626L5.64231 5.52072C5.8188 6.93077 7.00335 7.98784 8.40696 7.98784C9.81057 7.98784 10.9951 6.93077 11.1716 5.52072V3.7626C11.1716 2.61226 10.2507 1.67973 9.11471 1.67973H7.66604Z" fill="#E3E3E3"/>
<path fill-rule="evenodd" clip-rule="evenodd" d="M21.1796 5.80067C21.1796 7.65605 19.6943 9.16013 17.8621 9.16013C16.0298 9.16013 14.5445 7.65605 14.5445 5.80067V4.51288C14.5443 2.97168 15.7652 1.71539 17.287 1.69093H18.3929C19.932 1.69093 21.1796 2.95436 21.1796 4.51288V5.80067ZM17.3091 3.39306C16.6984 3.39306 16.2033 3.89442 16.2033 4.51288V5.80067C16.2033 6.72836 16.9459 7.4804 17.8621 7.4804C18.7782 7.4804 19.5209 6.72836 19.5209 5.80067V4.51288C19.5209 3.89442 19.0257 3.39306 18.415 3.39306H17.3091Z" fill="#E3E3E3"/>
</svg>
