<svg width="20" height="20" viewBox="0 0 20 20" fill="none" xmlns="http://www.w3.org/2000/svg">
<path fill-rule="evenodd" clip-rule="evenodd" d="M1.65029 5.74125C3.09178 2.27317 6.46926 0.0101647 10.2188 0.000130486C14.2598 -0.021191 17.853 2.57228 19.1127 6.41951C20.3724 10.2667 19.0108 14.4889 15.7424 16.8701C12.4741 19.2514 8.04562 19.2479 4.78108 16.8613L1.8702 19.7779C1.57425 20.074 1.0948 20.074 0.79884 19.7779C0.503251 19.4813 0.503251 19.001 0.79884 18.7044L3.61875 15.879C0.984714 13.2054 0.208798 9.20932 1.65029 5.74125ZM3.00178 12.3234C4.21209 15.2457 7.061 17.149 10.2188 17.1449V17.1044C14.5045 17.0989 17.9837 13.6311 18.0114 9.33709C18.0155 6.17319 16.1159 3.31874 13.1993 2.10608C10.2827 0.893417 6.92414 1.56164 4.69127 3.79886C2.45839 6.03607 1.79146 9.40116 3.00178 12.3234Z" fill="#E3E3E3"/>
</svg>
