<svg width="14" height="14" viewBox="0 0 14 14" fill="none" xmlns="http://www.w3.org/2000/svg">
<path fill-rule="evenodd" clip-rule="evenodd" d="M11.0554 10.9453L11.1848 11.5598C11.3074 12.0911 11.1863 12.6494 10.8547 13.0822C10.523 13.515 10.0155 13.7771 9.47056 13.7969H4.46806C3.92316 13.7771 3.41558 13.515 3.08393 13.0822C2.75229 12.6494 2.63124 12.0911 2.75384 11.5598L2.88321 10.9453C3.03201 10.1134 3.74713 9.50201 4.59204 9.48439H9.34657C10.1915 9.50201 10.9066 10.1134 11.0554 10.9453ZM9.47056 12.9829C9.74429 12.9797 10.0019 12.8529 10.1713 12.6379V12.6433C10.3793 12.3825 10.4603 12.0427 10.3924 11.7161L10.263 11.1016C10.1912 10.6462 9.80728 10.3052 9.34658 10.2876H4.59204C4.13134 10.3052 3.74742 10.6462 3.67564 11.1016L3.54626 11.7161C3.48004 12.0409 3.56096 12.3784 3.76728 12.6379C3.93672 12.8529 4.19433 12.9797 4.46806 12.9829H9.47056Z" fill="#B9B9B9"/>
<path fill-rule="evenodd" clip-rule="evenodd" d="M7.23883 8.40626H6.69977C5.5089 8.40626 4.54352 7.44087 4.54352 6.25001V4.82688C4.54208 4.34607 4.73245 3.88454 5.07243 3.54455C5.41242 3.20456 5.87396 3.0142 6.35477 3.01563H7.58383C8.06464 3.0142 8.52618 3.20456 8.86617 3.54455C9.20615 3.88454 9.39652 4.34607 9.39508 4.82688V6.25001C9.39508 7.44087 8.4297 8.40626 7.23883 8.40626ZM6.35477 3.82423C5.80102 3.82423 5.35211 4.27313 5.35211 4.82688V6.25001C5.35211 6.9943 5.95548 7.59766 6.69977 7.59766H7.23883C7.98312 7.59766 8.58649 6.9943 8.58649 6.25001V4.82688C8.58649 4.56096 8.48085 4.30593 8.29282 4.1179C8.10478 3.92986 7.84975 3.82423 7.58383 3.82423H6.35477Z" fill="#B9B9B9"/>
</svg>
