<svg xmlns="http://www.w3.org/2000/svg" width="25" height="24" viewBox="0 0 25 24" fill="none">
  <path d="M19.5714 9.16394L15.0214 4.61394C14.1888 3.79568 12.854 3.79568 12.0214 4.61394L9.19139 7.40394C9.03043 7.56561 8.84478 7.70063 8.64139 7.80394L5.57139 9.34394C4.95453 9.65061 4.52302 10.2355 4.41202 10.9154C4.30102 11.5953 4.5241 12.287 5.01139 12.7739L7.68139 15.4439L4.44139 18.6839C4.14893 18.9768 4.14893 19.4511 4.44139 19.7439C4.58423 19.8811 4.77339 19.9596 4.97139 19.9639C5.17023 19.9638 5.36087 19.8846 5.50139 19.7439L8.74139 16.5039L11.4114 19.1739C11.8983 19.6612 12.5901 19.8843 13.27 19.7733C13.9498 19.6623 14.5347 19.2308 14.8414 18.6139L16.3814 15.5239C16.4847 15.3205 16.6197 15.1349 16.7814 14.9739L19.5714 12.1839C20.4028 11.349 20.4028 9.99892 19.5714 9.16394Z" fill="#D9D9D9"/>
</svg>