<svg width="12" height="12" viewBox="0 0 12 12" fill="none" xmlns="http://www.w3.org/2000/svg">
<path fill-rule="evenodd" clip-rule="evenodd" d="M4.90589 1.65427C5.07391 1.11083 5.57961 0.742825 6.14839 0.750106C6.72038 0.74436 7.22712 1.11787 7.39089 1.66594L7.77589 2.83261C7.94877 3.37256 8.45145 3.73835 9.01839 3.73677H10.2317C10.812 3.71478 11.3372 4.0784 11.5208 4.6293C11.7045 5.1802 11.5025 5.78619 11.0251 6.11677L10.0276 6.84594C9.56779 7.17619 9.37437 7.76587 9.54923 8.30427L9.93423 9.47094C10.0665 9.87482 9.99507 10.3177 9.74249 10.6595C9.48991 11.0013 9.08748 11.1997 8.66256 11.1918C8.38702 11.1897 8.11932 11.0998 7.89839 10.9351L6.94173 10.2059C6.48293 9.8713 5.86052 9.8713 5.40173 10.2059L4.39839 10.9351C4.17481 11.115 3.89781 11.2155 3.61089 11.2209C3.18289 11.2245 2.78004 11.0191 2.53147 10.6707C2.28291 10.3222 2.21987 9.87447 2.36256 9.47094L2.74756 8.30427C2.93305 7.76749 2.74886 7.17241 2.29256 6.83427L1.29506 6.10511C0.832691 5.77339 0.638172 5.18057 0.814119 4.6394C0.990066 4.09823 1.49602 3.73316 2.06506 3.73677H3.27839C3.8485 3.73675 4.35216 3.36551 4.52089 2.82094L4.90589 1.65427ZM6.45756 1.95761C6.42169 1.81792 6.29243 1.7228 6.14839 1.73011C5.99721 1.72493 5.86532 1.83193 5.83923 1.98094L5.45423 3.14761C5.14825 4.09046 4.26965 4.7288 3.27839 4.72844H2.04173C1.90427 4.7324 1.78401 4.82201 1.74092 4.9526C1.69782 5.08319 1.74112 5.22678 1.84923 5.31177L2.84673 6.04094C3.65131 6.62289 3.98835 7.65759 3.68089 8.60177L3.29589 9.76844C3.25808 9.86425 3.2736 9.97289 3.33673 10.0543C3.40219 10.1485 3.50792 10.2068 3.62256 10.2118C3.69257 10.2097 3.76006 10.1851 3.81506 10.1418L4.80089 9.41261C5.60439 8.82883 6.6924 8.82883 7.49589 9.41261L8.47006 10.1068C8.52506 10.1501 8.59255 10.1747 8.66256 10.1768C8.772 10.1697 8.87255 10.114 8.93673 10.0251C8.99985 9.94372 9.01537 9.83508 8.97756 9.73927L8.59256 8.57261C8.2851 7.62842 8.62214 6.59372 9.42673 6.01177L10.4242 5.28844C10.5323 5.20345 10.5756 5.05986 10.5325 4.92927C10.4894 4.79868 10.3692 4.70906 10.2317 4.70511H9.01839C8.02714 4.70547 7.14853 4.06712 6.84256 3.12427L6.45756 1.95761Z" fill="#BABABA"/>
</svg>
