<svg width="13" height="12" viewBox="0 0 13 12" fill="none" xmlns="http://www.w3.org/2000/svg">
<path fill-rule="evenodd" clip-rule="evenodd" d="M5.36729 1.09601C5.54843 0.510111 6.09365 0.113359 6.70686 0.121208C7.32354 0.115013 7.86986 0.517703 8.04643 1.10859L8.46151 2.3664C8.6479 2.94854 9.18984 3.34291 9.80108 3.34121H11.1092C11.7348 3.3175 12.301 3.70952 12.499 4.30346C12.697 4.8974 12.4792 5.55074 11.9645 5.90715L10.8891 6.69328C10.3934 7.04933 10.1849 7.68507 10.3734 8.26554L10.7885 9.52336C10.9311 9.95878 10.8541 10.4363 10.5817 10.8048C10.3094 11.1733 9.87556 11.3871 9.41745 11.3786C9.12038 11.3764 8.83177 11.2795 8.59358 11.1019L7.56217 10.3158C7.06753 9.955 6.3965 9.955 5.90186 10.3158L4.82014 11.1019C4.5791 11.2959 4.28045 11.4043 3.97112 11.4101C3.50968 11.4139 3.07535 11.1925 2.80737 10.8168C2.53939 10.4412 2.47142 9.95842 2.62526 9.52336L3.04034 8.26554C3.24032 7.68682 3.04174 7.04526 2.54979 6.6807L1.47436 5.89457C0.97587 5.53693 0.766154 4.8978 0.955847 4.31436C1.14554 3.73091 1.69102 3.33731 2.30452 3.34121H3.61264C4.22729 3.34118 4.7703 2.94094 4.95221 2.35383L5.36729 1.09601ZM7.04018 1.42304C7.00151 1.27244 6.86215 1.16989 6.70686 1.17777C6.54387 1.17219 6.40167 1.28755 6.37354 1.4482L5.95846 2.70601C5.62858 3.72252 4.68134 4.41074 3.61264 4.41035H2.27936C2.13117 4.41462 2.00151 4.51123 1.95505 4.65202C1.90859 4.79281 1.95527 4.94762 2.07182 5.03926L3.14725 5.82539C4.01469 6.4528 4.37807 7.56834 4.04659 8.58629L3.63151 9.8441C3.59074 9.94739 3.60748 10.0645 3.67553 10.1523C3.74611 10.2539 3.8601 10.3167 3.9837 10.3221C4.05918 10.3198 4.13194 10.2934 4.19124 10.2466L5.25409 9.46047C6.12035 8.83109 7.29337 8.83109 8.15963 9.46047L9.20991 10.2089C9.26921 10.2556 9.34197 10.2821 9.41745 10.2843C9.53544 10.2767 9.64384 10.2167 9.71303 10.1208C9.78109 10.0331 9.79782 9.91594 9.75706 9.81265L9.34198 8.55484C9.0105 7.53689 9.37387 6.42136 10.2413 5.79394L11.3167 5.0141C11.4333 4.92247 11.48 4.76766 11.4335 4.62687C11.3871 4.48608 11.2574 4.38946 11.1092 4.38519H9.80108C8.73238 4.38558 7.78514 3.69737 7.45526 2.68086L7.04018 1.42304Z" fill="#BABABA"/>
</svg>
