<svg width="24" height="24" viewBox="0 0 24 24" fill="none" xmlns="http://www.w3.org/2000/svg">
<path d="M15.7606 6.64355C15.3464 6.64355 15.0106 6.97934 15.0106 7.39355C15.0106 7.80777 15.3464 8.14355 15.7606 8.14355C17.5526 8.15441 19.0042 9.60155 19.0206 11.3936V13.3936C19.0042 15.1856 17.5526 16.6327 15.7606 16.6436H13.5406L14.9106 15.2836C15.203 14.9907 15.203 14.5164 14.9106 14.2236C14.7713 14.0806 14.5802 14 14.3806 14C14.181 14 13.9899 14.0806 13.8506 14.2236L11.2006 16.8636C11.1328 16.9329 11.0785 17.0143 11.0406 17.1036C10.9708 17.2906 10.9708 17.4965 11.0406 17.6836C11.0785 17.7728 11.1328 17.8542 11.2006 17.9236L13.8506 20.5636C14.1434 20.856 14.6178 20.856 14.9106 20.5636C15.203 20.2707 15.203 19.7964 14.9106 19.5036L13.5406 18.1436H15.7606C18.381 18.1326 20.5042 16.014 20.5206 13.3936V11.3936C20.5042 8.77314 18.381 6.65447 15.7606 6.64355Z" fill="black"/>
<path d="M12.48 7.68357C12.5497 7.49653 12.5497 7.29061 12.48 7.10357C12.4385 7.01626 12.3847 6.93542 12.32 6.86357L9.67 4.22357C9.53071 4.08062 9.33959 4 9.14 4C8.94041 4 8.74929 4.08062 8.61 4.22357C8.31755 4.51639 8.31755 4.99075 8.61 5.28357L9.98 6.64357H7.76C5.13955 6.65448 3.01642 8.77315 3 11.3936V13.3936C3.01642 16.014 5.13955 18.1327 7.76 18.1436C8.17421 18.1436 8.51 17.8078 8.51 17.3936C8.51 16.9794 8.17421 16.6436 7.76 16.6436C5.96796 16.6327 4.51636 15.1856 4.5 13.3936V11.3936C4.51636 9.60157 5.96796 8.15442 7.76 8.14357H9.97L8.61 9.50357C8.31755 9.79639 8.31755 10.2708 8.61 10.5636C8.90282 10.856 9.37718 10.856 9.67 10.5636L12.32 7.92357C12.3847 7.85172 12.4385 7.77088 12.48 7.68357Z" fill="black"/>
</svg>
