<svg xmlns="http://www.w3.org/2000/svg" width="464" height="368" viewBox="0 0 464 368" fill="none">
  <path d="M3.5 -94C3.5 -93.1716 2.82843 -92.5 2 -92.5C1.17157 -92.5 0.5 -93.1716 0.5 -94C0.5 -94.8284 1.17157 -95.5 2 -95.5C2.82843 -95.5 3.5 -94.8284 3.5 -94Z" fill="#D0D5DD"/>
  <path d="M26.5 -94C26.5 -93.1716 25.8284 -92.5 25 -92.5C24.1716 -92.5 23.5 -93.1716 23.5 -94C23.5 -94.8284 24.1716 -95.5 25 -95.5C25.8284 -95.5 26.5 -94.8284 26.5 -94Z" fill="#D0D5DD"/>
  <path d="M49.5 -94C49.5 -93.1716 48.8284 -92.5 48 -92.5C47.1716 -92.5 46.5 -93.1716 46.5 -94C46.5 -94.8284 47.1716 -95.5 48 -95.5C48.8284 -95.5 49.5 -94.8284 49.5 -94Z" fill="#D0D5DD"/>
  <path d="M72.5 -94C72.5 -93.1716 71.8284 -92.5 71 -92.5C70.1716 -92.5 69.5 -93.1716 69.5 -94C69.5 -94.8284 70.1716 -95.5 71 -95.5C71.8284 -95.5 72.5 -94.8284 72.5 -94Z" fill="#D0D5DD"/>
  <path d="M95.5 -94C95.5 -93.1716 94.8284 -92.5 94 -92.5C93.1716 -92.5 92.5 -93.1716 92.5 -94C92.5 -94.8284 93.1716 -95.5 94 -95.5C94.8284 -95.5 95.5 -94.8284 95.5 -94Z" fill="#D0D5DD"/>
  <path d="M118.5 -94C118.5 -93.1716 117.828 -92.5 117 -92.5C116.172 -92.5 115.5 -93.1716 115.5 -94C115.5 -94.8284 116.172 -95.5 117 -95.5C117.828 -95.5 118.5 -94.8284 118.5 -94Z" fill="#D0D5DD"/>
  <path d="M141.5 -94C141.5 -93.1716 140.828 -92.5 140 -92.5C139.172 -92.5 138.5 -93.1716 138.5 -94C138.5 -94.8284 139.172 -95.5 140 -95.5C140.828 -95.5 141.5 -94.8284 141.5 -94Z" fill="#D0D5DD"/>
  <path d="M164.5 -94C164.5 -93.1716 163.828 -92.5 163 -92.5C162.172 -92.5 161.5 -93.1716 161.5 -94C161.5 -94.8284 162.172 -95.5 163 -95.5C163.828 -95.5 164.5 -94.8284 164.5 -94Z" fill="#D0D5DD"/>
  <path d="M187.5 -94C187.5 -93.1716 186.828 -92.5 186 -92.5C185.172 -92.5 184.5 -93.1716 184.5 -94C184.5 -94.8284 185.172 -95.5 186 -95.5C186.828 -95.5 187.5 -94.8284 187.5 -94Z" fill="#D0D5DD"/>
  <path d="M210.5 -94C210.5 -93.1716 209.828 -92.5 209 -92.5C208.172 -92.5 207.5 -93.1716 207.5 -94C207.5 -94.8284 208.172 -95.5 209 -95.5C209.828 -95.5 210.5 -94.8284 210.5 -94Z" fill="#D0D5DD"/>
  <path d="M233.5 -94C233.5 -93.1716 232.828 -92.5 232 -92.5C231.172 -92.5 230.5 -93.1716 230.5 -94C230.5 -94.8284 231.172 -95.5 232 -95.5C232.828 -95.5 233.5 -94.8284 233.5 -94Z" fill="#D0D5DD"/>
  <path d="M256.5 -94C256.5 -93.1716 255.828 -92.5 255 -92.5C254.172 -92.5 253.5 -93.1716 253.5 -94C253.5 -94.8284 254.172 -95.5 255 -95.5C255.828 -95.5 256.5 -94.8284 256.5 -94Z" fill="#D0D5DD"/>
  <path d="M279.5 -94C279.5 -93.1716 278.828 -92.5 278 -92.5C277.172 -92.5 276.5 -93.1716 276.5 -94C276.5 -94.8284 277.172 -95.5 278 -95.5C278.828 -95.5 279.5 -94.8284 279.5 -94Z" fill="#D0D5DD"/>
  <path d="M302.5 -94C302.5 -93.1716 301.828 -92.5 301 -92.5C300.172 -92.5 299.5 -93.1716 299.5 -94C299.5 -94.8284 300.172 -95.5 301 -95.5C301.828 -95.5 302.5 -94.8284 302.5 -94Z" fill="#D0D5DD"/>
  <path d="M325.5 -94C325.5 -93.1716 324.828 -92.5 324 -92.5C323.172 -92.5 322.5 -93.1716 322.5 -94C322.5 -94.8284 323.172 -95.5 324 -95.5C324.828 -95.5 325.5 -94.8284 325.5 -94Z" fill="#D0D5DD"/>
  <path d="M348.5 -94C348.5 -93.1716 347.828 -92.5 347 -92.5C346.172 -92.5 345.5 -93.1716 345.5 -94C345.5 -94.8284 346.172 -95.5 347 -95.5C347.828 -95.5 348.5 -94.8284 348.5 -94Z" fill="#D0D5DD"/>
  <path d="M371.5 -94C371.5 -93.1716 370.828 -92.5 370 -92.5C369.172 -92.5 368.5 -93.1716 368.5 -94C368.5 -94.8284 369.172 -95.5 370 -95.5C370.828 -95.5 371.5 -94.8284 371.5 -94Z" fill="#D0D5DD"/>
  <path d="M394.5 -94C394.5 -93.1716 393.828 -92.5 393 -92.5C392.172 -92.5 391.5 -93.1716 391.5 -94C391.5 -94.8284 392.172 -95.5 393 -95.5C393.828 -95.5 394.5 -94.8284 394.5 -94Z" fill="#D0D5DD"/>
  <path d="M417.5 -94C417.5 -93.1716 416.828 -92.5 416 -92.5C415.172 -92.5 414.5 -93.1716 414.5 -94C414.5 -94.8284 415.172 -95.5 416 -95.5C416.828 -95.5 417.5 -94.8284 417.5 -94Z" fill="#D0D5DD"/>
  <path d="M440.5 -94C440.5 -93.1716 439.828 -92.5 439 -92.5C438.172 -92.5 437.5 -93.1716 437.5 -94C437.5 -94.8284 438.172 -95.5 439 -95.5C439.828 -95.5 440.5 -94.8284 440.5 -94Z" fill="#D0D5DD"/>
  <path d="M463.5 -94C463.5 -93.1716 462.828 -92.5 462 -92.5C461.172 -92.5 460.5 -93.1716 460.5 -94C460.5 -94.8284 461.172 -95.5 462 -95.5C462.828 -95.5 463.5 -94.8284 463.5 -94Z" fill="#D0D5DD"/>
  <path d="M3.5 -71C3.5 -70.1716 2.82843 -69.5 2 -69.5C1.17157 -69.5 0.5 -70.1716 0.5 -71C0.5 -71.8284 1.17157 -72.5 2 -72.5C2.82843 -72.5 3.5 -71.8284 3.5 -71Z" fill="#D0D5DD"/>
  <path d="M26.5 -71C26.5 -70.1716 25.8284 -69.5 25 -69.5C24.1716 -69.5 23.5 -70.1716 23.5 -71C23.5 -71.8284 24.1716 -72.5 25 -72.5C25.8284 -72.5 26.5 -71.8284 26.5 -71Z" fill="#D0D5DD"/>
  <path d="M49.5 -71C49.5 -70.1716 48.8284 -69.5 48 -69.5C47.1716 -69.5 46.5 -70.1716 46.5 -71C46.5 -71.8284 47.1716 -72.5 48 -72.5C48.8284 -72.5 49.5 -71.8284 49.5 -71Z" fill="#D0D5DD"/>
  <path d="M72.5 -71C72.5 -70.1716 71.8284 -69.5 71 -69.5C70.1716 -69.5 69.5 -70.1716 69.5 -71C69.5 -71.8284 70.1716 -72.5 71 -72.5C71.8284 -72.5 72.5 -71.8284 72.5 -71Z" fill="#D0D5DD"/>
  <path d="M95.5 -71C95.5 -70.1716 94.8284 -69.5 94 -69.5C93.1716 -69.5 92.5 -70.1716 92.5 -71C92.5 -71.8284 93.1716 -72.5 94 -72.5C94.8284 -72.5 95.5 -71.8284 95.5 -71Z" fill="#D0D5DD"/>
  <path d="M118.5 -71C118.5 -70.1716 117.828 -69.5 117 -69.5C116.172 -69.5 115.5 -70.1716 115.5 -71C115.5 -71.8284 116.172 -72.5 117 -72.5C117.828 -72.5 118.5 -71.8284 118.5 -71Z" fill="#D0D5DD"/>
  <path d="M141.5 -71C141.5 -70.1716 140.828 -69.5 140 -69.5C139.172 -69.5 138.5 -70.1716 138.5 -71C138.5 -71.8284 139.172 -72.5 140 -72.5C140.828 -72.5 141.5 -71.8284 141.5 -71Z" fill="#D0D5DD"/>
  <path d="M164.5 -71C164.5 -70.1716 163.828 -69.5 163 -69.5C162.172 -69.5 161.5 -70.1716 161.5 -71C161.5 -71.8284 162.172 -72.5 163 -72.5C163.828 -72.5 164.5 -71.8284 164.5 -71Z" fill="#D0D5DD"/>
  <path d="M187.5 -71C187.5 -70.1716 186.828 -69.5 186 -69.5C185.172 -69.5 184.5 -70.1716 184.5 -71C184.5 -71.8284 185.172 -72.5 186 -72.5C186.828 -72.5 187.5 -71.8284 187.5 -71Z" fill="#D0D5DD"/>
  <path d="M210.5 -71C210.5 -70.1716 209.828 -69.5 209 -69.5C208.172 -69.5 207.5 -70.1716 207.5 -71C207.5 -71.8284 208.172 -72.5 209 -72.5C209.828 -72.5 210.5 -71.8284 210.5 -71Z" fill="#D0D5DD"/>
  <path d="M233.5 -71C233.5 -70.1716 232.828 -69.5 232 -69.5C231.172 -69.5 230.5 -70.1716 230.5 -71C230.5 -71.8284 231.172 -72.5 232 -72.5C232.828 -72.5 233.5 -71.8284 233.5 -71Z" fill="#D0D5DD"/>
  <path d="M256.5 -71C256.5 -70.1716 255.828 -69.5 255 -69.5C254.172 -69.5 253.5 -70.1716 253.5 -71C253.5 -71.8284 254.172 -72.5 255 -72.5C255.828 -72.5 256.5 -71.8284 256.5 -71Z" fill="#D0D5DD"/>
  <path d="M279.5 -71C279.5 -70.1716 278.828 -69.5 278 -69.5C277.172 -69.5 276.5 -70.1716 276.5 -71C276.5 -71.8284 277.172 -72.5 278 -72.5C278.828 -72.5 279.5 -71.8284 279.5 -71Z" fill="#D0D5DD"/>
  <path d="M302.5 -71C302.5 -70.1716 301.828 -69.5 301 -69.5C300.172 -69.5 299.5 -70.1716 299.5 -71C299.5 -71.8284 300.172 -72.5 301 -72.5C301.828 -72.5 302.5 -71.8284 302.5 -71Z" fill="#D0D5DD"/>
  <path d="M325.5 -71C325.5 -70.1716 324.828 -69.5 324 -69.5C323.172 -69.5 322.5 -70.1716 322.5 -71C322.5 -71.8284 323.172 -72.5 324 -72.5C324.828 -72.5 325.5 -71.8284 325.5 -71Z" fill="#D0D5DD"/>
  <path d="M348.5 -71C348.5 -70.1716 347.828 -69.5 347 -69.5C346.172 -69.5 345.5 -70.1716 345.5 -71C345.5 -71.8284 346.172 -72.5 347 -72.5C347.828 -72.5 348.5 -71.8284 348.5 -71Z" fill="#D0D5DD"/>
  <path d="M371.5 -71C371.5 -70.1716 370.828 -69.5 370 -69.5C369.172 -69.5 368.5 -70.1716 368.5 -71C368.5 -71.8284 369.172 -72.5 370 -72.5C370.828 -72.5 371.5 -71.8284 371.5 -71Z" fill="#D0D5DD"/>
  <path d="M394.5 -71C394.5 -70.1716 393.828 -69.5 393 -69.5C392.172 -69.5 391.5 -70.1716 391.5 -71C391.5 -71.8284 392.172 -72.5 393 -72.5C393.828 -72.5 394.5 -71.8284 394.5 -71Z" fill="#D0D5DD"/>
  <path d="M417.5 -71C417.5 -70.1716 416.828 -69.5 416 -69.5C415.172 -69.5 414.5 -70.1716 414.5 -71C414.5 -71.8284 415.172 -72.5 416 -72.5C416.828 -72.5 417.5 -71.8284 417.5 -71Z" fill="#D0D5DD"/>
  <path d="M440.5 -71C440.5 -70.1716 439.828 -69.5 439 -69.5C438.172 -69.5 437.5 -70.1716 437.5 -71C437.5 -71.8284 438.172 -72.5 439 -72.5C439.828 -72.5 440.5 -71.8284 440.5 -71Z" fill="#D0D5DD"/>
  <path d="M463.5 -71C463.5 -70.1716 462.828 -69.5 462 -69.5C461.172 -69.5 460.5 -70.1716 460.5 -71C460.5 -71.8284 461.172 -72.5 462 -72.5C462.828 -72.5 463.5 -71.8284 463.5 -71Z" fill="#D0D5DD"/>
  <path d="M3.5 -48C3.5 -47.1716 2.82843 -46.5 2 -46.5C1.17157 -46.5 0.5 -47.1716 0.5 -48C0.5 -48.8284 1.17157 -49.5 2 -49.5C2.82843 -49.5 3.5 -48.8284 3.5 -48Z" fill="#D0D5DD"/>
  <path d="M26.5 -48C26.5 -47.1716 25.8284 -46.5 25 -46.5C24.1716 -46.5 23.5 -47.1716 23.5 -48C23.5 -48.8284 24.1716 -49.5 25 -49.5C25.8284 -49.5 26.5 -48.8284 26.5 -48Z" fill="#D0D5DD"/>
  <path d="M49.5 -48C49.5 -47.1716 48.8284 -46.5 48 -46.5C47.1716 -46.5 46.5 -47.1716 46.5 -48C46.5 -48.8284 47.1716 -49.5 48 -49.5C48.8284 -49.5 49.5 -48.8284 49.5 -48Z" fill="#D0D5DD"/>
  <path d="M72.5 -48C72.5 -47.1716 71.8284 -46.5 71 -46.5C70.1716 -46.5 69.5 -47.1716 69.5 -48C69.5 -48.8284 70.1716 -49.5 71 -49.5C71.8284 -49.5 72.5 -48.8284 72.5 -48Z" fill="#D0D5DD"/>
  <path d="M95.5 -48C95.5 -47.1716 94.8284 -46.5 94 -46.5C93.1716 -46.5 92.5 -47.1716 92.5 -48C92.5 -48.8284 93.1716 -49.5 94 -49.5C94.8284 -49.5 95.5 -48.8284 95.5 -48Z" fill="#D0D5DD"/>
  <path d="M118.5 -48C118.5 -47.1716 117.828 -46.5 117 -46.5C116.172 -46.5 115.5 -47.1716 115.5 -48C115.5 -48.8284 116.172 -49.5 117 -49.5C117.828 -49.5 118.5 -48.8284 118.5 -48Z" fill="#D0D5DD"/>
  <path d="M141.5 -48C141.5 -47.1716 140.828 -46.5 140 -46.5C139.172 -46.5 138.5 -47.1716 138.5 -48C138.5 -48.8284 139.172 -49.5 140 -49.5C140.828 -49.5 141.5 -48.8284 141.5 -48Z" fill="#D0D5DD"/>
  <path d="M164.5 -48C164.5 -47.1716 163.828 -46.5 163 -46.5C162.172 -46.5 161.5 -47.1716 161.5 -48C161.5 -48.8284 162.172 -49.5 163 -49.5C163.828 -49.5 164.5 -48.8284 164.5 -48Z" fill="#D0D5DD"/>
  <path d="M187.5 -48C187.5 -47.1716 186.828 -46.5 186 -46.5C185.172 -46.5 184.5 -47.1716 184.5 -48C184.5 -48.8284 185.172 -49.5 186 -49.5C186.828 -49.5 187.5 -48.8284 187.5 -48Z" fill="#D0D5DD"/>
  <path d="M210.5 -48C210.5 -47.1716 209.828 -46.5 209 -46.5C208.172 -46.5 207.5 -47.1716 207.5 -48C207.5 -48.8284 208.172 -49.5 209 -49.5C209.828 -49.5 210.5 -48.8284 210.5 -48Z" fill="#D0D5DD"/>
  <path d="M233.5 -48C233.5 -47.1716 232.828 -46.5 232 -46.5C231.172 -46.5 230.5 -47.1716 230.5 -48C230.5 -48.8284 231.172 -49.5 232 -49.5C232.828 -49.5 233.5 -48.8284 233.5 -48Z" fill="#D0D5DD"/>
  <path d="M256.5 -48C256.5 -47.1716 255.828 -46.5 255 -46.5C254.172 -46.5 253.5 -47.1716 253.5 -48C253.5 -48.8284 254.172 -49.5 255 -49.5C255.828 -49.5 256.5 -48.8284 256.5 -48Z" fill="#D0D5DD"/>
  <path d="M279.5 -48C279.5 -47.1716 278.828 -46.5 278 -46.5C277.172 -46.5 276.5 -47.1716 276.5 -48C276.5 -48.8284 277.172 -49.5 278 -49.5C278.828 -49.5 279.5 -48.8284 279.5 -48Z" fill="#D0D5DD"/>
  <path d="M302.5 -48C302.5 -47.1716 301.828 -46.5 301 -46.5C300.172 -46.5 299.5 -47.1716 299.5 -48C299.5 -48.8284 300.172 -49.5 301 -49.5C301.828 -49.5 302.5 -48.8284 302.5 -48Z" fill="#D0D5DD"/>
  <path d="M325.5 -48C325.5 -47.1716 324.828 -46.5 324 -46.5C323.172 -46.5 322.5 -47.1716 322.5 -48C322.5 -48.8284 323.172 -49.5 324 -49.5C324.828 -49.5 325.5 -48.8284 325.5 -48Z" fill="#D0D5DD"/>
  <path d="M348.5 -48C348.5 -47.1716 347.828 -46.5 347 -46.5C346.172 -46.5 345.5 -47.1716 345.5 -48C345.5 -48.8284 346.172 -49.5 347 -49.5C347.828 -49.5 348.5 -48.8284 348.5 -48Z" fill="#D0D5DD"/>
  <path d="M371.5 -48C371.5 -47.1716 370.828 -46.5 370 -46.5C369.172 -46.5 368.5 -47.1716 368.5 -48C368.5 -48.8284 369.172 -49.5 370 -49.5C370.828 -49.5 371.5 -48.8284 371.5 -48Z" fill="#D0D5DD"/>
  <path d="M394.5 -48C394.5 -47.1716 393.828 -46.5 393 -46.5C392.172 -46.5 391.5 -47.1716 391.5 -48C391.5 -48.8284 392.172 -49.5 393 -49.5C393.828 -49.5 394.5 -48.8284 394.5 -48Z" fill="#D0D5DD"/>
  <path d="M417.5 -48C417.5 -47.1716 416.828 -46.5 416 -46.5C415.172 -46.5 414.5 -47.1716 414.5 -48C414.5 -48.8284 415.172 -49.5 416 -49.5C416.828 -49.5 417.5 -48.8284 417.5 -48Z" fill="#D0D5DD"/>
  <path d="M440.5 -48C440.5 -47.1716 439.828 -46.5 439 -46.5C438.172 -46.5 437.5 -47.1716 437.5 -48C437.5 -48.8284 438.172 -49.5 439 -49.5C439.828 -49.5 440.5 -48.8284 440.5 -48Z" fill="#D0D5DD"/>
  <path d="M463.5 -48C463.5 -47.1716 462.828 -46.5 462 -46.5C461.172 -46.5 460.5 -47.1716 460.5 -48C460.5 -48.8284 461.172 -49.5 462 -49.5C462.828 -49.5 463.5 -48.8284 463.5 -48Z" fill="#D0D5DD"/>
  <path d="M3.5 -25C3.5 -24.1716 2.82843 -23.5 2 -23.5C1.17157 -23.5 0.5 -24.1716 0.5 -25C0.5 -25.8284 1.17157 -26.5 2 -26.5C2.82843 -26.5 3.5 -25.8284 3.5 -25Z" fill="#D0D5DD"/>
  <path d="M26.5 -25C26.5 -24.1716 25.8284 -23.5 25 -23.5C24.1716 -23.5 23.5 -24.1716 23.5 -25C23.5 -25.8284 24.1716 -26.5 25 -26.5C25.8284 -26.5 26.5 -25.8284 26.5 -25Z" fill="#D0D5DD"/>
  <path d="M49.5 -25C49.5 -24.1716 48.8284 -23.5 48 -23.5C47.1716 -23.5 46.5 -24.1716 46.5 -25C46.5 -25.8284 47.1716 -26.5 48 -26.5C48.8284 -26.5 49.5 -25.8284 49.5 -25Z" fill="#D0D5DD"/>
  <path d="M72.5 -25C72.5 -24.1716 71.8284 -23.5 71 -23.5C70.1716 -23.5 69.5 -24.1716 69.5 -25C69.5 -25.8284 70.1716 -26.5 71 -26.5C71.8284 -26.5 72.5 -25.8284 72.5 -25Z" fill="#D0D5DD"/>
  <path d="M95.5 -25C95.5 -24.1716 94.8284 -23.5 94 -23.5C93.1716 -23.5 92.5 -24.1716 92.5 -25C92.5 -25.8284 93.1716 -26.5 94 -26.5C94.8284 -26.5 95.5 -25.8284 95.5 -25Z" fill="#D0D5DD"/>
  <path d="M118.5 -25C118.5 -24.1716 117.828 -23.5 117 -23.5C116.172 -23.5 115.5 -24.1716 115.5 -25C115.5 -25.8284 116.172 -26.5 117 -26.5C117.828 -26.5 118.5 -25.8284 118.5 -25Z" fill="#D0D5DD"/>
  <path d="M141.5 -25C141.5 -24.1716 140.828 -23.5 140 -23.5C139.172 -23.5 138.5 -24.1716 138.5 -25C138.5 -25.8284 139.172 -26.5 140 -26.5C140.828 -26.5 141.5 -25.8284 141.5 -25Z" fill="#D0D5DD"/>
  <path d="M164.5 -25C164.5 -24.1716 163.828 -23.5 163 -23.5C162.172 -23.5 161.5 -24.1716 161.5 -25C161.5 -25.8284 162.172 -26.5 163 -26.5C163.828 -26.5 164.5 -25.8284 164.5 -25Z" fill="#D0D5DD"/>
  <path d="M187.5 -25C187.5 -24.1716 186.828 -23.5 186 -23.5C185.172 -23.5 184.5 -24.1716 184.5 -25C184.5 -25.8284 185.172 -26.5 186 -26.5C186.828 -26.5 187.5 -25.8284 187.5 -25Z" fill="#D0D5DD"/>
  <path d="M210.5 -25C210.5 -24.1716 209.828 -23.5 209 -23.5C208.172 -23.5 207.5 -24.1716 207.5 -25C207.5 -25.8284 208.172 -26.5 209 -26.5C209.828 -26.5 210.5 -25.8284 210.5 -25Z" fill="#D0D5DD"/>
  <path d="M233.5 -25C233.5 -24.1716 232.828 -23.5 232 -23.5C231.172 -23.5 230.5 -24.1716 230.5 -25C230.5 -25.8284 231.172 -26.5 232 -26.5C232.828 -26.5 233.5 -25.8284 233.5 -25Z" fill="#D0D5DD"/>
  <path d="M256.5 -25C256.5 -24.1716 255.828 -23.5 255 -23.5C254.172 -23.5 253.5 -24.1716 253.5 -25C253.5 -25.8284 254.172 -26.5 255 -26.5C255.828 -26.5 256.5 -25.8284 256.5 -25Z" fill="#D0D5DD"/>
  <path d="M279.5 -25C279.5 -24.1716 278.828 -23.5 278 -23.5C277.172 -23.5 276.5 -24.1716 276.5 -25C276.5 -25.8284 277.172 -26.5 278 -26.5C278.828 -26.5 279.5 -25.8284 279.5 -25Z" fill="#D0D5DD"/>
  <path d="M302.5 -25C302.5 -24.1716 301.828 -23.5 301 -23.5C300.172 -23.5 299.5 -24.1716 299.5 -25C299.5 -25.8284 300.172 -26.5 301 -26.5C301.828 -26.5 302.5 -25.8284 302.5 -25Z" fill="#D0D5DD"/>
  <path d="M325.5 -25C325.5 -24.1716 324.828 -23.5 324 -23.5C323.172 -23.5 322.5 -24.1716 322.5 -25C322.5 -25.8284 323.172 -26.5 324 -26.5C324.828 -26.5 325.5 -25.8284 325.5 -25Z" fill="#D0D5DD"/>
  <path d="M348.5 -25C348.5 -24.1716 347.828 -23.5 347 -23.5C346.172 -23.5 345.5 -24.1716 345.5 -25C345.5 -25.8284 346.172 -26.5 347 -26.5C347.828 -26.5 348.5 -25.8284 348.5 -25Z" fill="#D0D5DD"/>
  <path d="M371.5 -25C371.5 -24.1716 370.828 -23.5 370 -23.5C369.172 -23.5 368.5 -24.1716 368.5 -25C368.5 -25.8284 369.172 -26.5 370 -26.5C370.828 -26.5 371.5 -25.8284 371.5 -25Z" fill="#D0D5DD"/>
  <path d="M394.5 -25C394.5 -24.1716 393.828 -23.5 393 -23.5C392.172 -23.5 391.5 -24.1716 391.5 -25C391.5 -25.8284 392.172 -26.5 393 -26.5C393.828 -26.5 394.5 -25.8284 394.5 -25Z" fill="#D0D5DD"/>
  <path d="M417.5 -25C417.5 -24.1716 416.828 -23.5 416 -23.5C415.172 -23.5 414.5 -24.1716 414.5 -25C414.5 -25.8284 415.172 -26.5 416 -26.5C416.828 -26.5 417.5 -25.8284 417.5 -25Z" fill="#D0D5DD"/>
  <path d="M440.5 -25C440.5 -24.1716 439.828 -23.5 439 -23.5C438.172 -23.5 437.5 -24.1716 437.5 -25C437.5 -25.8284 438.172 -26.5 439 -26.5C439.828 -26.5 440.5 -25.8284 440.5 -25Z" fill="#D0D5DD"/>
  <path d="M463.5 -25C463.5 -24.1716 462.828 -23.5 462 -23.5C461.172 -23.5 460.5 -24.1716 460.5 -25C460.5 -25.8284 461.172 -26.5 462 -26.5C462.828 -26.5 463.5 -25.8284 463.5 -25Z" fill="#D0D5DD"/>
  <path d="M3.5 -2C3.5 -1.17157 2.82843 -0.5 2 -0.5C1.17157 -0.5 0.5 -1.17157 0.5 -2C0.5 -2.82843 1.17157 -3.5 2 -3.5C2.82843 -3.5 3.5 -2.82843 3.5 -2Z" fill="#D0D5DD"/>
  <path d="M26.5 -2C26.5 -1.17157 25.8284 -0.5 25 -0.5C24.1716 -0.5 23.5 -1.17157 23.5 -2C23.5 -2.82843 24.1716 -3.5 25 -3.5C25.8284 -3.5 26.5 -2.82843 26.5 -2Z" fill="#D0D5DD"/>
  <path d="M49.5 -2C49.5 -1.17157 48.8284 -0.5 48 -0.5C47.1716 -0.5 46.5 -1.17157 46.5 -2C46.5 -2.82843 47.1716 -3.5 48 -3.5C48.8284 -3.5 49.5 -2.82843 49.5 -2Z" fill="#D0D5DD"/>
  <path d="M72.5 -2C72.5 -1.17157 71.8284 -0.5 71 -0.5C70.1716 -0.5 69.5 -1.17157 69.5 -2C69.5 -2.82843 70.1716 -3.5 71 -3.5C71.8284 -3.5 72.5 -2.82843 72.5 -2Z" fill="#D0D5DD"/>
  <path d="M95.5 -2C95.5 -1.17157 94.8284 -0.5 94 -0.5C93.1716 -0.5 92.5 -1.17157 92.5 -2C92.5 -2.82843 93.1716 -3.5 94 -3.5C94.8284 -3.5 95.5 -2.82843 95.5 -2Z" fill="#D0D5DD"/>
  <path d="M118.5 -2C118.5 -1.17157 117.828 -0.5 117 -0.5C116.172 -0.5 115.5 -1.17157 115.5 -2C115.5 -2.82843 116.172 -3.5 117 -3.5C117.828 -3.5 118.5 -2.82843 118.5 -2Z" fill="#D0D5DD"/>
  <path d="M141.5 -2C141.5 -1.17157 140.828 -0.5 140 -0.5C139.172 -0.5 138.5 -1.17157 138.5 -2C138.5 -2.82843 139.172 -3.5 140 -3.5C140.828 -3.5 141.5 -2.82843 141.5 -2Z" fill="#D0D5DD"/>
  <path d="M164.5 -2C164.5 -1.17157 163.828 -0.5 163 -0.5C162.172 -0.5 161.5 -1.17157 161.5 -2C161.5 -2.82843 162.172 -3.5 163 -3.5C163.828 -3.5 164.5 -2.82843 164.5 -2Z" fill="#D0D5DD"/>
  <path d="M187.5 -2C187.5 -1.17157 186.828 -0.5 186 -0.5C185.172 -0.5 184.5 -1.17157 184.5 -2C184.5 -2.82843 185.172 -3.5 186 -3.5C186.828 -3.5 187.5 -2.82843 187.5 -2Z" fill="#D0D5DD"/>
  <path d="M210.5 -2C210.5 -1.17157 209.828 -0.5 209 -0.5C208.172 -0.5 207.5 -1.17157 207.5 -2C207.5 -2.82843 208.172 -3.5 209 -3.5C209.828 -3.5 210.5 -2.82843 210.5 -2Z" fill="#D0D5DD"/>
  <path d="M233.5 -2C233.5 -1.17157 232.828 -0.5 232 -0.5C231.172 -0.5 230.5 -1.17157 230.5 -2C230.5 -2.82843 231.172 -3.5 232 -3.5C232.828 -3.5 233.5 -2.82843 233.5 -2Z" fill="#D0D5DD"/>
  <path d="M256.5 -2C256.5 -1.17157 255.828 -0.5 255 -0.5C254.172 -0.5 253.5 -1.17157 253.5 -2C253.5 -2.82843 254.172 -3.5 255 -3.5C255.828 -3.5 256.5 -2.82843 256.5 -2Z" fill="#D0D5DD"/>
  <path d="M279.5 -2C279.5 -1.17157 278.828 -0.5 278 -0.5C277.172 -0.5 276.5 -1.17157 276.5 -2C276.5 -2.82843 277.172 -3.5 278 -3.5C278.828 -3.5 279.5 -2.82843 279.5 -2Z" fill="#D0D5DD"/>
  <path d="M302.5 -2C302.5 -1.17157 301.828 -0.5 301 -0.5C300.172 -0.5 299.5 -1.17157 299.5 -2C299.5 -2.82843 300.172 -3.5 301 -3.5C301.828 -3.5 302.5 -2.82843 302.5 -2Z" fill="#D0D5DD"/>
  <path d="M325.5 -2C325.5 -1.17157 324.828 -0.5 324 -0.5C323.172 -0.5 322.5 -1.17157 322.5 -2C322.5 -2.82843 323.172 -3.5 324 -3.5C324.828 -3.5 325.5 -2.82843 325.5 -2Z" fill="#D0D5DD"/>
  <path d="M348.5 -2C348.5 -1.17157 347.828 -0.5 347 -0.5C346.172 -0.5 345.5 -1.17157 345.5 -2C345.5 -2.82843 346.172 -3.5 347 -3.5C347.828 -3.5 348.5 -2.82843 348.5 -2Z" fill="#D0D5DD"/>
  <path d="M371.5 -2C371.5 -1.17157 370.828 -0.5 370 -0.5C369.172 -0.5 368.5 -1.17157 368.5 -2C368.5 -2.82843 369.172 -3.5 370 -3.5C370.828 -3.5 371.5 -2.82843 371.5 -2Z" fill="#D0D5DD"/>
  <path d="M394.5 -2C394.5 -1.17157 393.828 -0.5 393 -0.5C392.172 -0.5 391.5 -1.17157 391.5 -2C391.5 -2.82843 392.172 -3.5 393 -3.5C393.828 -3.5 394.5 -2.82843 394.5 -2Z" fill="#D0D5DD"/>
  <path d="M417.5 -2C417.5 -1.17157 416.828 -0.5 416 -0.5C415.172 -0.5 414.5 -1.17157 414.5 -2C414.5 -2.82843 415.172 -3.5 416 -3.5C416.828 -3.5 417.5 -2.82843 417.5 -2Z" fill="#D0D5DD"/>
  <path d="M440.5 -2C440.5 -1.17157 439.828 -0.5 439 -0.5C438.172 -0.5 437.5 -1.17157 437.5 -2C437.5 -2.82843 438.172 -3.5 439 -3.5C439.828 -3.5 440.5 -2.82843 440.5 -2Z" fill="#D0D5DD"/>
  <path d="M463.5 -2C463.5 -1.17157 462.828 -0.5 462 -0.5C461.172 -0.5 460.5 -1.17157 460.5 -2C460.5 -2.82843 461.172 -3.5 462 -3.5C462.828 -3.5 463.5 -2.82843 463.5 -2Z" fill="#D0D5DD"/>
  <path d="M3.5 21C3.5 21.8284 2.82843 22.5 2 22.5C1.17157 22.5 0.5 21.8284 0.5 21C0.5 20.1716 1.17157 19.5 2 19.5C2.82843 19.5 3.5 20.1716 3.5 21Z" fill="#D0D5DD"/>
  <path d="M26.5 21C26.5 21.8284 25.8284 22.5 25 22.5C24.1716 22.5 23.5 21.8284 23.5 21C23.5 20.1716 24.1716 19.5 25 19.5C25.8284 19.5 26.5 20.1716 26.5 21Z" fill="#D0D5DD"/>
  <path d="M49.5 21C49.5 21.8284 48.8284 22.5 48 22.5C47.1716 22.5 46.5 21.8284 46.5 21C46.5 20.1716 47.1716 19.5 48 19.5C48.8284 19.5 49.5 20.1716 49.5 21Z" fill="#D0D5DD"/>
  <path d="M72.5 21C72.5 21.8284 71.8284 22.5 71 22.5C70.1716 22.5 69.5 21.8284 69.5 21C69.5 20.1716 70.1716 19.5 71 19.5C71.8284 19.5 72.5 20.1716 72.5 21Z" fill="#D0D5DD"/>
  <path d="M95.5 21C95.5 21.8284 94.8284 22.5 94 22.5C93.1716 22.5 92.5 21.8284 92.5 21C92.5 20.1716 93.1716 19.5 94 19.5C94.8284 19.5 95.5 20.1716 95.5 21Z" fill="#D0D5DD"/>
  <path d="M118.5 21C118.5 21.8284 117.828 22.5 117 22.5C116.172 22.5 115.5 21.8284 115.5 21C115.5 20.1716 116.172 19.5 117 19.5C117.828 19.5 118.5 20.1716 118.5 21Z" fill="#D0D5DD"/>
  <path d="M141.5 21C141.5 21.8284 140.828 22.5 140 22.5C139.172 22.5 138.5 21.8284 138.5 21C138.5 20.1716 139.172 19.5 140 19.5C140.828 19.5 141.5 20.1716 141.5 21Z" fill="#D0D5DD"/>
  <path d="M164.5 21C164.5 21.8284 163.828 22.5 163 22.5C162.172 22.5 161.5 21.8284 161.5 21C161.5 20.1716 162.172 19.5 163 19.5C163.828 19.5 164.5 20.1716 164.5 21Z" fill="#D0D5DD"/>
  <path d="M187.5 21C187.5 21.8284 186.828 22.5 186 22.5C185.172 22.5 184.5 21.8284 184.5 21C184.5 20.1716 185.172 19.5 186 19.5C186.828 19.5 187.5 20.1716 187.5 21Z" fill="#D0D5DD"/>
  <path d="M210.5 21C210.5 21.8284 209.828 22.5 209 22.5C208.172 22.5 207.5 21.8284 207.5 21C207.5 20.1716 208.172 19.5 209 19.5C209.828 19.5 210.5 20.1716 210.5 21Z" fill="#D0D5DD"/>
  <path d="M233.5 21C233.5 21.8284 232.828 22.5 232 22.5C231.172 22.5 230.5 21.8284 230.5 21C230.5 20.1716 231.172 19.5 232 19.5C232.828 19.5 233.5 20.1716 233.5 21Z" fill="#D0D5DD"/>
  <path d="M256.5 21C256.5 21.8284 255.828 22.5 255 22.5C254.172 22.5 253.5 21.8284 253.5 21C253.5 20.1716 254.172 19.5 255 19.5C255.828 19.5 256.5 20.1716 256.5 21Z" fill="#D0D5DD"/>
  <path d="M279.5 21C279.5 21.8284 278.828 22.5 278 22.5C277.172 22.5 276.5 21.8284 276.5 21C276.5 20.1716 277.172 19.5 278 19.5C278.828 19.5 279.5 20.1716 279.5 21Z" fill="#D0D5DD"/>
  <path d="M302.5 21C302.5 21.8284 301.828 22.5 301 22.5C300.172 22.5 299.5 21.8284 299.5 21C299.5 20.1716 300.172 19.5 301 19.5C301.828 19.5 302.5 20.1716 302.5 21Z" fill="#D0D5DD"/>
  <path d="M325.5 21C325.5 21.8284 324.828 22.5 324 22.5C323.172 22.5 322.5 21.8284 322.5 21C322.5 20.1716 323.172 19.5 324 19.5C324.828 19.5 325.5 20.1716 325.5 21Z" fill="#D0D5DD"/>
  <path d="M348.5 21C348.5 21.8284 347.828 22.5 347 22.5C346.172 22.5 345.5 21.8284 345.5 21C345.5 20.1716 346.172 19.5 347 19.5C347.828 19.5 348.5 20.1716 348.5 21Z" fill="#D0D5DD"/>
  <path d="M371.5 21C371.5 21.8284 370.828 22.5 370 22.5C369.172 22.5 368.5 21.8284 368.5 21C368.5 20.1716 369.172 19.5 370 19.5C370.828 19.5 371.5 20.1716 371.5 21Z" fill="#D0D5DD"/>
  <path d="M394.5 21C394.5 21.8284 393.828 22.5 393 22.5C392.172 22.5 391.5 21.8284 391.5 21C391.5 20.1716 392.172 19.5 393 19.5C393.828 19.5 394.5 20.1716 394.5 21Z" fill="#D0D5DD"/>
  <path d="M417.5 21C417.5 21.8284 416.828 22.5 416 22.5C415.172 22.5 414.5 21.8284 414.5 21C414.5 20.1716 415.172 19.5 416 19.5C416.828 19.5 417.5 20.1716 417.5 21Z" fill="#D0D5DD"/>
  <path d="M440.5 21C440.5 21.8284 439.828 22.5 439 22.5C438.172 22.5 437.5 21.8284 437.5 21C437.5 20.1716 438.172 19.5 439 19.5C439.828 19.5 440.5 20.1716 440.5 21Z" fill="#D0D5DD"/>
  <path d="M463.5 21C463.5 21.8284 462.828 22.5 462 22.5C461.172 22.5 460.5 21.8284 460.5 21C460.5 20.1716 461.172 19.5 462 19.5C462.828 19.5 463.5 20.1716 463.5 21Z" fill="#D0D5DD"/>
  <path d="M3.5 44C3.5 44.8284 2.82843 45.5 2 45.5C1.17157 45.5 0.5 44.8284 0.5 44C0.5 43.1716 1.17157 42.5 2 42.5C2.82843 42.5 3.5 43.1716 3.5 44Z" fill="#D0D5DD"/>
  <path d="M26.5 44C26.5 44.8284 25.8284 45.5 25 45.5C24.1716 45.5 23.5 44.8284 23.5 44C23.5 43.1716 24.1716 42.5 25 42.5C25.8284 42.5 26.5 43.1716 26.5 44Z" fill="#D0D5DD"/>
  <path d="M49.5 44C49.5 44.8284 48.8284 45.5 48 45.5C47.1716 45.5 46.5 44.8284 46.5 44C46.5 43.1716 47.1716 42.5 48 42.5C48.8284 42.5 49.5 43.1716 49.5 44Z" fill="#D0D5DD"/>
  <path d="M72.5 44C72.5 44.8284 71.8284 45.5 71 45.5C70.1716 45.5 69.5 44.8284 69.5 44C69.5 43.1716 70.1716 42.5 71 42.5C71.8284 42.5 72.5 43.1716 72.5 44Z" fill="#D0D5DD"/>
  <path d="M95.5 44C95.5 44.8284 94.8284 45.5 94 45.5C93.1716 45.5 92.5 44.8284 92.5 44C92.5 43.1716 93.1716 42.5 94 42.5C94.8284 42.5 95.5 43.1716 95.5 44Z" fill="#D0D5DD"/>
  <path d="M118.5 44C118.5 44.8284 117.828 45.5 117 45.5C116.172 45.5 115.5 44.8284 115.5 44C115.5 43.1716 116.172 42.5 117 42.5C117.828 42.5 118.5 43.1716 118.5 44Z" fill="#D0D5DD"/>
  <path d="M141.5 44C141.5 44.8284 140.828 45.5 140 45.5C139.172 45.5 138.5 44.8284 138.5 44C138.5 43.1716 139.172 42.5 140 42.5C140.828 42.5 141.5 43.1716 141.5 44Z" fill="#D0D5DD"/>
  <path d="M164.5 44C164.5 44.8284 163.828 45.5 163 45.5C162.172 45.5 161.5 44.8284 161.5 44C161.5 43.1716 162.172 42.5 163 42.5C163.828 42.5 164.5 43.1716 164.5 44Z" fill="#D0D5DD"/>
  <path d="M187.5 44C187.5 44.8284 186.828 45.5 186 45.5C185.172 45.5 184.5 44.8284 184.5 44C184.5 43.1716 185.172 42.5 186 42.5C186.828 42.5 187.5 43.1716 187.5 44Z" fill="#D0D5DD"/>
  <path d="M210.5 44C210.5 44.8284 209.828 45.5 209 45.5C208.172 45.5 207.5 44.8284 207.5 44C207.5 43.1716 208.172 42.5 209 42.5C209.828 42.5 210.5 43.1716 210.5 44Z" fill="#D0D5DD"/>
  <path d="M233.5 44C233.5 44.8284 232.828 45.5 232 45.5C231.172 45.5 230.5 44.8284 230.5 44C230.5 43.1716 231.172 42.5 232 42.5C232.828 42.5 233.5 43.1716 233.5 44Z" fill="#D0D5DD"/>
  <path d="M256.5 44C256.5 44.8284 255.828 45.5 255 45.5C254.172 45.5 253.5 44.8284 253.5 44C253.5 43.1716 254.172 42.5 255 42.5C255.828 42.5 256.5 43.1716 256.5 44Z" fill="#D0D5DD"/>
  <path d="M279.5 44C279.5 44.8284 278.828 45.5 278 45.5C277.172 45.5 276.5 44.8284 276.5 44C276.5 43.1716 277.172 42.5 278 42.5C278.828 42.5 279.5 43.1716 279.5 44Z" fill="#D0D5DD"/>
  <path d="M302.5 44C302.5 44.8284 301.828 45.5 301 45.5C300.172 45.5 299.5 44.8284 299.5 44C299.5 43.1716 300.172 42.5 301 42.5C301.828 42.5 302.5 43.1716 302.5 44Z" fill="#D0D5DD"/>
  <path d="M325.5 44C325.5 44.8284 324.828 45.5 324 45.5C323.172 45.5 322.5 44.8284 322.5 44C322.5 43.1716 323.172 42.5 324 42.5C324.828 42.5 325.5 43.1716 325.5 44Z" fill="#D0D5DD"/>
  <path d="M348.5 44C348.5 44.8284 347.828 45.5 347 45.5C346.172 45.5 345.5 44.8284 345.5 44C345.5 43.1716 346.172 42.5 347 42.5C347.828 42.5 348.5 43.1716 348.5 44Z" fill="#D0D5DD"/>
  <path d="M371.5 44C371.5 44.8284 370.828 45.5 370 45.5C369.172 45.5 368.5 44.8284 368.5 44C368.5 43.1716 369.172 42.5 370 42.5C370.828 42.5 371.5 43.1716 371.5 44Z" fill="#D0D5DD"/>
  <path d="M394.5 44C394.5 44.8284 393.828 45.5 393 45.5C392.172 45.5 391.5 44.8284 391.5 44C391.5 43.1716 392.172 42.5 393 42.5C393.828 42.5 394.5 43.1716 394.5 44Z" fill="#D0D5DD"/>
  <path d="M417.5 44C417.5 44.8284 416.828 45.5 416 45.5C415.172 45.5 414.5 44.8284 414.5 44C414.5 43.1716 415.172 42.5 416 42.5C416.828 42.5 417.5 43.1716 417.5 44Z" fill="#D0D5DD"/>
  <path d="M440.5 44C440.5 44.8284 439.828 45.5 439 45.5C438.172 45.5 437.5 44.8284 437.5 44C437.5 43.1716 438.172 42.5 439 42.5C439.828 42.5 440.5 43.1716 440.5 44Z" fill="#D0D5DD"/>
  <path d="M463.5 44C463.5 44.8284 462.828 45.5 462 45.5C461.172 45.5 460.5 44.8284 460.5 44C460.5 43.1716 461.172 42.5 462 42.5C462.828 42.5 463.5 43.1716 463.5 44Z" fill="#D0D5DD"/>
  <path d="M3.5 67C3.5 67.8284 2.82843 68.5 2 68.5C1.17157 68.5 0.5 67.8284 0.5 67C0.5 66.1716 1.17157 65.5 2 65.5C2.82843 65.5 3.5 66.1716 3.5 67Z" fill="#D0D5DD"/>
  <path d="M26.5 67C26.5 67.8284 25.8284 68.5 25 68.5C24.1716 68.5 23.5 67.8284 23.5 67C23.5 66.1716 24.1716 65.5 25 65.5C25.8284 65.5 26.5 66.1716 26.5 67Z" fill="#D0D5DD"/>
  <path d="M49.5 67C49.5 67.8284 48.8284 68.5 48 68.5C47.1716 68.5 46.5 67.8284 46.5 67C46.5 66.1716 47.1716 65.5 48 65.5C48.8284 65.5 49.5 66.1716 49.5 67Z" fill="#D0D5DD"/>
  <path d="M72.5 67C72.5 67.8284 71.8284 68.5 71 68.5C70.1716 68.5 69.5 67.8284 69.5 67C69.5 66.1716 70.1716 65.5 71 65.5C71.8284 65.5 72.5 66.1716 72.5 67Z" fill="#D0D5DD"/>
  <path d="M95.5 67C95.5 67.8284 94.8284 68.5 94 68.5C93.1716 68.5 92.5 67.8284 92.5 67C92.5 66.1716 93.1716 65.5 94 65.5C94.8284 65.5 95.5 66.1716 95.5 67Z" fill="#D0D5DD"/>
  <path d="M118.5 67C118.5 67.8284 117.828 68.5 117 68.5C116.172 68.5 115.5 67.8284 115.5 67C115.5 66.1716 116.172 65.5 117 65.5C117.828 65.5 118.5 66.1716 118.5 67Z" fill="#D0D5DD"/>
  <path d="M141.5 67C141.5 67.8284 140.828 68.5 140 68.5C139.172 68.5 138.5 67.8284 138.5 67C138.5 66.1716 139.172 65.5 140 65.5C140.828 65.5 141.5 66.1716 141.5 67Z" fill="#D0D5DD"/>
  <path d="M164.5 67C164.5 67.8284 163.828 68.5 163 68.5C162.172 68.5 161.5 67.8284 161.5 67C161.5 66.1716 162.172 65.5 163 65.5C163.828 65.5 164.5 66.1716 164.5 67Z" fill="#D0D5DD"/>
  <path d="M187.5 67C187.5 67.8284 186.828 68.5 186 68.5C185.172 68.5 184.5 67.8284 184.5 67C184.5 66.1716 185.172 65.5 186 65.5C186.828 65.5 187.5 66.1716 187.5 67Z" fill="#D0D5DD"/>
  <path d="M210.5 67C210.5 67.8284 209.828 68.5 209 68.5C208.172 68.5 207.5 67.8284 207.5 67C207.5 66.1716 208.172 65.5 209 65.5C209.828 65.5 210.5 66.1716 210.5 67Z" fill="#D0D5DD"/>
  <path d="M233.5 67C233.5 67.8284 232.828 68.5 232 68.5C231.172 68.5 230.5 67.8284 230.5 67C230.5 66.1716 231.172 65.5 232 65.5C232.828 65.5 233.5 66.1716 233.5 67Z" fill="#D0D5DD"/>
  <path d="M256.5 67C256.5 67.8284 255.828 68.5 255 68.5C254.172 68.5 253.5 67.8284 253.5 67C253.5 66.1716 254.172 65.5 255 65.5C255.828 65.5 256.5 66.1716 256.5 67Z" fill="#D0D5DD"/>
  <path d="M279.5 67C279.5 67.8284 278.828 68.5 278 68.5C277.172 68.5 276.5 67.8284 276.5 67C276.5 66.1716 277.172 65.5 278 65.5C278.828 65.5 279.5 66.1716 279.5 67Z" fill="#D0D5DD"/>
  <path d="M302.5 67C302.5 67.8284 301.828 68.5 301 68.5C300.172 68.5 299.5 67.8284 299.5 67C299.5 66.1716 300.172 65.5 301 65.5C301.828 65.5 302.5 66.1716 302.5 67Z" fill="#D0D5DD"/>
  <path d="M325.5 67C325.5 67.8284 324.828 68.5 324 68.5C323.172 68.5 322.5 67.8284 322.5 67C322.5 66.1716 323.172 65.5 324 65.5C324.828 65.5 325.5 66.1716 325.5 67Z" fill="#D0D5DD"/>
  <path d="M348.5 67C348.5 67.8284 347.828 68.5 347 68.5C346.172 68.5 345.5 67.8284 345.5 67C345.5 66.1716 346.172 65.5 347 65.5C347.828 65.5 348.5 66.1716 348.5 67Z" fill="#D0D5DD"/>
  <path d="M371.5 67C371.5 67.8284 370.828 68.5 370 68.5C369.172 68.5 368.5 67.8284 368.5 67C368.5 66.1716 369.172 65.5 370 65.5C370.828 65.5 371.5 66.1716 371.5 67Z" fill="#D0D5DD"/>
  <path d="M394.5 67C394.5 67.8284 393.828 68.5 393 68.5C392.172 68.5 391.5 67.8284 391.5 67C391.5 66.1716 392.172 65.5 393 65.5C393.828 65.5 394.5 66.1716 394.5 67Z" fill="#D0D5DD"/>
  <path d="M417.5 67C417.5 67.8284 416.828 68.5 416 68.5C415.172 68.5 414.5 67.8284 414.5 67C414.5 66.1716 415.172 65.5 416 65.5C416.828 65.5 417.5 66.1716 417.5 67Z" fill="#D0D5DD"/>
  <path d="M440.5 67C440.5 67.8284 439.828 68.5 439 68.5C438.172 68.5 437.5 67.8284 437.5 67C437.5 66.1716 438.172 65.5 439 65.5C439.828 65.5 440.5 66.1716 440.5 67Z" fill="#D0D5DD"/>
  <path d="M463.5 67C463.5 67.8284 462.828 68.5 462 68.5C461.172 68.5 460.5 67.8284 460.5 67C460.5 66.1716 461.172 65.5 462 65.5C462.828 65.5 463.5 66.1716 463.5 67Z" fill="#D0D5DD"/>
  <path d="M3.5 90C3.5 90.8284 2.82843 91.5 2 91.5C1.17157 91.5 0.5 90.8284 0.5 90C0.5 89.1716 1.17157 88.5 2 88.5C2.82843 88.5 3.5 89.1716 3.5 90Z" fill="#D0D5DD"/>
  <path d="M26.5 90C26.5 90.8284 25.8284 91.5 25 91.5C24.1716 91.5 23.5 90.8284 23.5 90C23.5 89.1716 24.1716 88.5 25 88.5C25.8284 88.5 26.5 89.1716 26.5 90Z" fill="#D0D5DD"/>
  <path d="M49.5 90C49.5 90.8284 48.8284 91.5 48 91.5C47.1716 91.5 46.5 90.8284 46.5 90C46.5 89.1716 47.1716 88.5 48 88.5C48.8284 88.5 49.5 89.1716 49.5 90Z" fill="#D0D5DD"/>
  <path d="M72.5 90C72.5 90.8284 71.8284 91.5 71 91.5C70.1716 91.5 69.5 90.8284 69.5 90C69.5 89.1716 70.1716 88.5 71 88.5C71.8284 88.5 72.5 89.1716 72.5 90Z" fill="#D0D5DD"/>
  <path d="M95.5 90C95.5 90.8284 94.8284 91.5 94 91.5C93.1716 91.5 92.5 90.8284 92.5 90C92.5 89.1716 93.1716 88.5 94 88.5C94.8284 88.5 95.5 89.1716 95.5 90Z" fill="#D0D5DD"/>
  <path d="M118.5 90C118.5 90.8284 117.828 91.5 117 91.5C116.172 91.5 115.5 90.8284 115.5 90C115.5 89.1716 116.172 88.5 117 88.5C117.828 88.5 118.5 89.1716 118.5 90Z" fill="#D0D5DD"/>
  <path d="M141.5 90C141.5 90.8284 140.828 91.5 140 91.5C139.172 91.5 138.5 90.8284 138.5 90C138.5 89.1716 139.172 88.5 140 88.5C140.828 88.5 141.5 89.1716 141.5 90Z" fill="#D0D5DD"/>
  <path d="M164.5 90C164.5 90.8284 163.828 91.5 163 91.5C162.172 91.5 161.5 90.8284 161.5 90C161.5 89.1716 162.172 88.5 163 88.5C163.828 88.5 164.5 89.1716 164.5 90Z" fill="#D0D5DD"/>
  <path d="M187.5 90C187.5 90.8284 186.828 91.5 186 91.5C185.172 91.5 184.5 90.8284 184.5 90C184.5 89.1716 185.172 88.5 186 88.5C186.828 88.5 187.5 89.1716 187.5 90Z" fill="#D0D5DD"/>
  <path d="M210.5 90C210.5 90.8284 209.828 91.5 209 91.5C208.172 91.5 207.5 90.8284 207.5 90C207.5 89.1716 208.172 88.5 209 88.5C209.828 88.5 210.5 89.1716 210.5 90Z" fill="#D0D5DD"/>
  <path d="M233.5 90C233.5 90.8284 232.828 91.5 232 91.5C231.172 91.5 230.5 90.8284 230.5 90C230.5 89.1716 231.172 88.5 232 88.5C232.828 88.5 233.5 89.1716 233.5 90Z" fill="#D0D5DD"/>
  <path d="M256.5 90C256.5 90.8284 255.828 91.5 255 91.5C254.172 91.5 253.5 90.8284 253.5 90C253.5 89.1716 254.172 88.5 255 88.5C255.828 88.5 256.5 89.1716 256.5 90Z" fill="#D0D5DD"/>
  <path d="M279.5 90C279.5 90.8284 278.828 91.5 278 91.5C277.172 91.5 276.5 90.8284 276.5 90C276.5 89.1716 277.172 88.5 278 88.5C278.828 88.5 279.5 89.1716 279.5 90Z" fill="#D0D5DD"/>
  <path d="M302.5 90C302.5 90.8284 301.828 91.5 301 91.5C300.172 91.5 299.5 90.8284 299.5 90C299.5 89.1716 300.172 88.5 301 88.5C301.828 88.5 302.5 89.1716 302.5 90Z" fill="#D0D5DD"/>
  <path d="M325.5 90C325.5 90.8284 324.828 91.5 324 91.5C323.172 91.5 322.5 90.8284 322.5 90C322.5 89.1716 323.172 88.5 324 88.5C324.828 88.5 325.5 89.1716 325.5 90Z" fill="#D0D5DD"/>
  <path d="M348.5 90C348.5 90.8284 347.828 91.5 347 91.5C346.172 91.5 345.5 90.8284 345.5 90C345.5 89.1716 346.172 88.5 347 88.5C347.828 88.5 348.5 89.1716 348.5 90Z" fill="#D0D5DD"/>
  <path d="M371.5 90C371.5 90.8284 370.828 91.5 370 91.5C369.172 91.5 368.5 90.8284 368.5 90C368.5 89.1716 369.172 88.5 370 88.5C370.828 88.5 371.5 89.1716 371.5 90Z" fill="#D0D5DD"/>
  <path d="M394.5 90C394.5 90.8284 393.828 91.5 393 91.5C392.172 91.5 391.5 90.8284 391.5 90C391.5 89.1716 392.172 88.5 393 88.5C393.828 88.5 394.5 89.1716 394.5 90Z" fill="#D0D5DD"/>
  <path d="M417.5 90C417.5 90.8284 416.828 91.5 416 91.5C415.172 91.5 414.5 90.8284 414.5 90C414.5 89.1716 415.172 88.5 416 88.5C416.828 88.5 417.5 89.1716 417.5 90Z" fill="#D0D5DD"/>
  <path d="M440.5 90C440.5 90.8284 439.828 91.5 439 91.5C438.172 91.5 437.5 90.8284 437.5 90C437.5 89.1716 438.172 88.5 439 88.5C439.828 88.5 440.5 89.1716 440.5 90Z" fill="#D0D5DD"/>
  <path d="M463.5 90C463.5 90.8284 462.828 91.5 462 91.5C461.172 91.5 460.5 90.8284 460.5 90C460.5 89.1716 461.172 88.5 462 88.5C462.828 88.5 463.5 89.1716 463.5 90Z" fill="#D0D5DD"/>
  <path d="M3.5 113C3.5 113.828 2.82843 114.5 2 114.5C1.17157 114.5 0.5 113.828 0.5 113C0.5 112.172 1.17157 111.5 2 111.5C2.82843 111.5 3.5 112.172 3.5 113Z" fill="#D0D5DD"/>
  <path d="M26.5 113C26.5 113.828 25.8284 114.5 25 114.5C24.1716 114.5 23.5 113.828 23.5 113C23.5 112.172 24.1716 111.5 25 111.5C25.8284 111.5 26.5 112.172 26.5 113Z" fill="#D0D5DD"/>
  <path d="M49.5 113C49.5 113.828 48.8284 114.5 48 114.5C47.1716 114.5 46.5 113.828 46.5 113C46.5 112.172 47.1716 111.5 48 111.5C48.8284 111.5 49.5 112.172 49.5 113Z" fill="#D0D5DD"/>
  <path d="M72.5 113C72.5 113.828 71.8284 114.5 71 114.5C70.1716 114.5 69.5 113.828 69.5 113C69.5 112.172 70.1716 111.5 71 111.5C71.8284 111.5 72.5 112.172 72.5 113Z" fill="#D0D5DD"/>
  <path d="M95.5 113C95.5 113.828 94.8284 114.5 94 114.5C93.1716 114.5 92.5 113.828 92.5 113C92.5 112.172 93.1716 111.5 94 111.5C94.8284 111.5 95.5 112.172 95.5 113Z" fill="#D0D5DD"/>
  <path d="M118.5 113C118.5 113.828 117.828 114.5 117 114.5C116.172 114.5 115.5 113.828 115.5 113C115.5 112.172 116.172 111.5 117 111.5C117.828 111.5 118.5 112.172 118.5 113Z" fill="#D0D5DD"/>
  <path d="M141.5 113C141.5 113.828 140.828 114.5 140 114.5C139.172 114.5 138.5 113.828 138.5 113C138.5 112.172 139.172 111.5 140 111.5C140.828 111.5 141.5 112.172 141.5 113Z" fill="#D0D5DD"/>
  <path d="M164.5 113C164.5 113.828 163.828 114.5 163 114.5C162.172 114.5 161.5 113.828 161.5 113C161.5 112.172 162.172 111.5 163 111.5C163.828 111.5 164.5 112.172 164.5 113Z" fill="#D0D5DD"/>
  <path d="M187.5 113C187.5 113.828 186.828 114.5 186 114.5C185.172 114.5 184.5 113.828 184.5 113C184.5 112.172 185.172 111.5 186 111.5C186.828 111.5 187.5 112.172 187.5 113Z" fill="#D0D5DD"/>
  <path d="M210.5 113C210.5 113.828 209.828 114.5 209 114.5C208.172 114.5 207.5 113.828 207.5 113C207.5 112.172 208.172 111.5 209 111.5C209.828 111.5 210.5 112.172 210.5 113Z" fill="#D0D5DD"/>
  <path d="M233.5 113C233.5 113.828 232.828 114.5 232 114.5C231.172 114.5 230.5 113.828 230.5 113C230.5 112.172 231.172 111.5 232 111.5C232.828 111.5 233.5 112.172 233.5 113Z" fill="#D0D5DD"/>
  <path d="M256.5 113C256.5 113.828 255.828 114.5 255 114.5C254.172 114.5 253.5 113.828 253.5 113C253.5 112.172 254.172 111.5 255 111.5C255.828 111.5 256.5 112.172 256.5 113Z" fill="#D0D5DD"/>
  <path d="M279.5 113C279.5 113.828 278.828 114.5 278 114.5C277.172 114.5 276.5 113.828 276.5 113C276.5 112.172 277.172 111.5 278 111.5C278.828 111.5 279.5 112.172 279.5 113Z" fill="#D0D5DD"/>
  <path d="M302.5 113C302.5 113.828 301.828 114.5 301 114.5C300.172 114.5 299.5 113.828 299.5 113C299.5 112.172 300.172 111.5 301 111.5C301.828 111.5 302.5 112.172 302.5 113Z" fill="#D0D5DD"/>
  <path d="M325.5 113C325.5 113.828 324.828 114.5 324 114.5C323.172 114.5 322.5 113.828 322.5 113C322.5 112.172 323.172 111.5 324 111.5C324.828 111.5 325.5 112.172 325.5 113Z" fill="#D0D5DD"/>
  <path d="M348.5 113C348.5 113.828 347.828 114.5 347 114.5C346.172 114.5 345.5 113.828 345.5 113C345.5 112.172 346.172 111.5 347 111.5C347.828 111.5 348.5 112.172 348.5 113Z" fill="#D0D5DD"/>
  <path d="M371.5 113C371.5 113.828 370.828 114.5 370 114.5C369.172 114.5 368.5 113.828 368.5 113C368.5 112.172 369.172 111.5 370 111.5C370.828 111.5 371.5 112.172 371.5 113Z" fill="#D0D5DD"/>
  <path d="M394.5 113C394.5 113.828 393.828 114.5 393 114.5C392.172 114.5 391.5 113.828 391.5 113C391.5 112.172 392.172 111.5 393 111.5C393.828 111.5 394.5 112.172 394.5 113Z" fill="#D0D5DD"/>
  <path d="M417.5 113C417.5 113.828 416.828 114.5 416 114.5C415.172 114.5 414.5 113.828 414.5 113C414.5 112.172 415.172 111.5 416 111.5C416.828 111.5 417.5 112.172 417.5 113Z" fill="#D0D5DD"/>
  <path d="M440.5 113C440.5 113.828 439.828 114.5 439 114.5C438.172 114.5 437.5 113.828 437.5 113C437.5 112.172 438.172 111.5 439 111.5C439.828 111.5 440.5 112.172 440.5 113Z" fill="#D0D5DD"/>
  <path d="M463.5 113C463.5 113.828 462.828 114.5 462 114.5C461.172 114.5 460.5 113.828 460.5 113C460.5 112.172 461.172 111.5 462 111.5C462.828 111.5 463.5 112.172 463.5 113Z" fill="#D0D5DD"/>
  <path d="M3.5 136C3.5 136.828 2.82843 137.5 2 137.5C1.17157 137.5 0.5 136.828 0.5 136C0.5 135.172 1.17157 134.5 2 134.5C2.82843 134.5 3.5 135.172 3.5 136Z" fill="#D0D5DD"/>
  <path d="M26.5 136C26.5 136.828 25.8284 137.5 25 137.5C24.1716 137.5 23.5 136.828 23.5 136C23.5 135.172 24.1716 134.5 25 134.5C25.8284 134.5 26.5 135.172 26.5 136Z" fill="#D0D5DD"/>
  <path d="M49.5 136C49.5 136.828 48.8284 137.5 48 137.5C47.1716 137.5 46.5 136.828 46.5 136C46.5 135.172 47.1716 134.5 48 134.5C48.8284 134.5 49.5 135.172 49.5 136Z" fill="#D0D5DD"/>
  <path d="M72.5 136C72.5 136.828 71.8284 137.5 71 137.5C70.1716 137.5 69.5 136.828 69.5 136C69.5 135.172 70.1716 134.5 71 134.5C71.8284 134.5 72.5 135.172 72.5 136Z" fill="#D0D5DD"/>
  <path d="M95.5 136C95.5 136.828 94.8284 137.5 94 137.5C93.1716 137.5 92.5 136.828 92.5 136C92.5 135.172 93.1716 134.5 94 134.5C94.8284 134.5 95.5 135.172 95.5 136Z" fill="#D0D5DD"/>
  <path d="M118.5 136C118.5 136.828 117.828 137.5 117 137.5C116.172 137.5 115.5 136.828 115.5 136C115.5 135.172 116.172 134.5 117 134.5C117.828 134.5 118.5 135.172 118.5 136Z" fill="#D0D5DD"/>
  <path d="M141.5 136C141.5 136.828 140.828 137.5 140 137.5C139.172 137.5 138.5 136.828 138.5 136C138.5 135.172 139.172 134.5 140 134.5C140.828 134.5 141.5 135.172 141.5 136Z" fill="#D0D5DD"/>
  <path d="M164.5 136C164.5 136.828 163.828 137.5 163 137.5C162.172 137.5 161.5 136.828 161.5 136C161.5 135.172 162.172 134.5 163 134.5C163.828 134.5 164.5 135.172 164.5 136Z" fill="#D0D5DD"/>
  <path d="M187.5 136C187.5 136.828 186.828 137.5 186 137.5C185.172 137.5 184.5 136.828 184.5 136C184.5 135.172 185.172 134.5 186 134.5C186.828 134.5 187.5 135.172 187.5 136Z" fill="#D0D5DD"/>
  <path d="M210.5 136C210.5 136.828 209.828 137.5 209 137.5C208.172 137.5 207.5 136.828 207.5 136C207.5 135.172 208.172 134.5 209 134.5C209.828 134.5 210.5 135.172 210.5 136Z" fill="#D0D5DD"/>
  <path d="M233.5 136C233.5 136.828 232.828 137.5 232 137.5C231.172 137.5 230.5 136.828 230.5 136C230.5 135.172 231.172 134.5 232 134.5C232.828 134.5 233.5 135.172 233.5 136Z" fill="#D0D5DD"/>
  <path d="M256.5 136C256.5 136.828 255.828 137.5 255 137.5C254.172 137.5 253.5 136.828 253.5 136C253.5 135.172 254.172 134.5 255 134.5C255.828 134.5 256.5 135.172 256.5 136Z" fill="#D0D5DD"/>
  <path d="M279.5 136C279.5 136.828 278.828 137.5 278 137.5C277.172 137.5 276.5 136.828 276.5 136C276.5 135.172 277.172 134.5 278 134.5C278.828 134.5 279.5 135.172 279.5 136Z" fill="#D0D5DD"/>
  <path d="M302.5 136C302.5 136.828 301.828 137.5 301 137.5C300.172 137.5 299.5 136.828 299.5 136C299.5 135.172 300.172 134.5 301 134.5C301.828 134.5 302.5 135.172 302.5 136Z" fill="#D0D5DD"/>
  <path d="M325.5 136C325.5 136.828 324.828 137.5 324 137.5C323.172 137.5 322.5 136.828 322.5 136C322.5 135.172 323.172 134.5 324 134.5C324.828 134.5 325.5 135.172 325.5 136Z" fill="#D0D5DD"/>
  <path d="M348.5 136C348.5 136.828 347.828 137.5 347 137.5C346.172 137.5 345.5 136.828 345.5 136C345.5 135.172 346.172 134.5 347 134.5C347.828 134.5 348.5 135.172 348.5 136Z" fill="#D0D5DD"/>
  <path d="M371.5 136C371.5 136.828 370.828 137.5 370 137.5C369.172 137.5 368.5 136.828 368.5 136C368.5 135.172 369.172 134.5 370 134.5C370.828 134.5 371.5 135.172 371.5 136Z" fill="#D0D5DD"/>
  <path d="M394.5 136C394.5 136.828 393.828 137.5 393 137.5C392.172 137.5 391.5 136.828 391.5 136C391.5 135.172 392.172 134.5 393 134.5C393.828 134.5 394.5 135.172 394.5 136Z" fill="#D0D5DD"/>
  <path d="M417.5 136C417.5 136.828 416.828 137.5 416 137.5C415.172 137.5 414.5 136.828 414.5 136C414.5 135.172 415.172 134.5 416 134.5C416.828 134.5 417.5 135.172 417.5 136Z" fill="#D0D5DD"/>
  <path d="M440.5 136C440.5 136.828 439.828 137.5 439 137.5C438.172 137.5 437.5 136.828 437.5 136C437.5 135.172 438.172 134.5 439 134.5C439.828 134.5 440.5 135.172 440.5 136Z" fill="#D0D5DD"/>
  <path d="M463.5 136C463.5 136.828 462.828 137.5 462 137.5C461.172 137.5 460.5 136.828 460.5 136C460.5 135.172 461.172 134.5 462 134.5C462.828 134.5 463.5 135.172 463.5 136Z" fill="#D0D5DD"/>
  <path d="M3.5 159C3.5 159.828 2.82843 160.5 2 160.5C1.17157 160.5 0.5 159.828 0.5 159C0.5 158.172 1.17157 157.5 2 157.5C2.82843 157.5 3.5 158.172 3.5 159Z" fill="#D0D5DD"/>
  <path d="M26.5 159C26.5 159.828 25.8284 160.5 25 160.5C24.1716 160.5 23.5 159.828 23.5 159C23.5 158.172 24.1716 157.5 25 157.5C25.8284 157.5 26.5 158.172 26.5 159Z" fill="#D0D5DD"/>
  <path d="M49.5 159C49.5 159.828 48.8284 160.5 48 160.5C47.1716 160.5 46.5 159.828 46.5 159C46.5 158.172 47.1716 157.5 48 157.5C48.8284 157.5 49.5 158.172 49.5 159Z" fill="#D0D5DD"/>
  <path d="M72.5 159C72.5 159.828 71.8284 160.5 71 160.5C70.1716 160.5 69.5 159.828 69.5 159C69.5 158.172 70.1716 157.5 71 157.5C71.8284 157.5 72.5 158.172 72.5 159Z" fill="#D0D5DD"/>
  <path d="M95.5 159C95.5 159.828 94.8284 160.5 94 160.5C93.1716 160.5 92.5 159.828 92.5 159C92.5 158.172 93.1716 157.5 94 157.5C94.8284 157.5 95.5 158.172 95.5 159Z" fill="#D0D5DD"/>
  <path d="M118.5 159C118.5 159.828 117.828 160.5 117 160.5C116.172 160.5 115.5 159.828 115.5 159C115.5 158.172 116.172 157.5 117 157.5C117.828 157.5 118.5 158.172 118.5 159Z" fill="#D0D5DD"/>
  <path d="M141.5 159C141.5 159.828 140.828 160.5 140 160.5C139.172 160.5 138.5 159.828 138.5 159C138.5 158.172 139.172 157.5 140 157.5C140.828 157.5 141.5 158.172 141.5 159Z" fill="#D0D5DD"/>
  <path d="M164.5 159C164.5 159.828 163.828 160.5 163 160.5C162.172 160.5 161.5 159.828 161.5 159C161.5 158.172 162.172 157.5 163 157.5C163.828 157.5 164.5 158.172 164.5 159Z" fill="#D0D5DD"/>
  <path d="M187.5 159C187.5 159.828 186.828 160.5 186 160.5C185.172 160.5 184.5 159.828 184.5 159C184.5 158.172 185.172 157.5 186 157.5C186.828 157.5 187.5 158.172 187.5 159Z" fill="#D0D5DD"/>
  <path d="M210.5 159C210.5 159.828 209.828 160.5 209 160.5C208.172 160.5 207.5 159.828 207.5 159C207.5 158.172 208.172 157.5 209 157.5C209.828 157.5 210.5 158.172 210.5 159Z" fill="#D0D5DD"/>
  <path d="M233.5 159C233.5 159.828 232.828 160.5 232 160.5C231.172 160.5 230.5 159.828 230.5 159C230.5 158.172 231.172 157.5 232 157.5C232.828 157.5 233.5 158.172 233.5 159Z" fill="#D0D5DD"/>
  <path d="M256.5 159C256.5 159.828 255.828 160.5 255 160.5C254.172 160.5 253.5 159.828 253.5 159C253.5 158.172 254.172 157.5 255 157.5C255.828 157.5 256.5 158.172 256.5 159Z" fill="#D0D5DD"/>
  <path d="M279.5 159C279.5 159.828 278.828 160.5 278 160.5C277.172 160.5 276.5 159.828 276.5 159C276.5 158.172 277.172 157.5 278 157.5C278.828 157.5 279.5 158.172 279.5 159Z" fill="#D0D5DD"/>
  <path d="M302.5 159C302.5 159.828 301.828 160.5 301 160.5C300.172 160.5 299.5 159.828 299.5 159C299.5 158.172 300.172 157.5 301 157.5C301.828 157.5 302.5 158.172 302.5 159Z" fill="#D0D5DD"/>
  <path d="M325.5 159C325.5 159.828 324.828 160.5 324 160.5C323.172 160.5 322.5 159.828 322.5 159C322.5 158.172 323.172 157.5 324 157.5C324.828 157.5 325.5 158.172 325.5 159Z" fill="#D0D5DD"/>
  <path d="M348.5 159C348.5 159.828 347.828 160.5 347 160.5C346.172 160.5 345.5 159.828 345.5 159C345.5 158.172 346.172 157.5 347 157.5C347.828 157.5 348.5 158.172 348.5 159Z" fill="#D0D5DD"/>
  <path d="M371.5 159C371.5 159.828 370.828 160.5 370 160.5C369.172 160.5 368.5 159.828 368.5 159C368.5 158.172 369.172 157.5 370 157.5C370.828 157.5 371.5 158.172 371.5 159Z" fill="#D0D5DD"/>
  <path d="M394.5 159C394.5 159.828 393.828 160.5 393 160.5C392.172 160.5 391.5 159.828 391.5 159C391.5 158.172 392.172 157.5 393 157.5C393.828 157.5 394.5 158.172 394.5 159Z" fill="#D0D5DD"/>
  <path d="M417.5 159C417.5 159.828 416.828 160.5 416 160.5C415.172 160.5 414.5 159.828 414.5 159C414.5 158.172 415.172 157.5 416 157.5C416.828 157.5 417.5 158.172 417.5 159Z" fill="#D0D5DD"/>
  <path d="M440.5 159C440.5 159.828 439.828 160.5 439 160.5C438.172 160.5 437.5 159.828 437.5 159C437.5 158.172 438.172 157.5 439 157.5C439.828 157.5 440.5 158.172 440.5 159Z" fill="#D0D5DD"/>
  <path d="M463.5 159C463.5 159.828 462.828 160.5 462 160.5C461.172 160.5 460.5 159.828 460.5 159C460.5 158.172 461.172 157.5 462 157.5C462.828 157.5 463.5 158.172 463.5 159Z" fill="#D0D5DD"/>
  <path d="M3.5 182C3.5 182.828 2.82843 183.5 2 183.5C1.17157 183.5 0.5 182.828 0.5 182C0.5 181.172 1.17157 180.5 2 180.5C2.82843 180.5 3.5 181.172 3.5 182Z" fill="#D0D5DD"/>
  <path d="M26.5 182C26.5 182.828 25.8284 183.5 25 183.5C24.1716 183.5 23.5 182.828 23.5 182C23.5 181.172 24.1716 180.5 25 180.5C25.8284 180.5 26.5 181.172 26.5 182Z" fill="#D0D5DD"/>
  <path d="M49.5 182C49.5 182.828 48.8284 183.5 48 183.5C47.1716 183.5 46.5 182.828 46.5 182C46.5 181.172 47.1716 180.5 48 180.5C48.8284 180.5 49.5 181.172 49.5 182Z" fill="#D0D5DD"/>
  <path d="M72.5 182C72.5 182.828 71.8284 183.5 71 183.5C70.1716 183.5 69.5 182.828 69.5 182C69.5 181.172 70.1716 180.5 71 180.5C71.8284 180.5 72.5 181.172 72.5 182Z" fill="#D0D5DD"/>
  <path d="M95.5 182C95.5 182.828 94.8284 183.5 94 183.5C93.1716 183.5 92.5 182.828 92.5 182C92.5 181.172 93.1716 180.5 94 180.5C94.8284 180.5 95.5 181.172 95.5 182Z" fill="#D0D5DD"/>
  <path d="M118.5 182C118.5 182.828 117.828 183.5 117 183.5C116.172 183.5 115.5 182.828 115.5 182C115.5 181.172 116.172 180.5 117 180.5C117.828 180.5 118.5 181.172 118.5 182Z" fill="#D0D5DD"/>
  <path d="M141.5 182C141.5 182.828 140.828 183.5 140 183.5C139.172 183.5 138.5 182.828 138.5 182C138.5 181.172 139.172 180.5 140 180.5C140.828 180.5 141.5 181.172 141.5 182Z" fill="#D0D5DD"/>
  <path d="M164.5 182C164.5 182.828 163.828 183.5 163 183.5C162.172 183.5 161.5 182.828 161.5 182C161.5 181.172 162.172 180.5 163 180.5C163.828 180.5 164.5 181.172 164.5 182Z" fill="#D0D5DD"/>
  <path d="M187.5 182C187.5 182.828 186.828 183.5 186 183.5C185.172 183.5 184.5 182.828 184.5 182C184.5 181.172 185.172 180.5 186 180.5C186.828 180.5 187.5 181.172 187.5 182Z" fill="#D0D5DD"/>
  <path d="M210.5 182C210.5 182.828 209.828 183.5 209 183.5C208.172 183.5 207.5 182.828 207.5 182C207.5 181.172 208.172 180.5 209 180.5C209.828 180.5 210.5 181.172 210.5 182Z" fill="#D0D5DD"/>
  <path d="M233.5 182C233.5 182.828 232.828 183.5 232 183.5C231.172 183.5 230.5 182.828 230.5 182C230.5 181.172 231.172 180.5 232 180.5C232.828 180.5 233.5 181.172 233.5 182Z" fill="#D0D5DD"/>
  <path d="M256.5 182C256.5 182.828 255.828 183.5 255 183.5C254.172 183.5 253.5 182.828 253.5 182C253.5 181.172 254.172 180.5 255 180.5C255.828 180.5 256.5 181.172 256.5 182Z" fill="#D0D5DD"/>
  <path d="M279.5 182C279.5 182.828 278.828 183.5 278 183.5C277.172 183.5 276.5 182.828 276.5 182C276.5 181.172 277.172 180.5 278 180.5C278.828 180.5 279.5 181.172 279.5 182Z" fill="#D0D5DD"/>
  <path d="M302.5 182C302.5 182.828 301.828 183.5 301 183.5C300.172 183.5 299.5 182.828 299.5 182C299.5 181.172 300.172 180.5 301 180.5C301.828 180.5 302.5 181.172 302.5 182Z" fill="#D0D5DD"/>
  <path d="M325.5 182C325.5 182.828 324.828 183.5 324 183.5C323.172 183.5 322.5 182.828 322.5 182C322.5 181.172 323.172 180.5 324 180.5C324.828 180.5 325.5 181.172 325.5 182Z" fill="#D0D5DD"/>
  <path d="M348.5 182C348.5 182.828 347.828 183.5 347 183.5C346.172 183.5 345.5 182.828 345.5 182C345.5 181.172 346.172 180.5 347 180.5C347.828 180.5 348.5 181.172 348.5 182Z" fill="#D0D5DD"/>
  <path d="M371.5 182C371.5 182.828 370.828 183.5 370 183.5C369.172 183.5 368.5 182.828 368.5 182C368.5 181.172 369.172 180.5 370 180.5C370.828 180.5 371.5 181.172 371.5 182Z" fill="#D0D5DD"/>
  <path d="M394.5 182C394.5 182.828 393.828 183.5 393 183.5C392.172 183.5 391.5 182.828 391.5 182C391.5 181.172 392.172 180.5 393 180.5C393.828 180.5 394.5 181.172 394.5 182Z" fill="#D0D5DD"/>
  <path d="M417.5 182C417.5 182.828 416.828 183.5 416 183.5C415.172 183.5 414.5 182.828 414.5 182C414.5 181.172 415.172 180.5 416 180.5C416.828 180.5 417.5 181.172 417.5 182Z" fill="#D0D5DD"/>
  <path d="M440.5 182C440.5 182.828 439.828 183.5 439 183.5C438.172 183.5 437.5 182.828 437.5 182C437.5 181.172 438.172 180.5 439 180.5C439.828 180.5 440.5 181.172 440.5 182Z" fill="#D0D5DD"/>
  <path d="M463.5 182C463.5 182.828 462.828 183.5 462 183.5C461.172 183.5 460.5 182.828 460.5 182C460.5 181.172 461.172 180.5 462 180.5C462.828 180.5 463.5 181.172 463.5 182Z" fill="#D0D5DD"/>
  <path d="M3.5 205C3.5 205.828 2.82843 206.5 2 206.5C1.17157 206.5 0.5 205.828 0.5 205C0.5 204.172 1.17157 203.5 2 203.5C2.82843 203.5 3.5 204.172 3.5 205Z" fill="#D0D5DD"/>
  <path d="M26.5 205C26.5 205.828 25.8284 206.5 25 206.5C24.1716 206.5 23.5 205.828 23.5 205C23.5 204.172 24.1716 203.5 25 203.5C25.8284 203.5 26.5 204.172 26.5 205Z" fill="#D0D5DD"/>
  <path d="M49.5 205C49.5 205.828 48.8284 206.5 48 206.5C47.1716 206.5 46.5 205.828 46.5 205C46.5 204.172 47.1716 203.5 48 203.5C48.8284 203.5 49.5 204.172 49.5 205Z" fill="#D0D5DD"/>
  <path d="M72.5 205C72.5 205.828 71.8284 206.5 71 206.5C70.1716 206.5 69.5 205.828 69.5 205C69.5 204.172 70.1716 203.5 71 203.5C71.8284 203.5 72.5 204.172 72.5 205Z" fill="#D0D5DD"/>
  <path d="M95.5 205C95.5 205.828 94.8284 206.5 94 206.5C93.1716 206.5 92.5 205.828 92.5 205C92.5 204.172 93.1716 203.5 94 203.5C94.8284 203.5 95.5 204.172 95.5 205Z" fill="#D0D5DD"/>
  <path d="M118.5 205C118.5 205.828 117.828 206.5 117 206.5C116.172 206.5 115.5 205.828 115.5 205C115.5 204.172 116.172 203.5 117 203.5C117.828 203.5 118.5 204.172 118.5 205Z" fill="#D0D5DD"/>
  <path d="M141.5 205C141.5 205.828 140.828 206.5 140 206.5C139.172 206.5 138.5 205.828 138.5 205C138.5 204.172 139.172 203.5 140 203.5C140.828 203.5 141.5 204.172 141.5 205Z" fill="#D0D5DD"/>
  <path d="M164.5 205C164.5 205.828 163.828 206.5 163 206.5C162.172 206.5 161.5 205.828 161.5 205C161.5 204.172 162.172 203.5 163 203.5C163.828 203.5 164.5 204.172 164.5 205Z" fill="#D0D5DD"/>
  <path d="M187.5 205C187.5 205.828 186.828 206.5 186 206.5C185.172 206.5 184.5 205.828 184.5 205C184.5 204.172 185.172 203.5 186 203.5C186.828 203.5 187.5 204.172 187.5 205Z" fill="#D0D5DD"/>
  <path d="M210.5 205C210.5 205.828 209.828 206.5 209 206.5C208.172 206.5 207.5 205.828 207.5 205C207.5 204.172 208.172 203.5 209 203.5C209.828 203.5 210.5 204.172 210.5 205Z" fill="#D0D5DD"/>
  <path d="M233.5 205C233.5 205.828 232.828 206.5 232 206.5C231.172 206.5 230.5 205.828 230.5 205C230.5 204.172 231.172 203.5 232 203.5C232.828 203.5 233.5 204.172 233.5 205Z" fill="#D0D5DD"/>
  <path d="M256.5 205C256.5 205.828 255.828 206.5 255 206.5C254.172 206.5 253.5 205.828 253.5 205C253.5 204.172 254.172 203.5 255 203.5C255.828 203.5 256.5 204.172 256.5 205Z" fill="#D0D5DD"/>
  <path d="M279.5 205C279.5 205.828 278.828 206.5 278 206.5C277.172 206.5 276.5 205.828 276.5 205C276.5 204.172 277.172 203.5 278 203.5C278.828 203.5 279.5 204.172 279.5 205Z" fill="#D0D5DD"/>
  <path d="M302.5 205C302.5 205.828 301.828 206.5 301 206.5C300.172 206.5 299.5 205.828 299.5 205C299.5 204.172 300.172 203.5 301 203.5C301.828 203.5 302.5 204.172 302.5 205Z" fill="#D0D5DD"/>
  <path d="M325.5 205C325.5 205.828 324.828 206.5 324 206.5C323.172 206.5 322.5 205.828 322.5 205C322.5 204.172 323.172 203.5 324 203.5C324.828 203.5 325.5 204.172 325.5 205Z" fill="#D0D5DD"/>
  <path d="M348.5 205C348.5 205.828 347.828 206.5 347 206.5C346.172 206.5 345.5 205.828 345.5 205C345.5 204.172 346.172 203.5 347 203.5C347.828 203.5 348.5 204.172 348.5 205Z" fill="#D0D5DD"/>
  <path d="M371.5 205C371.5 205.828 370.828 206.5 370 206.5C369.172 206.5 368.5 205.828 368.5 205C368.5 204.172 369.172 203.5 370 203.5C370.828 203.5 371.5 204.172 371.5 205Z" fill="#D0D5DD"/>
  <path d="M394.5 205C394.5 205.828 393.828 206.5 393 206.5C392.172 206.5 391.5 205.828 391.5 205C391.5 204.172 392.172 203.5 393 203.5C393.828 203.5 394.5 204.172 394.5 205Z" fill="#D0D5DD"/>
  <path d="M417.5 205C417.5 205.828 416.828 206.5 416 206.5C415.172 206.5 414.5 205.828 414.5 205C414.5 204.172 415.172 203.5 416 203.5C416.828 203.5 417.5 204.172 417.5 205Z" fill="#D0D5DD"/>
  <path d="M440.5 205C440.5 205.828 439.828 206.5 439 206.5C438.172 206.5 437.5 205.828 437.5 205C437.5 204.172 438.172 203.5 439 203.5C439.828 203.5 440.5 204.172 440.5 205Z" fill="#D0D5DD"/>
  <path d="M463.5 205C463.5 205.828 462.828 206.5 462 206.5C461.172 206.5 460.5 205.828 460.5 205C460.5 204.172 461.172 203.5 462 203.5C462.828 203.5 463.5 204.172 463.5 205Z" fill="#D0D5DD"/>
  <path d="M3.5 228C3.5 228.828 2.82843 229.5 2 229.5C1.17157 229.5 0.5 228.828 0.5 228C0.5 227.172 1.17157 226.5 2 226.5C2.82843 226.5 3.5 227.172 3.5 228Z" fill="#D0D5DD"/>
  <path d="M26.5 228C26.5 228.828 25.8284 229.5 25 229.5C24.1716 229.5 23.5 228.828 23.5 228C23.5 227.172 24.1716 226.5 25 226.5C25.8284 226.5 26.5 227.172 26.5 228Z" fill="#D0D5DD"/>
  <path d="M49.5 228C49.5 228.828 48.8284 229.5 48 229.5C47.1716 229.5 46.5 228.828 46.5 228C46.5 227.172 47.1716 226.5 48 226.5C48.8284 226.5 49.5 227.172 49.5 228Z" fill="#D0D5DD"/>
  <path d="M72.5 228C72.5 228.828 71.8284 229.5 71 229.5C70.1716 229.5 69.5 228.828 69.5 228C69.5 227.172 70.1716 226.5 71 226.5C71.8284 226.5 72.5 227.172 72.5 228Z" fill="#D0D5DD"/>
  <path d="M95.5 228C95.5 228.828 94.8284 229.5 94 229.5C93.1716 229.5 92.5 228.828 92.5 228C92.5 227.172 93.1716 226.5 94 226.5C94.8284 226.5 95.5 227.172 95.5 228Z" fill="#D0D5DD"/>
  <path d="M118.5 228C118.5 228.828 117.828 229.5 117 229.5C116.172 229.5 115.5 228.828 115.5 228C115.5 227.172 116.172 226.5 117 226.5C117.828 226.5 118.5 227.172 118.5 228Z" fill="#D0D5DD"/>
  <path d="M141.5 228C141.5 228.828 140.828 229.5 140 229.5C139.172 229.5 138.5 228.828 138.5 228C138.5 227.172 139.172 226.5 140 226.5C140.828 226.5 141.5 227.172 141.5 228Z" fill="#D0D5DD"/>
  <path d="M164.5 228C164.5 228.828 163.828 229.5 163 229.5C162.172 229.5 161.5 228.828 161.5 228C161.5 227.172 162.172 226.5 163 226.5C163.828 226.5 164.5 227.172 164.5 228Z" fill="#D0D5DD"/>
  <path d="M187.5 228C187.5 228.828 186.828 229.5 186 229.5C185.172 229.5 184.5 228.828 184.5 228C184.5 227.172 185.172 226.5 186 226.5C186.828 226.5 187.5 227.172 187.5 228Z" fill="#D0D5DD"/>
  <path d="M210.5 228C210.5 228.828 209.828 229.5 209 229.5C208.172 229.5 207.5 228.828 207.5 228C207.5 227.172 208.172 226.5 209 226.5C209.828 226.5 210.5 227.172 210.5 228Z" fill="#D0D5DD"/>
  <path d="M233.5 228C233.5 228.828 232.828 229.5 232 229.5C231.172 229.5 230.5 228.828 230.5 228C230.5 227.172 231.172 226.5 232 226.5C232.828 226.5 233.5 227.172 233.5 228Z" fill="#D0D5DD"/>
  <path d="M256.5 228C256.5 228.828 255.828 229.5 255 229.5C254.172 229.5 253.5 228.828 253.5 228C253.5 227.172 254.172 226.5 255 226.5C255.828 226.5 256.5 227.172 256.5 228Z" fill="#D0D5DD"/>
  <path d="M279.5 228C279.5 228.828 278.828 229.5 278 229.5C277.172 229.5 276.5 228.828 276.5 228C276.5 227.172 277.172 226.5 278 226.5C278.828 226.5 279.5 227.172 279.5 228Z" fill="#D0D5DD"/>
  <path d="M302.5 228C302.5 228.828 301.828 229.5 301 229.5C300.172 229.5 299.5 228.828 299.5 228C299.5 227.172 300.172 226.5 301 226.5C301.828 226.5 302.5 227.172 302.5 228Z" fill="#D0D5DD"/>
  <path d="M325.5 228C325.5 228.828 324.828 229.5 324 229.5C323.172 229.5 322.5 228.828 322.5 228C322.5 227.172 323.172 226.5 324 226.5C324.828 226.5 325.5 227.172 325.5 228Z" fill="#D0D5DD"/>
  <path d="M348.5 228C348.5 228.828 347.828 229.5 347 229.5C346.172 229.5 345.5 228.828 345.5 228C345.5 227.172 346.172 226.5 347 226.5C347.828 226.5 348.5 227.172 348.5 228Z" fill="#D0D5DD"/>
  <path d="M371.5 228C371.5 228.828 370.828 229.5 370 229.5C369.172 229.5 368.5 228.828 368.5 228C368.5 227.172 369.172 226.5 370 226.5C370.828 226.5 371.5 227.172 371.5 228Z" fill="#D0D5DD"/>
  <path d="M394.5 228C394.5 228.828 393.828 229.5 393 229.5C392.172 229.5 391.5 228.828 391.5 228C391.5 227.172 392.172 226.5 393 226.5C393.828 226.5 394.5 227.172 394.5 228Z" fill="#D0D5DD"/>
  <path d="M417.5 228C417.5 228.828 416.828 229.5 416 229.5C415.172 229.5 414.5 228.828 414.5 228C414.5 227.172 415.172 226.5 416 226.5C416.828 226.5 417.5 227.172 417.5 228Z" fill="#D0D5DD"/>
  <path d="M440.5 228C440.5 228.828 439.828 229.5 439 229.5C438.172 229.5 437.5 228.828 437.5 228C437.5 227.172 438.172 226.5 439 226.5C439.828 226.5 440.5 227.172 440.5 228Z" fill="#D0D5DD"/>
  <path d="M463.5 228C463.5 228.828 462.828 229.5 462 229.5C461.172 229.5 460.5 228.828 460.5 228C460.5 227.172 461.172 226.5 462 226.5C462.828 226.5 463.5 227.172 463.5 228Z" fill="#D0D5DD"/>
  <path d="M3.5 251C3.5 251.828 2.82843 252.5 2 252.5C1.17157 252.5 0.5 251.828 0.5 251C0.5 250.172 1.17157 249.5 2 249.5C2.82843 249.5 3.5 250.172 3.5 251Z" fill="#D0D5DD"/>
  <path d="M26.5 251C26.5 251.828 25.8284 252.5 25 252.5C24.1716 252.5 23.5 251.828 23.5 251C23.5 250.172 24.1716 249.5 25 249.5C25.8284 249.5 26.5 250.172 26.5 251Z" fill="#D0D5DD"/>
  <path d="M49.5 251C49.5 251.828 48.8284 252.5 48 252.5C47.1716 252.5 46.5 251.828 46.5 251C46.5 250.172 47.1716 249.5 48 249.5C48.8284 249.5 49.5 250.172 49.5 251Z" fill="#D0D5DD"/>
  <path d="M72.5 251C72.5 251.828 71.8284 252.5 71 252.5C70.1716 252.5 69.5 251.828 69.5 251C69.5 250.172 70.1716 249.5 71 249.5C71.8284 249.5 72.5 250.172 72.5 251Z" fill="#D0D5DD"/>
  <path d="M95.5 251C95.5 251.828 94.8284 252.5 94 252.5C93.1716 252.5 92.5 251.828 92.5 251C92.5 250.172 93.1716 249.5 94 249.5C94.8284 249.5 95.5 250.172 95.5 251Z" fill="#D0D5DD"/>
  <path d="M118.5 251C118.5 251.828 117.828 252.5 117 252.5C116.172 252.5 115.5 251.828 115.5 251C115.5 250.172 116.172 249.5 117 249.5C117.828 249.5 118.5 250.172 118.5 251Z" fill="#D0D5DD"/>
  <path d="M141.5 251C141.5 251.828 140.828 252.5 140 252.5C139.172 252.5 138.5 251.828 138.5 251C138.5 250.172 139.172 249.5 140 249.5C140.828 249.5 141.5 250.172 141.5 251Z" fill="#D0D5DD"/>
  <path d="M164.5 251C164.5 251.828 163.828 252.5 163 252.5C162.172 252.5 161.5 251.828 161.5 251C161.5 250.172 162.172 249.5 163 249.5C163.828 249.5 164.5 250.172 164.5 251Z" fill="#D0D5DD"/>
  <path d="M187.5 251C187.5 251.828 186.828 252.5 186 252.5C185.172 252.5 184.5 251.828 184.5 251C184.5 250.172 185.172 249.5 186 249.5C186.828 249.5 187.5 250.172 187.5 251Z" fill="#D0D5DD"/>
  <path d="M210.5 251C210.5 251.828 209.828 252.5 209 252.5C208.172 252.5 207.5 251.828 207.5 251C207.5 250.172 208.172 249.5 209 249.5C209.828 249.5 210.5 250.172 210.5 251Z" fill="#D0D5DD"/>
  <path d="M233.5 251C233.5 251.828 232.828 252.5 232 252.5C231.172 252.5 230.5 251.828 230.5 251C230.5 250.172 231.172 249.5 232 249.5C232.828 249.5 233.5 250.172 233.5 251Z" fill="#D0D5DD"/>
  <path d="M256.5 251C256.5 251.828 255.828 252.5 255 252.5C254.172 252.5 253.5 251.828 253.5 251C253.5 250.172 254.172 249.5 255 249.5C255.828 249.5 256.5 250.172 256.5 251Z" fill="#D0D5DD"/>
  <path d="M279.5 251C279.5 251.828 278.828 252.5 278 252.5C277.172 252.5 276.5 251.828 276.5 251C276.5 250.172 277.172 249.5 278 249.5C278.828 249.5 279.5 250.172 279.5 251Z" fill="#D0D5DD"/>
  <path d="M302.5 251C302.5 251.828 301.828 252.5 301 252.5C300.172 252.5 299.5 251.828 299.5 251C299.5 250.172 300.172 249.5 301 249.5C301.828 249.5 302.5 250.172 302.5 251Z" fill="#D0D5DD"/>
  <path d="M325.5 251C325.5 251.828 324.828 252.5 324 252.5C323.172 252.5 322.5 251.828 322.5 251C322.5 250.172 323.172 249.5 324 249.5C324.828 249.5 325.5 250.172 325.5 251Z" fill="#D0D5DD"/>
  <path d="M348.5 251C348.5 251.828 347.828 252.5 347 252.5C346.172 252.5 345.5 251.828 345.5 251C345.5 250.172 346.172 249.5 347 249.5C347.828 249.5 348.5 250.172 348.5 251Z" fill="#D0D5DD"/>
  <path d="M371.5 251C371.5 251.828 370.828 252.5 370 252.5C369.172 252.5 368.5 251.828 368.5 251C368.5 250.172 369.172 249.5 370 249.5C370.828 249.5 371.5 250.172 371.5 251Z" fill="#D0D5DD"/>
  <path d="M394.5 251C394.5 251.828 393.828 252.5 393 252.5C392.172 252.5 391.5 251.828 391.5 251C391.5 250.172 392.172 249.5 393 249.5C393.828 249.5 394.5 250.172 394.5 251Z" fill="#D0D5DD"/>
  <path d="M417.5 251C417.5 251.828 416.828 252.5 416 252.5C415.172 252.5 414.5 251.828 414.5 251C414.5 250.172 415.172 249.5 416 249.5C416.828 249.5 417.5 250.172 417.5 251Z" fill="#D0D5DD"/>
  <path d="M440.5 251C440.5 251.828 439.828 252.5 439 252.5C438.172 252.5 437.5 251.828 437.5 251C437.5 250.172 438.172 249.5 439 249.5C439.828 249.5 440.5 250.172 440.5 251Z" fill="#D0D5DD"/>
  <path d="M463.5 251C463.5 251.828 462.828 252.5 462 252.5C461.172 252.5 460.5 251.828 460.5 251C460.5 250.172 461.172 249.5 462 249.5C462.828 249.5 463.5 250.172 463.5 251Z" fill="#D0D5DD"/>
  <path d="M3.5 274C3.5 274.828 2.82843 275.5 2 275.5C1.17157 275.5 0.5 274.828 0.5 274C0.5 273.172 1.17157 272.5 2 272.5C2.82843 272.5 3.5 273.172 3.5 274Z" fill="#D0D5DD"/>
  <path d="M26.5 274C26.5 274.828 25.8284 275.5 25 275.5C24.1716 275.5 23.5 274.828 23.5 274C23.5 273.172 24.1716 272.5 25 272.5C25.8284 272.5 26.5 273.172 26.5 274Z" fill="#D0D5DD"/>
  <path d="M49.5 274C49.5 274.828 48.8284 275.5 48 275.5C47.1716 275.5 46.5 274.828 46.5 274C46.5 273.172 47.1716 272.5 48 272.5C48.8284 272.5 49.5 273.172 49.5 274Z" fill="#D0D5DD"/>
  <path d="M72.5 274C72.5 274.828 71.8284 275.5 71 275.5C70.1716 275.5 69.5 274.828 69.5 274C69.5 273.172 70.1716 272.5 71 272.5C71.8284 272.5 72.5 273.172 72.5 274Z" fill="#D0D5DD"/>
  <path d="M95.5 274C95.5 274.828 94.8284 275.5 94 275.5C93.1716 275.5 92.5 274.828 92.5 274C92.5 273.172 93.1716 272.5 94 272.5C94.8284 272.5 95.5 273.172 95.5 274Z" fill="#D0D5DD"/>
  <path d="M118.5 274C118.5 274.828 117.828 275.5 117 275.5C116.172 275.5 115.5 274.828 115.5 274C115.5 273.172 116.172 272.5 117 272.5C117.828 272.5 118.5 273.172 118.5 274Z" fill="#D0D5DD"/>
  <path d="M141.5 274C141.5 274.828 140.828 275.5 140 275.5C139.172 275.5 138.5 274.828 138.5 274C138.5 273.172 139.172 272.5 140 272.5C140.828 272.5 141.5 273.172 141.5 274Z" fill="#D0D5DD"/>
  <path d="M164.5 274C164.5 274.828 163.828 275.5 163 275.5C162.172 275.5 161.5 274.828 161.5 274C161.5 273.172 162.172 272.5 163 272.5C163.828 272.5 164.5 273.172 164.5 274Z" fill="#D0D5DD"/>
  <path d="M187.5 274C187.5 274.828 186.828 275.5 186 275.5C185.172 275.5 184.5 274.828 184.5 274C184.5 273.172 185.172 272.5 186 272.5C186.828 272.5 187.5 273.172 187.5 274Z" fill="#D0D5DD"/>
  <path d="M210.5 274C210.5 274.828 209.828 275.5 209 275.5C208.172 275.5 207.5 274.828 207.5 274C207.5 273.172 208.172 272.5 209 272.5C209.828 272.5 210.5 273.172 210.5 274Z" fill="#D0D5DD"/>
  <path d="M233.5 274C233.5 274.828 232.828 275.5 232 275.5C231.172 275.5 230.5 274.828 230.5 274C230.5 273.172 231.172 272.5 232 272.5C232.828 272.5 233.5 273.172 233.5 274Z" fill="#D0D5DD"/>
  <path d="M256.5 274C256.5 274.828 255.828 275.5 255 275.5C254.172 275.5 253.5 274.828 253.5 274C253.5 273.172 254.172 272.5 255 272.5C255.828 272.5 256.5 273.172 256.5 274Z" fill="#D0D5DD"/>
  <path d="M279.5 274C279.5 274.828 278.828 275.5 278 275.5C277.172 275.5 276.5 274.828 276.5 274C276.5 273.172 277.172 272.5 278 272.5C278.828 272.5 279.5 273.172 279.5 274Z" fill="#D0D5DD"/>
  <path d="M302.5 274C302.5 274.828 301.828 275.5 301 275.5C300.172 275.5 299.5 274.828 299.5 274C299.5 273.172 300.172 272.5 301 272.5C301.828 272.5 302.5 273.172 302.5 274Z" fill="#D0D5DD"/>
  <path d="M325.5 274C325.5 274.828 324.828 275.5 324 275.5C323.172 275.5 322.5 274.828 322.5 274C322.5 273.172 323.172 272.5 324 272.5C324.828 272.5 325.5 273.172 325.5 274Z" fill="#D0D5DD"/>
  <path d="M348.5 274C348.5 274.828 347.828 275.5 347 275.5C346.172 275.5 345.5 274.828 345.5 274C345.5 273.172 346.172 272.5 347 272.5C347.828 272.5 348.5 273.172 348.5 274Z" fill="#D0D5DD"/>
  <path d="M371.5 274C371.5 274.828 370.828 275.5 370 275.5C369.172 275.5 368.5 274.828 368.5 274C368.5 273.172 369.172 272.5 370 272.5C370.828 272.5 371.5 273.172 371.5 274Z" fill="#D0D5DD"/>
  <path d="M394.5 274C394.5 274.828 393.828 275.5 393 275.5C392.172 275.5 391.5 274.828 391.5 274C391.5 273.172 392.172 272.5 393 272.5C393.828 272.5 394.5 273.172 394.5 274Z" fill="#D0D5DD"/>
  <path d="M417.5 274C417.5 274.828 416.828 275.5 416 275.5C415.172 275.5 414.5 274.828 414.5 274C414.5 273.172 415.172 272.5 416 272.5C416.828 272.5 417.5 273.172 417.5 274Z" fill="#D0D5DD"/>
  <path d="M440.5 274C440.5 274.828 439.828 275.5 439 275.5C438.172 275.5 437.5 274.828 437.5 274C437.5 273.172 438.172 272.5 439 272.5C439.828 272.5 440.5 273.172 440.5 274Z" fill="#D0D5DD"/>
  <path d="M463.5 274C463.5 274.828 462.828 275.5 462 275.5C461.172 275.5 460.5 274.828 460.5 274C460.5 273.172 461.172 272.5 462 272.5C462.828 272.5 463.5 273.172 463.5 274Z" fill="#D0D5DD"/>
  <path d="M3.5 297C3.5 297.828 2.82843 298.5 2 298.5C1.17157 298.5 0.5 297.828 0.5 297C0.5 296.172 1.17157 295.5 2 295.5C2.82843 295.5 3.5 296.172 3.5 297Z" fill="#D0D5DD"/>
  <path d="M26.5 297C26.5 297.828 25.8284 298.5 25 298.5C24.1716 298.5 23.5 297.828 23.5 297C23.5 296.172 24.1716 295.5 25 295.5C25.8284 295.5 26.5 296.172 26.5 297Z" fill="#D0D5DD"/>
  <path d="M49.5 297C49.5 297.828 48.8284 298.5 48 298.5C47.1716 298.5 46.5 297.828 46.5 297C46.5 296.172 47.1716 295.5 48 295.5C48.8284 295.5 49.5 296.172 49.5 297Z" fill="#D0D5DD"/>
  <path d="M72.5 297C72.5 297.828 71.8284 298.5 71 298.5C70.1716 298.5 69.5 297.828 69.5 297C69.5 296.172 70.1716 295.5 71 295.5C71.8284 295.5 72.5 296.172 72.5 297Z" fill="#D0D5DD"/>
  <path d="M95.5 297C95.5 297.828 94.8284 298.5 94 298.5C93.1716 298.5 92.5 297.828 92.5 297C92.5 296.172 93.1716 295.5 94 295.5C94.8284 295.5 95.5 296.172 95.5 297Z" fill="#D0D5DD"/>
  <path d="M118.5 297C118.5 297.828 117.828 298.5 117 298.5C116.172 298.5 115.5 297.828 115.5 297C115.5 296.172 116.172 295.5 117 295.5C117.828 295.5 118.5 296.172 118.5 297Z" fill="#D0D5DD"/>
  <path d="M141.5 297C141.5 297.828 140.828 298.5 140 298.5C139.172 298.5 138.5 297.828 138.5 297C138.5 296.172 139.172 295.5 140 295.5C140.828 295.5 141.5 296.172 141.5 297Z" fill="#D0D5DD"/>
  <path d="M164.5 297C164.5 297.828 163.828 298.5 163 298.5C162.172 298.5 161.5 297.828 161.5 297C161.5 296.172 162.172 295.5 163 295.5C163.828 295.5 164.5 296.172 164.5 297Z" fill="#D0D5DD"/>
  <path d="M187.5 297C187.5 297.828 186.828 298.5 186 298.5C185.172 298.5 184.5 297.828 184.5 297C184.5 296.172 185.172 295.5 186 295.5C186.828 295.5 187.5 296.172 187.5 297Z" fill="#D0D5DD"/>
  <path d="M210.5 297C210.5 297.828 209.828 298.5 209 298.5C208.172 298.5 207.5 297.828 207.5 297C207.5 296.172 208.172 295.5 209 295.5C209.828 295.5 210.5 296.172 210.5 297Z" fill="#D0D5DD"/>
  <path d="M233.5 297C233.5 297.828 232.828 298.5 232 298.5C231.172 298.5 230.5 297.828 230.5 297C230.5 296.172 231.172 295.5 232 295.5C232.828 295.5 233.5 296.172 233.5 297Z" fill="#D0D5DD"/>
  <path d="M256.5 297C256.5 297.828 255.828 298.5 255 298.5C254.172 298.5 253.5 297.828 253.5 297C253.5 296.172 254.172 295.5 255 295.5C255.828 295.5 256.5 296.172 256.5 297Z" fill="#D0D5DD"/>
  <path d="M279.5 297C279.5 297.828 278.828 298.5 278 298.5C277.172 298.5 276.5 297.828 276.5 297C276.5 296.172 277.172 295.5 278 295.5C278.828 295.5 279.5 296.172 279.5 297Z" fill="#D0D5DD"/>
  <path d="M302.5 297C302.5 297.828 301.828 298.5 301 298.5C300.172 298.5 299.5 297.828 299.5 297C299.5 296.172 300.172 295.5 301 295.5C301.828 295.5 302.5 296.172 302.5 297Z" fill="#D0D5DD"/>
  <path d="M325.5 297C325.5 297.828 324.828 298.5 324 298.5C323.172 298.5 322.5 297.828 322.5 297C322.5 296.172 323.172 295.5 324 295.5C324.828 295.5 325.5 296.172 325.5 297Z" fill="#D0D5DD"/>
  <path d="M348.5 297C348.5 297.828 347.828 298.5 347 298.5C346.172 298.5 345.5 297.828 345.5 297C345.5 296.172 346.172 295.5 347 295.5C347.828 295.5 348.5 296.172 348.5 297Z" fill="#D0D5DD"/>
  <path d="M371.5 297C371.5 297.828 370.828 298.5 370 298.5C369.172 298.5 368.5 297.828 368.5 297C368.5 296.172 369.172 295.5 370 295.5C370.828 295.5 371.5 296.172 371.5 297Z" fill="#D0D5DD"/>
  <path d="M394.5 297C394.5 297.828 393.828 298.5 393 298.5C392.172 298.5 391.5 297.828 391.5 297C391.5 296.172 392.172 295.5 393 295.5C393.828 295.5 394.5 296.172 394.5 297Z" fill="#D0D5DD"/>
  <path d="M417.5 297C417.5 297.828 416.828 298.5 416 298.5C415.172 298.5 414.5 297.828 414.5 297C414.5 296.172 415.172 295.5 416 295.5C416.828 295.5 417.5 296.172 417.5 297Z" fill="#D0D5DD"/>
  <path d="M440.5 297C440.5 297.828 439.828 298.5 439 298.5C438.172 298.5 437.5 297.828 437.5 297C437.5 296.172 438.172 295.5 439 295.5C439.828 295.5 440.5 296.172 440.5 297Z" fill="#D0D5DD"/>
  <path d="M463.5 297C463.5 297.828 462.828 298.5 462 298.5C461.172 298.5 460.5 297.828 460.5 297C460.5 296.172 461.172 295.5 462 295.5C462.828 295.5 463.5 296.172 463.5 297Z" fill="#D0D5DD"/>
  <path d="M3.5 320C3.5 320.828 2.82843 321.5 2 321.5C1.17157 321.5 0.5 320.828 0.5 320C0.5 319.172 1.17157 318.5 2 318.5C2.82843 318.5 3.5 319.172 3.5 320Z" fill="#D0D5DD"/>
  <path d="M26.5 320C26.5 320.828 25.8284 321.5 25 321.5C24.1716 321.5 23.5 320.828 23.5 320C23.5 319.172 24.1716 318.5 25 318.5C25.8284 318.5 26.5 319.172 26.5 320Z" fill="#D0D5DD"/>
  <path d="M49.5 320C49.5 320.828 48.8284 321.5 48 321.5C47.1716 321.5 46.5 320.828 46.5 320C46.5 319.172 47.1716 318.5 48 318.5C48.8284 318.5 49.5 319.172 49.5 320Z" fill="#D0D5DD"/>
  <path d="M72.5 320C72.5 320.828 71.8284 321.5 71 321.5C70.1716 321.5 69.5 320.828 69.5 320C69.5 319.172 70.1716 318.5 71 318.5C71.8284 318.5 72.5 319.172 72.5 320Z" fill="#D0D5DD"/>
  <path d="M95.5 320C95.5 320.828 94.8284 321.5 94 321.5C93.1716 321.5 92.5 320.828 92.5 320C92.5 319.172 93.1716 318.5 94 318.5C94.8284 318.5 95.5 319.172 95.5 320Z" fill="#D0D5DD"/>
  <path d="M118.5 320C118.5 320.828 117.828 321.5 117 321.5C116.172 321.5 115.5 320.828 115.5 320C115.5 319.172 116.172 318.5 117 318.5C117.828 318.5 118.5 319.172 118.5 320Z" fill="#D0D5DD"/>
  <path d="M141.5 320C141.5 320.828 140.828 321.5 140 321.5C139.172 321.5 138.5 320.828 138.5 320C138.5 319.172 139.172 318.5 140 318.5C140.828 318.5 141.5 319.172 141.5 320Z" fill="#D0D5DD"/>
  <path d="M164.5 320C164.5 320.828 163.828 321.5 163 321.5C162.172 321.5 161.5 320.828 161.5 320C161.5 319.172 162.172 318.5 163 318.5C163.828 318.5 164.5 319.172 164.5 320Z" fill="#D0D5DD"/>
  <path d="M187.5 320C187.5 320.828 186.828 321.5 186 321.5C185.172 321.5 184.5 320.828 184.5 320C184.5 319.172 185.172 318.5 186 318.5C186.828 318.5 187.5 319.172 187.5 320Z" fill="#D0D5DD"/>
  <path d="M210.5 320C210.5 320.828 209.828 321.5 209 321.5C208.172 321.5 207.5 320.828 207.5 320C207.5 319.172 208.172 318.5 209 318.5C209.828 318.5 210.5 319.172 210.5 320Z" fill="#D0D5DD"/>
  <path d="M233.5 320C233.5 320.828 232.828 321.5 232 321.5C231.172 321.5 230.5 320.828 230.5 320C230.5 319.172 231.172 318.5 232 318.5C232.828 318.5 233.5 319.172 233.5 320Z" fill="#D0D5DD"/>
  <path d="M256.5 320C256.5 320.828 255.828 321.5 255 321.5C254.172 321.5 253.5 320.828 253.5 320C253.5 319.172 254.172 318.5 255 318.5C255.828 318.5 256.5 319.172 256.5 320Z" fill="#D0D5DD"/>
  <path d="M279.5 320C279.5 320.828 278.828 321.5 278 321.5C277.172 321.5 276.5 320.828 276.5 320C276.5 319.172 277.172 318.5 278 318.5C278.828 318.5 279.5 319.172 279.5 320Z" fill="#D0D5DD"/>
  <path d="M302.5 320C302.5 320.828 301.828 321.5 301 321.5C300.172 321.5 299.5 320.828 299.5 320C299.5 319.172 300.172 318.5 301 318.5C301.828 318.5 302.5 319.172 302.5 320Z" fill="#D0D5DD"/>
  <path d="M325.5 320C325.5 320.828 324.828 321.5 324 321.5C323.172 321.5 322.5 320.828 322.5 320C322.5 319.172 323.172 318.5 324 318.5C324.828 318.5 325.5 319.172 325.5 320Z" fill="#D0D5DD"/>
  <path d="M348.5 320C348.5 320.828 347.828 321.5 347 321.5C346.172 321.5 345.5 320.828 345.5 320C345.5 319.172 346.172 318.5 347 318.5C347.828 318.5 348.5 319.172 348.5 320Z" fill="#D0D5DD"/>
  <path d="M371.5 320C371.5 320.828 370.828 321.5 370 321.5C369.172 321.5 368.5 320.828 368.5 320C368.5 319.172 369.172 318.5 370 318.5C370.828 318.5 371.5 319.172 371.5 320Z" fill="#D0D5DD"/>
  <path d="M394.5 320C394.5 320.828 393.828 321.5 393 321.5C392.172 321.5 391.5 320.828 391.5 320C391.5 319.172 392.172 318.5 393 318.5C393.828 318.5 394.5 319.172 394.5 320Z" fill="#D0D5DD"/>
  <path d="M417.5 320C417.5 320.828 416.828 321.5 416 321.5C415.172 321.5 414.5 320.828 414.5 320C414.5 319.172 415.172 318.5 416 318.5C416.828 318.5 417.5 319.172 417.5 320Z" fill="#D0D5DD"/>
  <path d="M440.5 320C440.5 320.828 439.828 321.5 439 321.5C438.172 321.5 437.5 320.828 437.5 320C437.5 319.172 438.172 318.5 439 318.5C439.828 318.5 440.5 319.172 440.5 320Z" fill="#D0D5DD"/>
  <path d="M463.5 320C463.5 320.828 462.828 321.5 462 321.5C461.172 321.5 460.5 320.828 460.5 320C460.5 319.172 461.172 318.5 462 318.5C462.828 318.5 463.5 319.172 463.5 320Z" fill="#D0D5DD"/>
  <path d="M3.5 343C3.5 343.828 2.82843 344.5 2 344.5C1.17157 344.5 0.5 343.828 0.5 343C0.5 342.172 1.17157 341.5 2 341.5C2.82843 341.5 3.5 342.172 3.5 343Z" fill="#D0D5DD"/>
  <path d="M26.5 343C26.5 343.828 25.8284 344.5 25 344.5C24.1716 344.5 23.5 343.828 23.5 343C23.5 342.172 24.1716 341.5 25 341.5C25.8284 341.5 26.5 342.172 26.5 343Z" fill="#D0D5DD"/>
  <path d="M49.5 343C49.5 343.828 48.8284 344.5 48 344.5C47.1716 344.5 46.5 343.828 46.5 343C46.5 342.172 47.1716 341.5 48 341.5C48.8284 341.5 49.5 342.172 49.5 343Z" fill="#D0D5DD"/>
  <path d="M72.5 343C72.5 343.828 71.8284 344.5 71 344.5C70.1716 344.5 69.5 343.828 69.5 343C69.5 342.172 70.1716 341.5 71 341.5C71.8284 341.5 72.5 342.172 72.5 343Z" fill="#D0D5DD"/>
  <path d="M95.5 343C95.5 343.828 94.8284 344.5 94 344.5C93.1716 344.5 92.5 343.828 92.5 343C92.5 342.172 93.1716 341.5 94 341.5C94.8284 341.5 95.5 342.172 95.5 343Z" fill="#D0D5DD"/>
  <path d="M118.5 343C118.5 343.828 117.828 344.5 117 344.5C116.172 344.5 115.5 343.828 115.5 343C115.5 342.172 116.172 341.5 117 341.5C117.828 341.5 118.5 342.172 118.5 343Z" fill="#D0D5DD"/>
  <path d="M141.5 343C141.5 343.828 140.828 344.5 140 344.5C139.172 344.5 138.5 343.828 138.5 343C138.5 342.172 139.172 341.5 140 341.5C140.828 341.5 141.5 342.172 141.5 343Z" fill="#D0D5DD"/>
  <path d="M164.5 343C164.5 343.828 163.828 344.5 163 344.5C162.172 344.5 161.5 343.828 161.5 343C161.5 342.172 162.172 341.5 163 341.5C163.828 341.5 164.5 342.172 164.5 343Z" fill="#D0D5DD"/>
  <path d="M187.5 343C187.5 343.828 186.828 344.5 186 344.5C185.172 344.5 184.5 343.828 184.5 343C184.5 342.172 185.172 341.5 186 341.5C186.828 341.5 187.5 342.172 187.5 343Z" fill="#D0D5DD"/>
  <path d="M210.5 343C210.5 343.828 209.828 344.5 209 344.5C208.172 344.5 207.5 343.828 207.5 343C207.5 342.172 208.172 341.5 209 341.5C209.828 341.5 210.5 342.172 210.5 343Z" fill="#D0D5DD"/>
  <path d="M233.5 343C233.5 343.828 232.828 344.5 232 344.5C231.172 344.5 230.5 343.828 230.5 343C230.5 342.172 231.172 341.5 232 341.5C232.828 341.5 233.5 342.172 233.5 343Z" fill="#D0D5DD"/>
  <path d="M256.5 343C256.5 343.828 255.828 344.5 255 344.5C254.172 344.5 253.5 343.828 253.5 343C253.5 342.172 254.172 341.5 255 341.5C255.828 341.5 256.5 342.172 256.5 343Z" fill="#D0D5DD"/>
  <path d="M279.5 343C279.5 343.828 278.828 344.5 278 344.5C277.172 344.5 276.5 343.828 276.5 343C276.5 342.172 277.172 341.5 278 341.5C278.828 341.5 279.5 342.172 279.5 343Z" fill="#D0D5DD"/>
  <path d="M302.5 343C302.5 343.828 301.828 344.5 301 344.5C300.172 344.5 299.5 343.828 299.5 343C299.5 342.172 300.172 341.5 301 341.5C301.828 341.5 302.5 342.172 302.5 343Z" fill="#D0D5DD"/>
  <path d="M325.5 343C325.5 343.828 324.828 344.5 324 344.5C323.172 344.5 322.5 343.828 322.5 343C322.5 342.172 323.172 341.5 324 341.5C324.828 341.5 325.5 342.172 325.5 343Z" fill="#D0D5DD"/>
  <path d="M348.5 343C348.5 343.828 347.828 344.5 347 344.5C346.172 344.5 345.5 343.828 345.5 343C345.5 342.172 346.172 341.5 347 341.5C347.828 341.5 348.5 342.172 348.5 343Z" fill="#D0D5DD"/>
  <path d="M371.5 343C371.5 343.828 370.828 344.5 370 344.5C369.172 344.5 368.5 343.828 368.5 343C368.5 342.172 369.172 341.5 370 341.5C370.828 341.5 371.5 342.172 371.5 343Z" fill="#D0D5DD"/>
  <path d="M394.5 343C394.5 343.828 393.828 344.5 393 344.5C392.172 344.5 391.5 343.828 391.5 343C391.5 342.172 392.172 341.5 393 341.5C393.828 341.5 394.5 342.172 394.5 343Z" fill="#D0D5DD"/>
  <path d="M417.5 343C417.5 343.828 416.828 344.5 416 344.5C415.172 344.5 414.5 343.828 414.5 343C414.5 342.172 415.172 341.5 416 341.5C416.828 341.5 417.5 342.172 417.5 343Z" fill="#D0D5DD"/>
  <path d="M440.5 343C440.5 343.828 439.828 344.5 439 344.5C438.172 344.5 437.5 343.828 437.5 343C437.5 342.172 438.172 341.5 439 341.5C439.828 341.5 440.5 342.172 440.5 343Z" fill="#D0D5DD"/>
  <path d="M463.5 343C463.5 343.828 462.828 344.5 462 344.5C461.172 344.5 460.5 343.828 460.5 343C460.5 342.172 461.172 341.5 462 341.5C462.828 341.5 463.5 342.172 463.5 343Z" fill="#D0D5DD"/>
  <path d="M3.5 366C3.5 366.828 2.82843 367.5 2 367.5C1.17157 367.5 0.5 366.828 0.5 366C0.5 365.172 1.17157 364.5 2 364.5C2.82843 364.5 3.5 365.172 3.5 366Z" fill="#D0D5DD"/>
  <path d="M26.5 366C26.5 366.828 25.8284 367.5 25 367.5C24.1716 367.5 23.5 366.828 23.5 366C23.5 365.172 24.1716 364.5 25 364.5C25.8284 364.5 26.5 365.172 26.5 366Z" fill="#D0D5DD"/>
  <path d="M49.5 366C49.5 366.828 48.8284 367.5 48 367.5C47.1716 367.5 46.5 366.828 46.5 366C46.5 365.172 47.1716 364.5 48 364.5C48.8284 364.5 49.5 365.172 49.5 366Z" fill="#D0D5DD"/>
  <path d="M72.5 366C72.5 366.828 71.8284 367.5 71 367.5C70.1716 367.5 69.5 366.828 69.5 366C69.5 365.172 70.1716 364.5 71 364.5C71.8284 364.5 72.5 365.172 72.5 366Z" fill="#D0D5DD"/>
  <path d="M95.5 366C95.5 366.828 94.8284 367.5 94 367.5C93.1716 367.5 92.5 366.828 92.5 366C92.5 365.172 93.1716 364.5 94 364.5C94.8284 364.5 95.5 365.172 95.5 366Z" fill="#D0D5DD"/>
  <path d="M118.5 366C118.5 366.828 117.828 367.5 117 367.5C116.172 367.5 115.5 366.828 115.5 366C115.5 365.172 116.172 364.5 117 364.5C117.828 364.5 118.5 365.172 118.5 366Z" fill="#D0D5DD"/>
  <path d="M141.5 366C141.5 366.828 140.828 367.5 140 367.5C139.172 367.5 138.5 366.828 138.5 366C138.5 365.172 139.172 364.5 140 364.5C140.828 364.5 141.5 365.172 141.5 366Z" fill="#D0D5DD"/>
  <path d="M164.5 366C164.5 366.828 163.828 367.5 163 367.5C162.172 367.5 161.5 366.828 161.5 366C161.5 365.172 162.172 364.5 163 364.5C163.828 364.5 164.5 365.172 164.5 366Z" fill="#D0D5DD"/>
  <path d="M187.5 366C187.5 366.828 186.828 367.5 186 367.5C185.172 367.5 184.5 366.828 184.5 366C184.5 365.172 185.172 364.5 186 364.5C186.828 364.5 187.5 365.172 187.5 366Z" fill="#D0D5DD"/>
  <path d="M210.5 366C210.5 366.828 209.828 367.5 209 367.5C208.172 367.5 207.5 366.828 207.5 366C207.5 365.172 208.172 364.5 209 364.5C209.828 364.5 210.5 365.172 210.5 366Z" fill="#D0D5DD"/>
  <path d="M233.5 366C233.5 366.828 232.828 367.5 232 367.5C231.172 367.5 230.5 366.828 230.5 366C230.5 365.172 231.172 364.5 232 364.5C232.828 364.5 233.5 365.172 233.5 366Z" fill="#D0D5DD"/>
  <path d="M256.5 366C256.5 366.828 255.828 367.5 255 367.5C254.172 367.5 253.5 366.828 253.5 366C253.5 365.172 254.172 364.5 255 364.5C255.828 364.5 256.5 365.172 256.5 366Z" fill="#D0D5DD"/>
  <path d="M279.5 366C279.5 366.828 278.828 367.5 278 367.5C277.172 367.5 276.5 366.828 276.5 366C276.5 365.172 277.172 364.5 278 364.5C278.828 364.5 279.5 365.172 279.5 366Z" fill="#D0D5DD"/>
  <path d="M302.5 366C302.5 366.828 301.828 367.5 301 367.5C300.172 367.5 299.5 366.828 299.5 366C299.5 365.172 300.172 364.5 301 364.5C301.828 364.5 302.5 365.172 302.5 366Z" fill="#D0D5DD"/>
  <path d="M325.5 366C325.5 366.828 324.828 367.5 324 367.5C323.172 367.5 322.5 366.828 322.5 366C322.5 365.172 323.172 364.5 324 364.5C324.828 364.5 325.5 365.172 325.5 366Z" fill="#D0D5DD"/>
  <path d="M348.5 366C348.5 366.828 347.828 367.5 347 367.5C346.172 367.5 345.5 366.828 345.5 366C345.5 365.172 346.172 364.5 347 364.5C347.828 364.5 348.5 365.172 348.5 366Z" fill="#D0D5DD"/>
  <path d="M371.5 366C371.5 366.828 370.828 367.5 370 367.5C369.172 367.5 368.5 366.828 368.5 366C368.5 365.172 369.172 364.5 370 364.5C370.828 364.5 371.5 365.172 371.5 366Z" fill="#D0D5DD"/>
  <path d="M394.5 366C394.5 366.828 393.828 367.5 393 367.5C392.172 367.5 391.5 366.828 391.5 366C391.5 365.172 392.172 364.5 393 364.5C393.828 364.5 394.5 365.172 394.5 366Z" fill="#D0D5DD"/>
  <path d="M417.5 366C417.5 366.828 416.828 367.5 416 367.5C415.172 367.5 414.5 366.828 414.5 366C414.5 365.172 415.172 364.5 416 364.5C416.828 364.5 417.5 365.172 417.5 366Z" fill="#D0D5DD"/>
  <path d="M440.5 366C440.5 366.828 439.828 367.5 439 367.5C438.172 367.5 437.5 366.828 437.5 366C437.5 365.172 438.172 364.5 439 364.5C439.828 364.5 440.5 365.172 440.5 366Z" fill="#D0D5DD"/>
  <path d="M463.5 366C463.5 366.828 462.828 367.5 462 367.5C461.172 367.5 460.5 366.828 460.5 366C460.5 365.172 461.172 364.5 462 364.5C462.828 364.5 463.5 365.172 463.5 366Z" fill="#D0D5DD"/>
</svg>