<svg width="208" height="208" viewBox="0 0 208 208" fill="none" xmlns="http://www.w3.org/2000/svg">
<mask id="mask0_683_25987" style="mask-type:alpha" maskUnits="userSpaceOnUse" x="-128" y="-128" width="336" height="336">
<rect width="336" height="336" transform="translate(-128 -128)" fill="url(#paint0_radial_683_25987)"/>
</mask>
<g mask="url(#mask0_683_25987)">
<g clipPath="url(#clip0_683_25987)">
<g clipPath="url(#clip1_683_25987)">
<line x1="16.5" y1="-128" x2="16.5" y2="208" stroke="#EAECF0"/>
<line x1="40.5" y1="-128" x2="40.5" y2="208" stroke="#EAECF0"/>
<line x1="64.5" y1="-128" x2="64.5" y2="208" stroke="#EAECF0"/>
<line x1="88.5" y1="-128" x2="88.5" y2="208" stroke="#EAECF0"/>
<line x1="112.5" y1="-128" x2="112.5" y2="208" stroke="#EAECF0"/>
<line x1="136.5" y1="-128" x2="136.5" y2="208" stroke="#EAECF0"/>
<line x1="160.5" y1="-128" x2="160.5" y2="208" stroke="#EAECF0"/>
<line x1="184.5" y1="-128" x2="184.5" y2="208" stroke="#EAECF0"/>
</g>
<rect x="-127.5" y="-127.5" width="335" height="335" stroke="#EAECF0"/>
<g clipPath="url(#clip2_683_25987)">
<line x1="-128" y1="15.5" x2="208" y2="15.5" stroke="#EAECF0"/>
<line x1="-128" y1="39.5" x2="208" y2="39.5" stroke="#EAECF0"/>
<line x1="-128" y1="63.5" x2="208" y2="63.5" stroke="#EAECF0"/>
<line x1="-128" y1="87.5" x2="208" y2="87.5" stroke="#EAECF0"/>
<line x1="-128" y1="111.5" x2="208" y2="111.5" stroke="#EAECF0"/>
<line x1="-128" y1="135.5" x2="208" y2="135.5" stroke="#EAECF0"/>
<line x1="-128" y1="159.5" x2="208" y2="159.5" stroke="#EAECF0"/>
<line x1="-128" y1="183.5" x2="208" y2="183.5" stroke="#EAECF0"/>
<line x1="-128" y1="207.5" x2="208" y2="207.5" stroke="#EAECF0"/>
</g>
<rect x="-127.5" y="-127.5" width="335" height="335" stroke="#EAECF0"/>
</g>
</g>
<defs>
<radialGradient id="paint0_radial_683_25987" cx="0" cy="0" r="1" gradientUnits="userSpaceOnUse" gradientTransform="translate(168 168) rotate(90) scale(168 168)">
<stop/>
<stop offset="1" stop-opacity="0"/>
</radialGradient>
<clipPath id="clip0_683_25987">
<rect width="336" height="336" fill="white" transform="translate(-128 -128)"/>
</clipPath>
<clipPath id="clip1_683_25987">
<rect x="-128" y="-128" width="336" height="336" fill="white"/>
</clipPath>
<clipPath id="clip2_683_25987">
<rect x="-128" y="-128" width="336" height="336" fill="white"/>
</clipPath>
</defs>
</svg>
