<svg width="16" height="6" viewBox="0 0 16 6" fill="none" xmlns="http://www.w3.org/2000/svg">
<path d="M0.75 0C0.335786 0 0 0.335786 0 0.75V4.51C0 4.92421 0.335786 5.26 0.75 5.26C1.16421 5.26 1.5 4.92421 1.5 4.51V0.75C1.5 0.335786 1.16421 0 0.75 0Z" fill="currentColor"/>
<path d="M7.75 0C7.33579 0 7 0.335786 7 0.75V4.51C7 4.92421 7.33579 5.26 7.75 5.26C8.16421 5.26 8.5 4.92421 8.5 4.51V0.75C8.5 0.335786 8.16421 0 7.75 0Z" fill="currentColor"/>
<path d="M14.75 0C14.3358 0 14 0.335786 14 0.75V4.51C14 4.92421 14.3358 5.26 14.75 5.26C15.1642 5.26 15.5 4.92421 15.5 4.51V0.75C15.5 0.335786 15.1642 0 14.75 0Z" fill="currentColor"/>
</svg>
