<svg width="12" height="21" viewBox="0 0 12 21" fill="none" xmlns="http://www.w3.org/2000/svg">
<path d="M5.97917 20.9168C4.38194 20.9168 3.02778 20.3613 1.91667 19.2502C0.805556 18.1391 0.25 16.7849 0.25 15.1877V4.25016C0.25 3.10433 0.657986 2.12343 1.47396 1.30745C2.28993 0.491482 3.27083 0.0834961 4.41667 0.0834961C5.5625 0.0834961 6.5434 0.491482 7.35938 1.30745C8.17535 2.12343 8.58333 3.10433 8.58333 4.25016V14.146C8.58333 14.8752 8.3316 15.4915 7.82813 15.995C7.32465 16.4984 6.70833 16.7502 5.97917 16.7502C5.25 16.7502 4.63368 16.4984 4.13021 15.995C3.62674 15.4915 3.375 14.8752 3.375 14.146V4.25016H4.9375V14.146C4.9375 14.4411 5.03733 14.6885 5.23698 14.8882C5.43663 15.0878 5.68403 15.1877 5.97917 15.1877C6.27431 15.1877 6.5217 15.0878 6.72135 14.8882C6.92101 14.6885 7.02083 14.4411 7.02083 14.146V4.25016C7.02083 3.521 6.7691 2.90468 6.26563 2.4012C5.76215 1.89773 5.14583 1.646 4.41667 1.646C3.6875 1.646 3.07118 1.89773 2.56771 2.4012C2.06424 2.90468 1.8125 3.521 1.8125 4.25016V15.1877C1.8125 16.3335 2.22049 17.3144 3.03646 18.1304C3.85243 18.9463 4.83333 19.3543 5.97917 19.3543C7.125 19.3543 8.1059 18.9463 8.92187 18.1304C9.73785 17.3144 10.1458 16.3335 10.1458 15.1877V4.25016H11.7083V15.1877C11.7083 16.7849 11.1528 18.1391 10.0417 19.2502C8.93056 20.3613 7.57639 20.9168 5.97917 20.9168Z" fill="#B9B9B9"/>
</svg>
