<svg width="22" height="22" viewBox="0 0 17 17" fill="none" xmlns="http://www.w3.org/2000/svg">
<path fill-rule="evenodd" clip-rule="evenodd" d="M14.9505 10.965C14.6358 10.6958 14.4546 10.3024 14.4547 9.88832V6.47416C14.4547 3.67624 11.9188 1.41666 8.78799 1.41666C5.65715 1.41666 3.12132 3.67624 3.12132 6.47416V9.88832C3.12135 10.3024 2.94018 10.6958 2.62549 10.965C1.5559 11.9212 2.31382 13.5504 3.82965 13.5504H6.52132C6.86475 14.5069 7.77167 15.1449 8.78799 15.1449C9.8043 15.1449 10.7112 14.5069 11.0547 13.5504H13.7463C15.2622 13.5504 16.0201 11.9212 14.9505 10.965ZM8.78799 14.0817C8.36638 14.0801 7.96909 13.884 7.71132 13.5504H9.83632C9.58674 13.8788 9.20037 14.0746 8.78799 14.0817ZM13.7534 12.4879C14.0109 12.5112 14.2561 12.3731 14.3697 12.1408C14.4248 12.0009 14.3746 11.8414 14.2492 11.7583C13.7155 11.2823 13.407 10.6035 13.3992 9.88832V6.47416C13.3992 4.27124 11.3309 2.47916 8.79507 2.47916C6.25924 2.47916 4.1909 4.27124 4.1909 6.47416V9.88832C4.18313 10.6035 3.87459 11.2823 3.3409 11.7583C3.21292 11.8393 3.15962 11.9992 3.2134 12.1408C3.32695 12.3731 3.57213 12.5112 3.82965 12.4879H13.7534Z" fill="#ABABAB"/>
</svg>
