<svg width="16" height="16" viewBox="0 0 16 16" fill="none" xmlns="http://www.w3.org/2000/svg">
<g id="fi-rr-checkbox" clip-path="url(#clip0_1095_14340)">
<path id="Vector" d="M12.6667 0H3.33333C2.4496 0.00105857 1.60237 0.352588 0.97748 0.97748C0.352588 1.60237 0.00105857 2.4496 0 3.33333L0 12.6667C0.00105857 13.5504 0.352588 14.3976 0.97748 15.0225C1.60237 15.6474 2.4496 15.9989 3.33333 16H12.6667C13.5504 15.9989 14.3976 15.6474 15.0225 15.0225C15.6474 14.3976 15.9989 13.5504 16 12.6667V3.33333C15.9989 2.4496 15.6474 1.60237 15.0225 0.97748C14.3976 0.352588 13.5504 0.00105857 12.6667 0V0ZM14.6667 12.6667C14.6667 13.1971 14.456 13.7058 14.0809 14.0809C13.7058 14.456 13.1971 14.6667 12.6667 14.6667H3.33333C2.8029 14.6667 2.29419 14.456 1.91912 14.0809C1.54405 13.7058 1.33333 13.1971 1.33333 12.6667V3.33333C1.33333 2.8029 1.54405 2.29419 1.91912 1.91912C2.29419 1.54405 2.8029 1.33333 3.33333 1.33333H12.6667C13.1971 1.33333 13.7058 1.54405 14.0809 1.91912C14.456 2.29419 14.6667 2.8029 14.6667 3.33333V12.6667Z" fill="white"/>
<path id="Vector_2" d="M6.2222 10.6132L3.60954 8.00052C3.48452 7.87554 3.31498 7.80533 3.1382 7.80533C2.96143 7.80533 2.79189 7.87554 2.66687 8.00052C2.54189 8.12554 2.47168 8.29508 2.47168 8.47185C2.47168 8.64863 2.54189 8.81817 2.66687 8.94319L5.27954 11.5558C5.40336 11.6797 5.55037 11.778 5.71217 11.845C5.87397 11.9121 6.0474 11.9466 6.22254 11.9466C6.39768 11.9466 6.5711 11.9121 6.73291 11.845C6.89471 11.778 7.04172 11.6797 7.16554 11.5558L13.3335 5.38786C13.4585 5.26284 13.5287 5.0933 13.5287 4.91652C13.5287 4.73975 13.4585 4.57021 13.3335 4.44519C13.2085 4.32021 13.039 4.25 12.8622 4.25C12.6854 4.25 12.5159 4.32021 12.3909 4.44519L6.2222 10.6132Z" fill="white"/>
</g>
<defs>
<clipPath id="clip0_1095_14340">
<rect width="16" height="16" fill="white"/>
</clipPath>
</defs>
</svg>
