<svg xmlns="http://www.w3.org/2000/svg" width="10" height="10" viewBox="0 0 10 10" fill="none">
  <path d="M9.76015 8.52779L5.97124 4.74096L9.76015 0.982007C9.95004 0.76209 9.93976 0.432064 9.73656 0.224559C9.53336 0.0170532 9.20574 0.00202306 8.98464 0.190063L5.18466 3.92113L1.45114 0.162177C1.23509 -0.0540591 0.886153 -0.0540591 0.670098 0.162177C0.565231 0.266896 0.506245 0.409444 0.506245 0.55815C0.506245 0.706855 0.565231 0.849403 0.670098 0.954122L4.39807 4.70749L0.609165 8.46087C0.504298 8.56559 0.445312 8.70813 0.445312 8.85684C0.445312 9.00554 0.504298 9.14809 0.609165 9.25281C0.713703 9.35721 0.855221 9.4154 1.00246 9.41455C1.14699 9.41542 1.28615 9.35938 1.39021 9.25839L5.18466 5.49386L8.98464 9.31974C9.08918 9.42413 9.2307 9.48233 9.37794 9.48147C9.52326 9.48085 9.66251 9.42277 9.76569 9.31974C9.86983 9.21428 9.92782 9.07131 9.92678 8.9226C9.92574 8.77389 9.86575 8.63176 9.76015 8.52779Z" fill="#E9E9E9"/>
</svg>