<svg xmlns="http://www.w3.org/2000/svg" width="18" height="18" viewBox="0 0 18 18" fill="none">
  <path fill-rule="evenodd" clip-rule="evenodd" d="M14.5552 3.55556V10.6667C14.5552 12.6303 12.9634 14.2222 10.9997 14.2222H3.88856C1.92488 14.2222 0.333008 12.6303 0.333008 10.6667V3.55556C0.333008 1.59188 1.92488 0 3.88856 0H10.9997C12.9634 0 14.5552 1.59188 14.5552 3.55556ZM1.66634 3.55556V10.6667C1.66634 11.256 1.90047 11.8213 2.31721 12.238C2.73396 12.6548 3.29919 12.8889 3.88856 12.8889H10.9997C12.227 12.8889 13.2219 11.894 13.2219 10.6667V3.55556C13.2219 2.32826 12.227 1.33333 10.9997 1.33333H3.88856C2.66126 1.33333 1.66634 2.32826 1.66634 3.55556Z" fill="#0A84FF"/>
  <path d="M17.2219 5.55556C16.8557 5.56034 16.56 5.85603 16.5552 6.22222V13.3333C16.5504 14.9268 15.2598 16.2173 13.6663 16.2222H6.55523C6.18704 16.2222 5.88856 16.5207 5.88856 16.8889C5.88856 17.2571 6.18704 17.5556 6.55523 17.5556H13.6663C15.9982 17.5556 17.8886 15.6652 17.8886 13.3333V6.22222C17.8838 5.85603 17.5881 5.56034 17.2219 5.55556Z" fill="#0A84FF"/>
</svg>