<svg width="20" height="21" viewBox="0 0 20 21" fill="none" xmlns="http://www.w3.org/2000/svg">
<g clip-path="url(#clip0_257_14113)">
<path d="M17.6266 3.22667L15.7232 1.26083C15.4895 1.0208 15.2101 0.829867 14.9016 0.699218C14.5931 0.568569 14.2616 0.500839 13.9266 0.5H9.9974C9.03723 0.501212 8.10683 0.833408 7.36302 1.4406C6.61921 2.04779 6.10748 2.89284 5.91406 3.83333H5.83073C4.72607 3.83466 3.66703 4.27407 2.88591 5.05518C2.1048 5.8363 1.66539 6.89534 1.66406 8V16.3333C1.66539 17.438 2.1048 18.497 2.88591 19.2782C3.66703 20.0593 4.72607 20.4987 5.83073 20.5H10.8307C11.9354 20.4987 12.9944 20.0593 13.7755 19.2782C14.5567 18.497 14.9961 17.438 14.9974 16.3333V16.25C15.9379 16.0566 16.7829 15.5449 17.3901 14.801C17.9973 14.0572 18.3295 13.1268 18.3307 12.1667V4.96667C18.332 4.31701 18.0793 3.6926 17.6266 3.22667ZM10.8307 18.8333H5.83073C5.16769 18.8333 4.5318 18.5699 4.06296 18.1011C3.59412 17.6323 3.33073 16.9964 3.33073 16.3333V8C3.33073 7.33696 3.59412 6.70107 4.06296 6.23223C4.5318 5.76339 5.16769 5.5 5.83073 5.5V12.1667C5.83205 13.2713 6.27146 14.3304 7.05258 15.1115C7.83369 15.8926 8.89273 16.332 9.9974 16.3333H13.3307C13.3307 16.9964 13.0673 17.6323 12.5985 18.1011C12.1297 18.5699 11.4938 18.8333 10.8307 18.8333ZM14.1641 14.6667H9.9974C9.33436 14.6667 8.69847 14.4033 8.22963 13.9344C7.76079 13.4656 7.4974 12.8297 7.4974 12.1667V4.66667C7.4974 4.00363 7.76079 3.36774 8.22963 2.8989C8.69847 2.43006 9.33436 2.16667 9.9974 2.16667H13.3307V3.83333C13.3307 4.27536 13.5063 4.69928 13.8189 5.01184C14.1314 5.32441 14.5554 5.5 14.9974 5.5H16.6641V12.1667C16.6641 12.8297 16.4007 13.4656 15.9318 13.9344C15.463 14.4033 14.8271 14.6667 14.1641 14.6667Z" fill="white"/>
</g>
<defs>
<clipPath id="clip0_257_14113">
<rect width="20" height="20" fill="white" transform="translate(0 0.5)"/>
</clipPath>
</defs>
</svg>
