<svg xmlns="http://www.w3.org/2000/svg" width="16" height="16" viewBox="0 0 16 16" fill="none">
  <path fill-rule="evenodd" clip-rule="evenodd" d="M1.82216 5.25483C2.80867 2.87847 5.1298 1.33062 7.70279 1.33332C9.38895 1.33332 11.006 2.0036 12.1976 3.19652C13.3893 4.38944 14.0579 6.00715 14.0561 7.69332C14.0561 10.2663 12.5058 12.5858 10.1284 13.5698C7.75106 14.5538 5.01499 14.0085 3.19657 12.1882C1.37814 10.3678 0.835656 7.63118 1.82216 5.25483ZM12.6895 9.62665C12.9222 9.00882 13.0397 8.35353 13.0361 7.69332C13.0511 6.47911 12.6513 5.29615 11.9028 4.33998C11.6028 4.83998 11.0361 5.58665 10.3361 5.58665C10.0668 5.565 9.79581 5.5921 9.53612 5.66665V5.73998C9.53612 5.85998 9.86279 6.18665 10.0361 6.35998C10.4678 6.68188 10.7552 7.16094 10.8361 7.69332C10.8361 8.75998 10.9428 9.08665 11.0361 9.16665C11.6124 9.20787 12.1747 9.36429 12.6895 9.62665ZM2.36945 7.69332C2.36339 6.50735 2.7528 5.35319 3.47612 4.41332C3.66502 4.75784 4.02997 4.96858 4.42279 4.95998C4.96222 5.23197 5.43902 5.61342 5.82279 6.07998C5.54043 6.2536 5.28448 6.46689 5.06279 6.71332C5.04221 6.73313 5.0198 6.75495 4.99607 6.77806C4.81215 6.95715 4.54831 7.21408 4.43612 7.21998C4.12747 7.21065 3.82866 7.32916 3.61032 7.54751C3.39197 7.76586 3.27346 8.06467 3.28279 8.37332C3.28375 8.44973 3.30198 8.52494 3.33612 8.59332L3.93612 9.79332C3.94378 10.4835 4.05386 11.1688 4.26279 11.8266C3.04664 10.8003 2.35232 9.28456 2.36945 7.69332ZM5.88279 12.7066C6.46621 12.9184 7.08212 13.0267 7.70279 13.0266V13.0466C9.5376 13.059 11.2499 12.1273 12.2361 10.58C11.834 10.3853 11.4047 10.2527 10.9628 10.1866C9.80946 10.1866 9.80946 8.53332 9.80946 7.73332C9.80946 7.6125 9.51225 7.31578 9.32861 7.13244C9.31972 7.12356 9.3111 7.11496 9.30279 7.10665C8.87415 6.78306 8.58935 6.30441 8.50946 5.77332C8.50946 4.61998 9.68279 4.61998 10.3095 4.61998C10.4828 4.61332 10.8961 4.11998 11.1495 3.62665C9.17261 1.95323 6.27925 1.94198 4.28946 3.59998C4.29955 3.65732 4.29955 3.71598 4.28946 3.77332C4.29612 3.93332 4.36946 3.93332 4.44279 3.93332C5.24279 3.93332 7.03612 5.55998 7.06279 6.31998C7.06385 6.49137 6.99157 6.65502 6.86418 6.76968C6.73679 6.88433 6.56645 6.93903 6.39612 6.91998C6.27612 6.92665 5.94946 7.25332 5.77612 7.42665C5.45181 7.85566 4.97394 8.14238 4.44279 8.22665C4.38946 8.22665 4.30946 8.22665 4.30946 8.29332L4.88946 9.40665C4.9236 9.47502 4.94183 9.55023 4.94279 9.62665C4.94279 10.3533 5.10279 11.5333 5.44946 11.8867C5.69133 12.0962 5.84593 12.3888 5.88279 12.7066Z" fill="#858584"/>
</svg>