<svg xmlns="http://www.w3.org/2000/svg" width="37" height="36" viewBox="0 0 37 36" fill="none">
  <path fill-rule="evenodd" clip-rule="evenodd" d="M10.9988 23.3657L12.3766 16.9299C12.5772 16.0355 13.029 15.2171 13.6788 14.5707L26.2673 2.09547C27.5439 0.79505 29.2771 0.0435276 31.0989 0.000529514C32.4729 -0.0191573 33.7978 0.510814 34.7792 1.47265C36.9236 4.00633 36.6467 7.78996 34.1564 9.98452L21.5679 22.573C20.9215 23.2229 20.1031 23.6747 19.2087 23.8753L12.7729 25.253H12.4143C11.9438 25.271 11.4945 25.057 11.212 24.6803C10.9295 24.3037 10.8498 23.8123 10.9988 23.3657ZM15.6794 16.5902C15.415 16.8464 15.2313 17.1745 15.151 17.5338L14.2262 21.9313L18.6236 20.9877C18.983 20.9073 19.311 20.7236 19.5673 20.4592L32.1558 7.8707C33.5349 6.76666 33.8085 4.77638 32.7786 3.34111C32.3277 2.91024 31.7223 2.67897 31.0989 2.69941C30.0242 2.74257 29.0087 3.20295 28.2679 3.9828L15.6794 16.5902Z" fill="#D9D9D9"/>
  <path d="M33.8733 15.1747C33.0958 15.1848 32.468 15.8127 32.4578 16.5902V27.3291C32.4831 28.847 31.8978 30.3115 30.8332 31.3939C29.7686 32.4762 28.314 33.0857 26.7958 33.0855H8.80953C5.67159 33.0239 3.15719 30.4676 3.14753 27.3291V9.41832C3.19905 6.27608 5.76123 3.7559 8.9039 3.75632H19.6428C20.4246 3.75632 21.0583 3.12258 21.0583 2.34082C21.0583 1.55906 20.4246 0.925322 19.6428 0.925322H8.80953C4.10347 0.925038 0.273883 4.71254 0.222168 9.41832V27.3291C0.222168 32.0718 4.06686 35.9165 8.80953 35.9165H26.7203C31.4556 35.9061 35.2888 32.0644 35.2888 27.3291V16.5902C35.2786 15.8127 34.6508 15.1848 33.8733 15.1747Z" fill="#D9D9D9"/>
</svg>