<svg width="17" height="17" viewBox="0 0 17 17" fill="none" xmlns="http://www.w3.org/2000/svg">
<path fill-rule="evenodd" clip-rule="evenodd" d="M0.657642 11.109L0.00986671 15.6093C-0.0369186 15.9559 0.0684319 16.3057 0.298794 16.5687C0.529154 16.8317 0.862015 16.9823 1.21166 16.9816H1.39065L5.891 16.3338C6.50102 16.2497 7.06677 15.9684 7.50192 15.5326L15.8037 7.22234C17.4188 5.55014 17.3957 2.8921 15.7518 1.24822C14.1079 -0.395657 11.4499 -0.418755 9.77766 1.19631L1.45884 9.49808C1.02312 9.93323 0.741745 10.499 0.657642 11.109ZM6.55582 14.6292C6.32008 14.8556 6.02421 15.0094 5.70348 15.0724L1.2628 15.6605L1.88501 11.2539C1.94798 10.9332 2.10183 10.6373 2.32823 10.4016L10.6385 2.09979C11.1985 1.52495 11.9669 1.20072 12.7694 1.20072C13.5718 1.20072 14.3403 1.52495 14.9002 2.09979C15.4618 2.65813 15.7776 3.41738 15.7776 4.20932C15.7776 5.00126 15.4618 5.76051 14.9002 6.31886L6.55582 14.6292Z" fill="#A2A2A2"/>
<path d="M12.3688 3.72775C12.6206 3.49305 13.0131 3.49998 13.2566 3.74342C13.5 3.98685 13.5069 4.37936 13.2722 4.63123L9.6839 8.21957C9.43432 8.46884 9.03 8.46884 8.78042 8.21957C8.53115 7.96999 8.53115 7.56568 8.78042 7.3161L12.3688 3.72775Z" fill="#A2A2A2"/>
</svg>
