<svg width="17" height="16" viewBox="0 0 17 16" fill="none" xmlns="http://www.w3.org/2000/svg">
<path fill-rule="evenodd" clip-rule="evenodd" d="M5.44159 1.80486C6.04537 0.691856 7.22141 -0.00203929 8.50038 9.80722e-05C9.80198 -0.00953753 11.0025 0.691487 11.6207 1.82221L16.578 10.8807C17.1662 11.9563 17.1378 13.2579 16.5035 14.3075C15.8691 15.3572 14.7222 16 13.4841 16H3.51666C2.27483 16.0003 1.12495 15.3538 0.49161 14.2994C-0.14173 13.2449 -0.164576 11.9388 0.431506 10.8634L5.44159 1.80486ZM10.4341 2.43826C10.0528 1.7348 9.30857 1.29732 8.50038 1.30161C7.70407 1.30706 6.97359 1.73905 6.59303 2.42958L1.59174 11.4707C1.21819 12.1412 1.23172 12.9566 1.62732 13.6146C2.02291 14.2726 2.74156 14.675 3.51666 14.6725H13.4841C14.2564 14.6678 14.9701 14.2648 15.3656 13.6099C15.7611 12.955 15.7809 12.1437 15.4178 11.4707L10.4341 2.43826Z" fill="currentColor"/>
<path d="M8.50038 10.4123C8.1363 10.4123 7.84116 10.7036 7.84116 11.063C7.84116 11.4224 8.1363 11.7138 8.50038 11.7138C8.67594 11.7161 8.84501 11.6483 8.96916 11.5258C9.09331 11.4032 9.16199 11.2363 9.1596 11.063C9.15962 10.8912 9.08989 10.7266 8.966 10.6059C8.84211 10.4853 8.67441 10.4186 8.50038 10.421V10.4123Z" fill="currentColor"/>
<path d="M8.50038 9.22357C8.13828 9.21889 7.84589 8.93026 7.84116 8.57281V5.88302C7.84116 5.52362 8.1363 5.23227 8.50038 5.23227C8.86446 5.23227 9.1596 5.52362 9.1596 5.88302V8.57281C9.1596 8.93221 8.86446 9.22357 8.50038 9.22357Z" fill="currentColor"/>
</svg>
