<svg width="12" height="12" viewBox="0 0 12 12" fill="none" xmlns="http://www.w3.org/2000/svg">
<g id="Interface essential/Heart">
<path id="Icon" d="M6.05 10.4C5.8 10.4 5.5 10.3 5.3 10.1C2.05 7.25 2 7.2 2 7.15L1.95 7.1C1.35 6.5 1 5.65 1 4.8V4.7C1.05 2.9 2.5 1.5 4.3 1.5C4.85 1.5 5.6 1.8 6.05 2.4C6.5 1.8 7.3 1.5 7.85 1.5C9.65 1.5 11.05 2.9 11.15 4.7V4.8C11.15 5.7 10.8 6.5 10.2 7.15L10.15 7.2C10.1 7.25 9.7 7.6 6.85 10.15C6.6 10.3 6.35 10.4 6.05 10.4ZM2.75 7C2.95 7.2 3.95 7.9 5.8 9.5C5.95 9.65 6.15 9.65 6.3 9.5C8.2 7.8 9.3 6.85 9.55 6.65L9.6 6.6C10.1 6.1 10.35 5.45 10.35 4.8V4.7C10.3 3.3 9.2 2.25 7.8 2.25C7.45 2.25 6.75 2.5 6.5 3.05C6.4 3.25 6.2 3.35 6 3.35C5.8 3.35 5.6 3.25 5.5 3.05C5.25 2.55 4.6 2.25 4.2 2.25C2.85 2.25 1.7 3.35 1.65 4.7V4.85C1.65 5.5 1.95 6.15 2.4 6.6L2.75 7Z" fill="white"/>
</g>
</svg>
