<svg width="16" height="16" viewBox="0 0 16 16" fill="none" xmlns="http://www.w3.org/2000/svg">
<path d="M11.6532 2.41406C11.2749 2.41406 10.9683 2.72072 10.9683 3.09899C10.9683 3.47727 11.2749 3.78393 11.6532 3.78393C13.2898 3.79384 14.6154 5.11543 14.6304 6.75196V8.57844C14.6154 10.215 13.2898 11.5366 11.6532 11.5465H9.6258L10.8769 10.3045C11.144 10.0371 11.144 9.60385 10.8769 9.33643C10.7497 9.20589 10.5752 9.13226 10.3929 9.13226C10.2107 9.13226 10.0361 9.20589 9.9089 9.33643L7.48881 11.7474C7.4269 11.8107 7.37735 11.8851 7.34269 11.9666C7.279 12.1374 7.279 12.3254 7.34269 12.4963C7.37735 12.5778 7.4269 12.6521 7.48881 12.7154L9.9089 15.1264C10.1763 15.3935 10.6095 15.3935 10.8769 15.1264C11.144 14.859 11.144 14.4258 10.8769 14.1584L9.6258 12.9163H11.6532C14.0463 12.9064 15.9852 10.9715 16.0002 8.57844V6.75196C15.9852 4.35889 14.0463 2.42403 11.6532 2.41406Z" fill="currentColor"/>
<path d="M8.65753 3.36399C8.72123 3.19317 8.72123 3.00513 8.65753 2.83431C8.61967 2.75457 8.57046 2.68075 8.51141 2.61513L6.09132 0.204173C5.96412 0.0736275 5.78958 0 5.6073 0C5.42503 0 5.25049 0.0736275 5.12329 0.204173C4.85621 0.471587 4.85621 0.904796 5.12329 1.17221L6.37443 2.41422H4.34703C1.95393 2.42418 0.0149988 4.35904 0 6.75212V8.5786C0.0149988 10.9717 1.95393 12.9065 4.34703 12.9165C4.72531 12.9165 5.03196 12.6098 5.03196 12.2316C5.03196 11.8533 4.72531 11.5466 4.34703 11.5466C2.71046 11.5367 1.3848 10.2151 1.36986 8.5786V6.75212C1.3848 5.11559 2.71046 3.79399 4.34703 3.78408H6.3653L5.12329 5.02609C4.85621 5.2935 4.85621 5.72671 5.12329 5.99413C5.3907 6.26121 5.82391 6.26121 6.09132 5.99413L8.51141 3.58317C8.57046 3.51755 8.61967 3.44373 8.65753 3.36399Z" fill="currentColor"/>
</svg>
