<svg width="17" height="17" viewBox="0 0 17 17" fill="none" xmlns="http://www.w3.org/2000/svg">
<path fill-rule="evenodd" clip-rule="evenodd" d="M8.04804 6.19438L15.9408 8.70328C16.4976 8.87003 16.9061 9.34741 16.9859 9.92466C17.0657 10.5019 16.8022 11.0728 16.3117 11.3852L13.56 13.1155C13.3779 13.2287 13.2244 13.3827 13.1115 13.5654L11.3863 16.3251C11.1266 16.7481 10.6653 17.0041 10.17 17C9.50858 17.0046 8.92118 16.5767 8.72087 15.9445L6.21933 8.02848C6.05585 7.50849 6.19443 6.94047 6.57883 6.55494C6.96323 6.16941 7.52958 6.03042 8.04804 6.19438ZM12.8268 11.9216L15.5785 10.1913C15.6075 10.164 15.6112 10.1192 15.5872 10.0875C15.5785 10.0269 15.5181 10.0269 15.5181 10.0269L7.62537 7.51804V7.56995L10.1269 15.486C10.1357 15.5399 10.1848 15.5778 10.239 15.5725L11.9642 12.7867C12.1875 12.4404 12.4815 12.1455 12.8268 11.9216Z" fill="currentColor"/>
<path d="M3.00184 2.10228C2.75626 1.88198 2.38482 1.88198 2.13924 2.10228C1.92713 2.35143 1.92713 2.71828 2.13924 2.96742L3.86444 4.78421C3.98766 4.90288 4.15082 4.97081 4.32162 4.97454C4.49277 4.97255 4.65654 4.90436 4.77879 4.78421C4.91664 4.66652 4.99818 4.49566 5.00312 4.31417C5.00806 4.13267 4.93592 3.95761 4.80467 3.83256L3.00184 2.10228Z" fill="currentColor"/>
<path d="M6.68513 3.83256C6.85674 3.82803 7.01951 3.75529 7.13761 3.63034C7.25572 3.5054 7.31947 3.33851 7.31483 3.1664V0.648853C7.31483 0.290501 7.02518 0 6.66788 0C6.31058 0 6.02093 0.290501 6.02093 0.648853V3.1664C6.01613 3.34451 6.08457 3.51676 6.21018 3.64275C6.3358 3.76874 6.50755 3.83737 6.68513 3.83256Z" fill="currentColor"/>
<path d="M9.09178 3.78065C9.2635 3.78146 9.4283 3.71285 9.54896 3.59032L11.3259 1.80814C11.499 1.64638 11.5702 1.40277 11.5117 1.17288C11.4532 0.942981 11.2742 0.763465 11.045 0.704754C10.8157 0.646042 10.5728 0.717499 10.4116 0.891092L8.63461 2.67327C8.38234 2.9266 8.38234 3.33699 8.63461 3.59032C8.75527 3.71285 8.92007 3.78146 9.09178 3.78065Z" fill="currentColor"/>
<path d="M2.70856 8.61677L0.931607 10.399C0.679338 10.6523 0.679338 11.0627 0.931607 11.316C1.0517 11.4394 1.21688 11.5081 1.38878 11.5063C1.5605 11.5071 1.7253 11.4385 1.84596 11.316L3.62291 9.53381C3.796 9.37206 3.86724 9.12845 3.8087 8.89855C3.75017 8.66866 3.57118 8.48914 3.34196 8.43043C3.11273 8.37172 2.86984 8.44318 2.70856 8.61677Z" fill="currentColor"/>
<path d="M3.16574 6.04731H0.646949C0.289649 6.04731 0 6.33781 0 6.69616C0 7.05451 0.289649 7.34502 0.646949 7.34502H3.16574C3.52304 7.34502 3.81268 7.05451 3.81268 6.69616C3.81268 6.33781 3.52304 6.04731 3.16574 6.04731Z" fill="currentColor"/>
</svg>
