<svg width="20" height="20" viewBox="0 0 20 20" fill="none" xmlns="http://www.w3.org/2000/svg">
<path fill-rule="evenodd" clip-rule="evenodd" d="M8.95701 0.52932L0.507008 8.97932C-0.286623 9.98622 -0.131222 11.4426 0.857008 12.2593L7.22701 18.6293C8.04377 19.6175 9.50011 19.773 10.507 18.9793L18.957 10.5293C19.3417 10.1337 19.532 9.58838 19.477 9.03932L19.037 3.03932C18.8971 1.67103 17.8153 0.589215 16.447 0.44932L10.447 0.00931994C9.89795 -0.0456751 9.35263 0.144638 8.95701 0.52932ZM13.807 7.10832C13.429 7.10832 13.0675 6.95325 12.807 6.67932C12.5331 6.41881 12.378 6.05734 12.378 5.67932C12.378 5.3013 12.5331 4.93983 12.807 4.67932C13.3593 4.12704 14.2547 4.12704 14.807 4.67932C15.3593 5.2316 15.3593 6.12704 14.807 6.67932C14.5465 6.95325 14.185 7.10832 13.807 7.10832Z" fill="currentColor"/>
</svg>
