<svg width="22" height="20" viewBox="0 0 22 20" fill="none" xmlns="http://www.w3.org/2000/svg">
<path fill-rule="evenodd" clip-rule="evenodd" d="M13.2938 12.0001C14.8635 12.032 16.1934 13.1654 16.4738 14.7101L16.7038 15.8501C16.931 16.8341 16.7076 17.8681 16.0947 18.6706C15.4817 19.473 14.5428 19.9605 13.5338 20.0001H4.24378C3.23334 19.9641 2.29212 19.4775 1.67837 18.674C1.06462 17.8705 0.842802 16.8345 1.07378 15.8501L1.30378 14.7101C1.57982 13.1669 2.9064 12.0328 4.47378 12.0001H13.2938ZM13.5338 18.5001C14.0391 18.4956 14.5145 18.2598 14.8238 17.8601C15.2202 17.3816 15.3717 16.746 15.2338 16.1401L15.0038 15.0001C14.8626 14.1557 14.1492 13.5257 13.2938 13.4901H4.47378C3.62069 13.5265 2.91057 14.1573 2.77378 15.0001L2.59378 16.1501C2.4591 16.7529 2.61042 17.384 3.00378 17.8601C3.30213 18.2463 3.75614 18.4807 4.24378 18.5001H13.5338Z" fill="white"/>
<path fill-rule="evenodd" clip-rule="evenodd" d="M9.38378 10.0001H8.38378C6.17464 10.0001 4.38378 8.20927 4.38378 6.00013V3.36013C4.38378 1.50446 5.8881 0.000134656 7.74378 0.000134656H10.0038C10.8992 -0.00788825 11.7605 0.342888 12.3956 0.974174C13.0306 1.60546 13.3865 2.4647 13.3838 3.36013V6.00013C13.3838 8.20927 11.5929 10.0001 9.38378 10.0001ZM7.74378 1.50013C6.71653 1.50013 5.88378 2.33289 5.88378 3.36013V6.00013C5.88914 7.37084 6.99316 8.48376 8.36378 8.50013H9.36378C10.0268 8.50013 10.6627 8.23674 11.1315 7.7679C11.6004 7.29906 11.8638 6.66318 11.8638 6.00013V3.36013C11.8638 2.33289 11.031 1.50013 10.0038 1.50013H7.74378Z" fill="white"/>
<path d="M20.3838 4.25013H19.0038V2.88013C19.0038 2.46592 18.668 2.13013 18.2538 2.13013C17.8396 2.13013 17.5038 2.46592 17.5038 2.88013V4.25013H16.1438C15.7296 4.25013 15.3938 4.58592 15.3938 5.00013C15.3938 5.41435 15.7296 5.75013 16.1438 5.75013H17.5138V7.12013C17.5138 7.53435 17.8496 7.87013 18.2638 7.87013C18.678 7.87013 19.0138 7.53435 19.0138 7.12013V5.75013H20.3838C20.798 5.75013 21.1338 5.41435 21.1338 5.00013C21.1338 4.58592 20.798 4.25013 20.3838 4.25013Z" fill="white"/>
</svg>
