<svg width="23" height="23" viewBox="0 0 23 23" fill="none" xmlns="http://www.w3.org/2000/svg">
<path d="M11.2746 19.3823C10.8087 19.3823 10.2496 19.1959 9.87692 18.8232C3.8201 13.5118 3.72692 13.4186 3.72692 13.3254L3.63373 13.2323C2.51555 12.1141 1.86328 10.53 1.86328 8.9459V8.75953C1.95646 5.40499 4.65873 2.7959 8.01328 2.7959C9.03828 2.7959 10.436 3.35499 11.2746 4.47317C12.1133 3.35499 13.6042 2.7959 14.6292 2.7959C17.9837 2.7959 20.5928 5.40499 20.7792 8.75953V8.9459C20.7792 10.6232 20.1269 12.1141 19.0087 13.3254L18.9156 13.4186C18.8224 13.5118 18.0769 14.1641 12.7656 18.9164C12.2996 19.1959 11.8337 19.3823 11.2746 19.3823ZM5.12464 13.0459C5.49737 13.4186 7.36101 14.7232 10.8087 17.705C11.0883 17.9845 11.461 17.9845 11.7406 17.705C15.2815 14.5368 17.3315 12.7664 17.7974 12.3936L17.8906 12.3004C18.8224 11.3686 19.2883 10.1573 19.2883 8.9459V8.75953C19.1951 6.15044 17.1451 4.19363 14.536 4.19363C13.8837 4.19363 12.5792 4.65953 12.1133 5.68453C11.9269 6.05726 11.5542 6.24363 11.1815 6.24363C10.8087 6.24363 10.436 6.05726 10.2496 5.68453C9.78374 4.75272 8.57237 4.19363 7.82692 4.19363C5.31101 4.19363 3.16783 6.24363 3.07464 8.75953V9.03908C3.07464 10.2504 3.63374 11.4618 4.47237 12.3004L5.12464 13.0459Z" fill="white"/>
</svg>
