<svg width="24" height="24" viewBox="0 0 24 24" fill="none" xmlns="http://www.w3.org/2000/svg">
<path d="M4.5 7.42066L4.5 17.4207C4.5 17.8349 4.16421 18.1707 3.75 18.1707C3.33579 18.1707 3 17.8349 3 17.4207L3 7.42066C3 7.00645 3.33579 6.67066 3.75 6.67066C4.16421 6.67066 4.5 7.00645 4.5 7.42066Z" fill="white"/>
<path d="M13.2564 6.59066C13.2564 6.39107 13.3371 6.19995 13.48 6.06066C13.7728 5.76821 14.2472 5.76821 14.54 6.06066L20.36 11.8907C20.6525 12.1835 20.6525 12.6578 20.36 12.9507L14.54 18.7807C14.2472 19.0731 13.7728 19.0731 13.48 18.7807C13.3371 18.6414 13.2564 18.4502 13.2564 18.2507C13.2564 18.0511 13.3371 17.8599 13.48 17.7207L18.02 13.1707L6.8 13.1707C6.38579 13.1707 6.05 12.8349 6.05 12.4207C6.05 12.0064 6.38579 11.6707 6.8 11.6707L18.02 11.6707L13.48 7.12066C13.3371 6.98137 13.2564 6.79025 13.2564 6.59066Z" fill="white"/>
</svg>
