<svg width="9" height="9" viewBox="0 0 9 9" fill="none" xmlns="http://www.w3.org/2000/svg">
<path fill-rule="evenodd" clip-rule="evenodd" d="M6.87467 1.87467V5.20801C6.87467 6.12848 6.12848 6.87467 5.20801 6.87467H1.87467C0.9542 6.87467 0.208008 6.12848 0.208008 5.20801V1.87467C0.208008 0.9542 0.9542 0.208008 1.87467 0.208008H5.20801C6.12848 0.208008 6.87467 0.9542 6.87467 1.87467ZM0.833008 1.87467V5.20801C0.833008 5.48428 0.942755 5.74923 1.1381 5.94458C1.33346 6.13993 1.59841 6.24967 1.87467 6.24967H5.20801C5.7833 6.24967 6.24967 5.7833 6.24967 5.20801V1.87467C6.24967 1.29938 5.7833 0.833008 5.20801 0.833008H1.87467C1.29938 0.833008 0.833008 1.29938 0.833008 1.87467Z" fill="#DBDBDB"/>
<path d="M8.12467 2.81217C7.95302 2.81442 7.81442 2.95302 7.81217 3.12467V6.45801C7.80989 7.20494 7.20494 7.80989 6.45801 7.81217H3.12467C2.95209 7.81217 2.81217 7.95209 2.81217 8.12467C2.81217 8.29726 2.95209 8.43717 3.12467 8.43717H6.45801C7.55107 8.43717 8.43717 7.55107 8.43717 6.45801V3.12467C8.43493 2.95302 8.29633 2.81442 8.12467 2.81217Z" fill="#DBDBDB"/>
</svg>
