<svg width="20" height="20" viewBox="0 0 20 20" fill="none" xmlns="http://www.w3.org/2000/svg">
<path d="M8.73322 15.8333C8.5146 15.8324 8.3051 15.7456 8.14988 15.5917L4.32488 11.7667C3.85672 11.2979 3.59375 10.6625 3.59375 10C3.59375 9.33751 3.85672 8.70209 4.32488 8.23334L8.14988 4.40834C8.30602 4.25313 8.51723 4.16602 8.73738 4.16602C8.95754 4.16602 9.16875 4.25313 9.32488 4.40834C9.40299 4.48581 9.46499 4.57798 9.50729 4.67953C9.5496 4.78108 9.57138 4.89 9.57138 5.00001C9.57138 5.11002 9.5496 5.21894 9.50729 5.32049C9.46499 5.42204 9.40299 5.51421 9.32488 5.59168L5.49988 9.40834C5.42178 9.48581 5.35978 9.57798 5.31747 9.67953C5.27517 9.78108 5.25339 9.89 5.25339 10C5.25339 10.11 5.27517 10.2189 5.31747 10.3205C5.35978 10.422 5.42178 10.5142 5.49988 10.5917L9.32488 14.4083C9.40299 14.4858 9.46499 14.578 9.50729 14.6795C9.5496 14.7811 9.57138 14.89 9.57138 15C9.57138 15.11 9.5496 15.2189 9.50729 15.3205C9.46499 15.422 9.40299 15.5142 9.32488 15.5917C9.24702 15.6689 9.15467 15.73 9.05314 15.7715C8.95161 15.813 8.84289 15.834 8.73322 15.8333Z" fill="#D2D2D2"/>
<path d="M14.5662 15.8333C14.3475 15.8324 14.138 15.7456 13.9828 15.5917L8.98283 10.5917C8.90472 10.5142 8.84272 10.422 8.80042 10.3205C8.75811 10.2189 8.73633 10.11 8.73633 10C8.73633 9.89 8.75811 9.78108 8.80042 9.67953C8.84272 9.57798 8.90472 9.48581 8.98283 9.40834L13.9828 4.40834C14.139 4.25313 14.3502 4.16602 14.5703 4.16602C14.7905 4.16602 15.0017 4.25313 15.1578 4.40834C15.2359 4.48581 15.2979 4.57798 15.3402 4.67953C15.3825 4.78108 15.4043 4.89 15.4043 5.00001C15.4043 5.11002 15.3825 5.21894 15.3402 5.32049C15.2979 5.42204 15.2359 5.51421 15.1578 5.59168L10.7495 10L15.1578 14.4083C15.2359 14.4858 15.2979 14.578 15.3402 14.6795C15.3825 14.7811 15.4043 14.89 15.4043 15C15.4043 15.11 15.3825 15.2189 15.3402 15.3205C15.2979 15.422 15.2359 15.5142 15.1578 15.5917C15.08 15.6689 14.9876 15.73 14.8861 15.7715C14.7845 15.813 14.6758 15.834 14.5662 15.8333Z" fill="#D2D2D2"/>
</svg>
