<svg width="22" height="22" viewBox="0 0 22 22" fill="none" xmlns="http://www.w3.org/2000/svg">
<g id="Interface essential/Pen">
<g id="Icon">
<path fill-rule="evenodd" clip-rule="evenodd" d="M19.4088 13.7809L20.1054 18.6209C20.1558 18.9936 20.0424 19.3698 19.7947 19.6527C19.547 19.9356 19.189 20.0975 18.8129 20.0968H18.6204L13.7804 19.4001C13.1244 19.3096 12.5159 19.007 12.0479 18.5384L3.1196 9.60093C1.38265 7.80252 1.40749 4.94387 3.17544 3.17592C4.94338 1.40798 7.80203 1.38314 9.60044 3.12009L18.5471 12.0484C19.0157 12.5164 19.3183 13.1249 19.4088 13.7809ZM13.0654 17.5668C13.319 17.8102 13.6372 17.9757 13.9821 18.0434L18.7579 18.6759L18.0888 13.9368C18.021 13.5918 17.8556 13.2736 17.6121 13.0201L8.6746 4.09176C8.07241 3.47354 7.24598 3.12484 6.38294 3.12484C5.5199 3.12484 4.69347 3.47354 4.09127 4.09176C3.48727 4.69225 3.14764 5.5088 3.14764 6.36051C3.14764 7.21222 3.48727 8.02877 4.09127 8.62926L13.0654 17.5668Z" fill="white"/>
<path d="M6.81377 5.84259C6.54289 5.59018 6.12076 5.59763 5.85895 5.85944C5.59714 6.12125 5.58969 6.54338 5.8421 6.81426L9.70127 10.6734C9.96969 10.9415 10.4045 10.9415 10.6729 10.6734C10.941 10.405 10.941 9.97017 10.6729 9.70176L6.81377 5.84259Z" fill="white"/>
</g>
</g>
</svg>
