<svg width="12" height="12" viewBox="0 0 12 12" fill="none" xmlns="http://www.w3.org/2000/svg">
<path fill-rule="evenodd" clip-rule="evenodd" d="M9.79029 8.35501L9.91029 8.92501C10.024 9.41781 9.91173 9.93564 9.60412 10.3371C9.29651 10.7385 8.8257 10.9816 8.32029 11H3.68029C3.17488 10.9816 2.70408 10.7385 2.39646 10.3371C2.08885 9.93564 1.97657 9.41781 2.09029 8.92501L2.21029 8.35501C2.34831 7.5834 3.0116 7.01636 3.79529 7.00001H8.20529C8.98898 7.01636 9.65227 7.5834 9.79029 8.35501ZM8.32029 10.245C8.57419 10.2421 8.81313 10.1244 8.97029 9.92501V9.93001C9.16314 9.68811 9.23827 9.3729 9.17529 9.07001L9.05529 8.50001C8.98871 8.0776 8.63261 7.7613 8.20529 7.74501H3.79529C3.36798 7.7613 3.01187 8.0776 2.94529 8.50001L2.82529 9.07001C2.76387 9.37131 2.83892 9.68433 3.03029 9.92501C3.18746 10.1244 3.4264 10.2421 3.68029 10.245H8.32029Z" fill="#B9B9B9"/>
<path fill-rule="evenodd" clip-rule="evenodd" d="M6.25028 6.00001H5.75028C4.64571 6.00001 3.75028 5.10458 3.75028 4.00001V2.68001C3.74895 2.23404 3.92552 1.80595 4.24087 1.4906C4.55622 1.17525 4.98431 0.998674 5.43028 1.00001H6.57028C7.01626 0.998674 7.44434 1.17525 7.7597 1.4906C8.07505 1.80595 8.25162 2.23404 8.25028 2.68001V4.00001C8.25028 5.10458 7.35485 6.00001 6.25028 6.00001ZM5.43028 1.75001C4.91666 1.75001 4.50028 2.16638 4.50028 2.68001V4.00001C4.50028 4.69036 5.05993 5.25001 5.75028 5.25001H6.25028C6.94064 5.25001 7.50028 4.69036 7.50028 4.00001V2.68001C7.50028 2.43336 7.4023 2.19681 7.22789 2.0224C7.05348 1.84799 6.81694 1.75001 6.57028 1.75001H5.43028Z" fill="#B9B9B9"/>
</svg>
