<svg xmlns="http://www.w3.org/2000/svg" width="12" height="12" viewBox="0 0 12 12" fill="none">
  <path d="M9.36754 4.94099L7.35374 2.9272C6.98524 2.56504 6.39447 2.56504 6.02597 2.9272L4.77343 4.16203C4.70219 4.23358 4.62002 4.29334 4.53 4.33907L3.17124 5.02066C2.89823 5.15639 2.70724 5.41525 2.65812 5.71616C2.60899 6.01707 2.70772 6.32324 2.92339 6.53875L4.10511 7.72047L2.67111 9.15447C2.54168 9.28407 2.54168 9.49402 2.67111 9.62362C2.73434 9.68433 2.81806 9.71909 2.90569 9.72099C2.9937 9.72092 3.07807 9.68589 3.14026 9.62362L4.57426 8.18962L5.75598 9.37134C5.9715 9.58702 6.27766 9.68575 6.57857 9.63662C6.87949 9.58749 7.13835 9.39651 7.27408 9.12349L7.95567 7.75588C8.00139 7.66586 8.06115 7.58369 8.13271 7.51246L9.36754 6.27762C9.73554 5.90807 9.73554 5.31055 9.36754 4.94099Z" fill="#D9D9D9"/>
</svg>