<svg width="16" height="16" viewBox="0 0 16 16" fill="none" xmlns="http://www.w3.org/2000/svg">
<path fill-rule="evenodd" clip-rule="evenodd" d="M10.8158 0.611623L15.3751 5.17592C16.2083 6.01352 16.2083 7.3678 15.3751 8.20541L12.5794 11.0042C12.4205 11.1683 12.2856 11.354 12.1786 11.5559L10.6354 14.6556C10.3249 15.2709 9.73923 15.7006 9.0596 15.8116C8.37996 15.9227 7.68824 15.7019 7.19834 15.2174L4.52285 12.539L1.28621 15.7791C1.14604 15.9212 0.954596 16.0008 0.75512 15.9998C0.554957 16.0043 0.362155 15.9242 0.22403 15.7791C0.080788 15.6394 0 15.4477 0 15.2475C0 15.0472 0.080788 14.8555 0.22403 14.7158L3.46067 11.4756L0.785182 8.79726C0.296891 8.30879 0.0733518 7.61487 0.184581 6.93285C0.295811 6.25083 0.728207 5.66412 1.34633 5.35648L4.44269 3.81165C4.64435 3.70453 4.82989 3.56944 4.99382 3.41039L7.8096 0.611623C8.6461 -0.203874 9.97927 -0.203874 10.8158 0.611623ZM11.4471 9.86059L14.2328 7.07186C14.4502 6.8691 14.4636 6.52875 14.2628 6.30947L9.7135 1.7552C9.61351 1.65225 9.47617 1.59416 9.33272 1.59416C9.18928 1.59416 9.05194 1.65225 8.95194 1.7552L6.16622 4.54394C5.87346 4.83207 5.53481 5.06938 5.16417 5.24614L2.06781 6.80101C1.91111 6.87386 1.80179 7.02103 1.77722 7.19223C1.74469 7.36169 1.80147 7.53599 1.92752 7.65368L8.34069 14.0738C8.43555 14.1781 8.57058 14.2365 8.71145 14.2343C8.91705 14.2378 9.10547 14.1199 9.19244 13.9333L10.7456 10.8637C10.9222 10.4927 11.1592 10.1537 11.4471 9.86059Z" fill="white"/>
</svg>
