<svg width="24" height="24" viewBox="0 0 24 24" fill="none" xmlns="http://www.w3.org/2000/svg">
<path fill-rule="evenodd" clip-rule="evenodd" d="M7.08 3.20998C7.82294 3.21021 8.50453 3.62224 8.85 4.27998L10.82 8.07998C11.1407 8.69906 11.1159 9.44048 10.7545 10.0367C10.3931 10.633 9.74722 10.9979 9.05 11H5.11C4.40567 11.0121 3.74691 10.6527 3.37578 10.054C3.00464 9.45524 2.97586 8.70541 3.3 8.07998L5.3 4.27998C5.64713 3.61905 6.33347 3.20648 7.08 3.20998ZM9.05 9.51998C9.22552 9.521 9.38873 9.42991 9.48 9.27998V9.25998C9.57105 9.12355 9.58614 8.95007 9.52 8.79998L7.52 4.99998C7.44493 4.84008 7.28655 4.73578 7.11 4.72998C6.92261 4.72341 6.7479 4.82435 6.66 4.98998L4.66 8.78998C4.57919 8.94594 4.58614 9.13286 4.67831 9.28239C4.77049 9.43191 4.93436 9.52211 5.11 9.51998H9.05Z" fill="currentColor"/>
<path fill-rule="evenodd" clip-rule="evenodd" d="M20.9 7C20.9 9.20914 19.1091 11 16.9 11C14.6909 11 12.9 9.20914 12.9 7C12.9 4.79086 14.6909 3 16.9 3C19.1091 3 20.9 4.79086 20.9 7ZM19.4 7C19.4 5.61929 18.2807 4.5 16.9 4.5C16.237 4.5 15.6011 4.76339 15.1322 5.23223C14.6634 5.70107 14.4 6.33696 14.4 7C14.4 8.38071 15.5193 9.5 16.9 9.5C18.2807 9.5 19.4 8.38071 19.4 7Z" fill="currentColor"/>
<path fill-rule="evenodd" clip-rule="evenodd" d="M14.9 13H18.9C20.0046 13 20.9 13.8954 20.9 15V19C20.9 20.1046 20.0046 21 18.9 21H14.9C13.7954 21 12.9 20.1046 12.9 19V15C12.9 13.8954 13.7954 13 14.9 13ZM18.9 19.5C19.1761 19.5 19.4 19.2761 19.4 19V15C19.4 14.7239 19.1761 14.5 18.9 14.5H14.9C14.6239 14.5 14.4 14.7239 14.4 15V19C14.4 19.2761 14.6239 19.5 14.9 19.5H18.9Z" fill="currentColor"/>
<path d="M10.61 13.16C10.4707 13.0171 10.2796 12.9364 10.08 12.9364C9.88041 12.9364 9.68929 13.0171 9.55 13.16L7.08 15.63L4.61 13.16C4.31449 12.8846 3.85399 12.8928 3.56838 13.1784C3.28277 13.464 3.27464 13.9245 3.55 14.22L6 16.69L3.55 19.16C3.40705 19.2993 3.32643 19.4904 3.32643 19.69C3.32643 19.8896 3.40705 20.0807 3.55 20.22C3.69172 20.3589 3.88159 20.4377 4.08 20.44C4.278 20.4357 4.46715 20.3572 4.61 20.22L7.08 17.75L9.55 20.22C9.69172 20.3589 9.88159 20.4377 10.08 20.44C10.278 20.4357 10.4672 20.3572 10.61 20.22C10.9025 19.9272 10.9025 19.4528 10.61 19.16L8.14 16.69L10.61 14.22C10.9025 13.9272 10.9025 13.4528 10.61 13.16Z" fill="currentColor"/>
</svg>
