<svg width="22" height="22" viewBox="0 0 22 22" fill="none" xmlns="http://www.w3.org/2000/svg">
<path fill-rule="evenodd" clip-rule="evenodd" d="M19.4097 13.7809L20.1064 18.6209C20.1567 18.9936 20.0434 19.3698 19.7957 19.6527C19.5479 19.9356 19.19 20.0975 18.8139 20.0968H18.6214L13.7814 19.4001C13.1254 19.3096 12.5169 19.007 12.0489 18.5384L3.12058 9.60093C1.38363 7.80252 1.40847 4.94387 3.17641 3.17592C4.94436 1.40798 7.80301 1.38314 9.60141 3.12009L18.5481 12.0484C19.0167 12.5164 19.3193 13.1249 19.4097 13.7809ZM13.0664 17.5668C13.32 17.8102 13.6381 17.9757 13.9831 18.0434L18.7589 18.6759L18.0897 13.9368C18.022 13.5918 17.8566 13.2736 17.6131 13.0201L8.67558 4.09176C8.07339 3.47354 7.24696 3.12484 6.38391 3.12484C5.52087 3.12484 4.69444 3.47354 4.09225 4.09176C3.48824 4.69225 3.14862 5.5088 3.14862 6.36051C3.14862 7.21222 3.48824 8.02877 4.09225 8.62926L13.0664 17.5668Z" fill="white"/>
<path d="M6.81475 5.84259C6.54386 5.59018 6.12174 5.59763 5.85993 5.85944C5.59812 6.12125 5.59067 6.54338 5.84308 6.81426L9.70225 10.6734C9.97066 10.9415 10.4055 10.9415 10.6739 10.6734C10.942 10.405 10.942 9.97017 10.6739 9.70176L6.81475 5.84259Z" fill="white"/>
</svg>
