<svg width="18" height="18" viewBox="0 0 18 18" fill="none" xmlns="http://www.w3.org/2000/svg">
<path d="M3.18745 14.25C3.49642 14.246 3.74591 13.9965 3.74995 13.6875V12.1875C3.74185 11.3397 4.07508 10.5242 4.67461 9.92467C5.27415 9.32513 6.08961 8.99191 6.93745 9H13.8299L10.2899 12.5625C10.1618 12.7879 10.2043 13.0717 10.3929 13.2497C10.5816 13.4276 10.8674 13.4536 11.0849 13.3125L15.5849 8.8125C15.6358 8.76048 15.6765 8.69944 15.7049 8.6325C15.765 8.49372 15.765 8.33628 15.7049 8.1975C15.6765 8.13056 15.6358 8.06952 15.5849 8.0175L11.0849 3.5175C10.8653 3.29816 10.5096 3.29816 10.2899 3.5175C10.0706 3.73711 10.0706 4.09289 10.2899 4.3125L13.8299 7.875H6.93745C5.79001 7.86284 4.68603 8.31328 3.87463 9.12468C3.06323 9.93609 2.61278 11.0401 2.62495 12.1875V13.6875C2.62899 13.9965 2.87848 14.246 3.18745 14.25Z" fill="#ABABAB"/>
</svg>
