<svg width="24" height="24" viewBox="0 0 24 24" fill="none" xmlns="http://www.w3.org/2000/svg">
<path fill-rule="evenodd" clip-rule="evenodd" d="M7.07854 3.20998C7.82148 3.21021 8.50307 3.62224 8.84854 4.27998L10.8185 8.07998C11.1393 8.69906 11.1144 9.44048 10.753 10.0367C10.3916 10.633 9.74576 10.9979 9.04854 11H5.10854C4.4042 11.0121 3.74545 10.6527 3.37431 10.054C3.00317 9.45524 2.97439 8.70541 3.29854 8.07998L5.29854 4.27998C5.64567 3.61905 6.332 3.20648 7.07854 3.20998ZM9.04854 9.51998C9.22406 9.521 9.38726 9.42991 9.47854 9.27998V9.25998C9.56959 9.12355 9.58467 8.95007 9.51854 8.79998L7.51854 4.99998C7.44346 4.84008 7.28508 4.73578 7.10853 4.72998C6.92114 4.72341 6.74643 4.82435 6.65854 4.98998L4.65854 8.78998C4.57772 8.94594 4.58467 9.13286 4.67685 9.28239C4.76902 9.43191 4.9329 9.52211 5.10854 9.51998H9.04854Z" fill="white"/>
<path fill-rule="evenodd" clip-rule="evenodd" d="M20.8985 7C20.8985 9.20914 19.1077 11 16.8985 11C14.6894 11 12.8985 9.20914 12.8985 7C12.8985 4.79086 14.6894 3 16.8985 3C19.1077 3 20.8985 4.79086 20.8985 7ZM19.3985 7C19.3985 5.61929 18.2792 4.5 16.8985 4.5C16.2355 4.5 15.5996 4.76339 15.1308 5.23223C14.6619 5.70107 14.3985 6.33696 14.3985 7C14.3985 8.38071 15.5178 9.5 16.8985 9.5C18.2792 9.5 19.3985 8.38071 19.3985 7Z" fill="white"/>
<path fill-rule="evenodd" clip-rule="evenodd" d="M14.8985 13H18.8985C20.0031 13 20.8985 13.8954 20.8985 15V19C20.8985 20.1046 20.0031 21 18.8985 21H14.8985C13.794 21 12.8985 20.1046 12.8985 19V15C12.8985 13.8954 13.794 13 14.8985 13ZM18.8985 19.5C19.1747 19.5 19.3985 19.2761 19.3985 19V15C19.3985 14.7239 19.1747 14.5 18.8985 14.5H14.8985C14.6224 14.5 14.3985 14.7239 14.3985 15V19C14.3985 19.2761 14.6224 19.5 14.8985 19.5H18.8985Z" fill="white"/>
<path d="M10.6085 13.16C10.4692 13.0171 10.2781 12.9364 10.0785 12.9364C9.87895 12.9364 9.68782 13.0171 9.54853 13.16L7.07854 15.63L4.60854 13.16C4.31303 12.8846 3.85253 12.8928 3.56691 13.1784C3.2813 13.464 3.27318 13.9245 3.54854 14.22L5.99854 16.69L3.54854 19.16C3.40559 19.2993 3.32497 19.4904 3.32497 19.69C3.32497 19.8896 3.40559 20.0807 3.54854 20.22C3.69026 20.3589 3.88012 20.4377 4.07854 20.44C4.27653 20.4357 4.46569 20.3572 4.60854 20.22L7.07854 17.75L9.54853 20.22C9.69026 20.3589 9.88012 20.4377 10.0785 20.44C10.2765 20.4357 10.4657 20.3572 10.6085 20.22C10.901 19.9272 10.901 19.4528 10.6085 19.16L8.13854 16.69L10.6085 14.22C10.901 13.9272 10.901 13.4528 10.6085 13.16Z" fill="white"/>
</svg>
