<svg width="19" height="18" viewBox="0 0 19 18" fill="none" xmlns="http://www.w3.org/2000/svg">
<path d="M16.8805 18L10.4901 11.7C9.98289 12.1 9.39964 12.4167 8.74031 12.65C8.08098 12.8833 7.37938 13 6.63553 13C4.79279 13 3.23322 12.3708 1.95683 11.1125C0.680433 9.85417 0.0422363 8.31667 0.0422363 6.5C0.0422363 4.68333 0.680433 3.14583 1.95683 1.8875C3.23322 0.629167 4.79279 0 6.63553 0C8.47827 0 10.0378 0.629167 11.3142 1.8875C12.5906 3.14583 13.2288 4.68333 13.2288 6.5C13.2288 7.23333 13.1105 7.925 12.8738 8.575C12.6371 9.225 12.3159 9.8 11.9102 10.3L18.3006 16.6L16.8805 18ZM6.63553 11C7.90347 11 8.98122 10.5625 9.86877 9.6875C10.7563 8.8125 11.2001 7.75 11.2001 6.5C11.2001 5.25 10.7563 4.1875 9.86877 3.3125C8.98122 2.4375 7.90347 2 6.63553 2C5.36759 2 4.28984 2.4375 3.40228 3.3125C2.51472 4.1875 2.07094 5.25 2.07094 6.5C2.07094 7.75 2.51472 8.8125 3.40228 9.6875C4.28984 10.5625 5.36759 11 6.63553 11Z" fill="#9D9B98"/>
</svg>
