<svg width="13" height="14" viewBox="0 0 13 14" fill="none" xmlns="http://www.w3.org/2000/svg">
<path fill-rule="evenodd" clip-rule="evenodd" d="M0.734255 4.01887C1.72054 1.59122 4.03144 0.00711532 6.59689 9.13405e-05C9.36182 -0.0148337 11.8203 1.80059 12.6822 4.49366C13.5441 7.18672 12.6125 10.1422 10.3762 11.8091C8.14 13.476 5.11001 13.4735 2.87637 11.8029L0.884722 13.8445C0.682225 14.0518 0.35418 14.0518 0.151684 13.8445C-0.0505612 13.6369 -0.0505612 13.3007 0.151684 13.0931L2.0811 11.1153C0.278861 9.24377 -0.25203 6.44653 0.734255 4.01887ZM1.65896 8.62641C2.48706 10.672 4.43632 12.0043 6.59689 12.0014V11.9731C9.52924 11.9692 11.9097 9.54176 11.9287 6.53596C11.9315 4.32124 10.6318 2.32312 8.63621 1.47426C6.64064 0.625392 4.34268 1.09315 2.81492 2.6592C1.28717 4.22525 0.830848 6.58081 1.65896 8.62641Z" fill="#6A6A6A"/>
</svg>
