<svg xmlns="http://www.w3.org/2000/svg" width="20" height="20" viewBox="0 0 31 32" fill="none">
  <path fill-rule="evenodd" clip-rule="evenodd" d="M1.91648 9.18599C4.19252 3.63707 9.52537 0.0162636 15.4456 0.000208778C21.8263 -0.0339055 27.4997 4.11565 29.4887 10.2712C31.4777 16.4268 29.3278 23.1822 24.1672 26.9922C19.0067 30.8023 12.0144 30.7966 6.85983 26.9782L2.26371 31.6446C1.79641 32.1185 1.03939 32.1185 0.572085 31.6446C0.105366 31.1702 0.105366 30.4015 0.572085 29.9271L5.02457 25.4065C0.865571 21.1286 -0.359561 14.7349 1.91648 9.18599ZM4.05041 19.7175C5.96142 24.3931 10.4597 27.4384 15.4456 27.4318V27.367C22.2126 27.3583 27.706 21.8097 27.7498 14.9393C27.7563 9.87711 24.7569 5.30999 20.1518 3.36973C15.5466 1.42947 10.2436 2.49863 6.71802 6.07817C3.19243 9.65772 2.13939 15.0419 4.05041 19.7175Z" fill="#6A6A6A"/>
</svg>