<svg width="8" height="12" viewBox="0 0 8 12" fill="none" xmlns="http://www.w3.org/2000/svg">
<path fill-rule="evenodd" clip-rule="evenodd" d="M5.96857 8.15348C6.26956 8.15432 6.56461 8.2373 6.82191 8.39348H6.81524C7.59096 8.85616 7.85439 9.85415 7.40808 10.6394C6.96177 11.4247 5.96954 11.709 5.1751 11.2792C4.38066 10.8495 4.0756 9.86343 4.48857 9.06015L2.53524 7.06682C2.39419 7.15269 2.24152 7.2178 2.08191 7.26015C1.949 7.29428 1.81245 7.31218 1.67524 7.31348C0.829425 7.31777 0.114514 6.68782 0.0123276 5.84819C-0.0898587 5.00856 0.453087 4.22553 1.27524 4.02682C1.40615 3.99489 1.5405 3.97921 1.67524 3.98015C2.01929 3.98042 2.35475 4.08758 2.63524 4.28682L4.48857 2.43348C4.21246 1.91757 4.22962 1.29413 4.53369 0.794179C4.83777 0.294232 5.38347 -0.00774307 5.96857 0.000151064C6.26898 -0.00136551 6.56407 0.0793244 6.82191 0.233484C7.3459 0.521679 7.67633 1.06753 7.68874 1.66541C7.70115 2.2633 7.39365 2.82239 6.88208 3.13208C6.3705 3.44177 5.73256 3.45501 5.20857 3.16682L3.24857 5.12682C3.27033 5.17417 3.28817 5.22322 3.30191 5.27348C3.39047 5.63231 3.35523 6.01053 3.20191 6.34682L5.20191 8.34682C5.43872 8.22301 5.70137 8.15678 5.96857 8.15348ZM5.96857 1.00015C5.73454 0.998788 5.51693 1.12024 5.39524 1.32015C5.30434 1.47255 5.27794 1.6549 5.32191 1.82682C5.36039 1.99847 5.46926 2.14604 5.6219 2.23348C5.72414 2.29688 5.84162 2.33144 5.9619 2.33348C6.19728 2.33344 6.41519 2.20928 6.53524 2.00682C6.72412 1.6919 6.62277 1.28354 6.30857 1.09348C6.20651 1.03048 6.0885 0.998082 5.96857 1.00015ZM1.67524 6.31348C1.36144 6.32263 1.08378 6.11161 1.00857 5.80682C0.9666 5.63402 0.995401 5.45161 1.08857 5.30015C1.17951 5.15066 1.32557 5.04291 1.49524 5.00015H1.65524C1.96904 4.99101 2.2467 5.20203 2.32191 5.50682C2.36403 5.67665 2.33769 5.85623 2.24857 6.00682L2.20857 6.05348C2.12013 6.17998 1.99054 6.27188 1.84191 6.31348H1.67524ZM5.9619 10.4535C6.19594 10.4548 6.41354 10.3334 6.53524 10.1335C6.70227 9.82611 6.60331 9.44191 6.30857 9.25348C6.20634 9.19009 6.08885 9.15553 5.96857 9.15348C5.73319 9.15353 5.51528 9.27768 5.39524 9.48015C5.20636 9.79506 5.3077 10.2034 5.6219 10.3935C5.72738 10.4449 5.84519 10.4657 5.9619 10.4535Z" fill="#DBDBDB"/>
</svg>
