<svg width="14" height="14" viewBox="0 0 14 14" fill="none" xmlns="http://www.w3.org/2000/svg">
<path d="M8.62725 1.20265L9.12498 2.76784C9.34989 3.49227 9.99787 3.98476 10.7313 3.98868H12.2999C13.0355 3.98383 13.6896 4.47361 13.9171 5.19964C14.1446 5.92566 13.8931 6.72098 13.2953 7.16601L12.0058 8.13642C11.4122 8.58364 11.1627 9.37608 11.3874 10.1007L11.8851 11.6659C12.1313 12.393 11.891 13.2017 11.2929 13.6587C10.6948 14.1156 9.87931 14.1136 9.28335 13.6537L8.0164 12.6755C7.4225 12.229 6.61939 12.229 6.02548 12.6755L4.75854 13.6537C4.1659 14.1038 3.3609 14.105 2.76702 13.6566C2.17314 13.2083 1.92647 12.4131 2.15677 11.6894L2.6545 10.1242C2.87921 9.39956 2.62973 8.60712 2.03611 8.1599L0.716374 7.17383C0.106504 6.72788 -0.149239 5.91957 0.0872092 5.18526C0.323657 4.45096 0.996294 3.96457 1.742 3.98868H3.3106C4.04 3.98699 4.68674 3.50174 4.91691 2.78349L5.41464 1.2183C5.63776 0.495351 6.28395 0.00358344 7.01547 1.94929e-05C7.74698 -0.00354445 8.39759 0.481905 8.62725 1.20265Z" fill="currentColor"/>
</svg>
