<svg width="17" height="19" viewBox="0 0 17 19" fill="none" xmlns="http://www.w3.org/2000/svg">
<path fill-rule="evenodd" clip-rule="evenodd" d="M0.950923 5.9235C2.22825 2.8504 5.22106 0.845128 8.54353 0.836236C12.1244 0.817343 15.3083 3.11544 16.4246 6.52452C17.5408 9.9336 16.3342 13.6749 13.4381 15.7849C10.542 17.895 6.61789 17.8919 3.72515 15.7771L1.14579 18.3615C0.88354 18.6239 0.458694 18.6239 0.196443 18.3615C-0.0654811 18.0988 -0.0654811 17.6731 0.196443 17.4103L2.6952 14.9067C0.361149 12.5376 -0.3264 8.9966 0.950923 5.9235ZM2.14849 11.7561C3.22096 14.3455 5.74541 16.032 8.54353 16.0284V15.9925C12.3412 15.9877 15.4241 12.9148 15.4487 9.10982C15.4523 6.30626 13.7691 3.7769 11.1846 2.70234C8.6002 1.62779 5.62414 2.21991 3.64557 4.20233C1.66699 6.18475 1.07602 9.16659 2.14849 11.7561Z" fill="#E3E3E3"/>
</svg>
