<svg width="19" height="19" viewBox="0 0 19 19" fill="none" xmlns="http://www.w3.org/2000/svg">
<path fill-rule="evenodd" clip-rule="evenodd" d="M11.3597 11.4695C12.7506 11.4977 13.9291 12.502 14.1775 13.8708L14.3814 14.881C14.5826 15.7529 14.3848 16.6691 13.8416 17.3802C13.2984 18.0913 12.4665 18.5232 11.5724 18.5583H3.34041C2.44505 18.5264 1.61102 18.0952 1.06717 17.3833C0.523315 16.6713 0.32676 15.7532 0.531434 14.881L0.735239 13.8708C0.979837 12.5033 2.15534 11.4984 3.54421 11.4695H11.3597ZM11.5724 17.2292C12.0201 17.2252 12.4414 17.0162 12.7155 16.6621C13.0668 16.2381 13.201 15.6748 13.0788 15.138L12.875 14.1278C12.7499 13.3796 12.1177 12.8213 11.3597 12.7898H3.54421C2.78828 12.822 2.15903 13.3809 2.03782 14.1278L1.87832 15.1468C1.75898 15.6809 1.89307 16.2402 2.24163 16.6621C2.506 17.0043 2.9083 17.2119 3.34041 17.2292H11.5724Z" fill="#E3E3E3"/>
<path fill-rule="evenodd" clip-rule="evenodd" d="M7.89502 9.69723H7.0089C5.05136 9.69723 3.46446 8.11033 3.46446 6.15278V3.81345C3.46446 2.16912 4.79746 0.836118 6.44179 0.836118H8.44441C9.23783 0.829009 10.0011 1.13984 10.5638 1.69922C11.1265 2.25861 11.4419 3.02 11.4395 3.81345V6.15278C11.4395 8.11033 9.85256 9.69723 7.89502 9.69723ZM6.44179 2.16528C5.53154 2.16528 4.79363 2.90319 4.79363 3.81345V6.15278C4.79838 7.36738 5.77666 8.35355 6.99118 8.36806H7.87729C8.46482 8.36806 9.02829 8.13467 9.44373 7.71922C9.85918 7.30378 10.0926 6.74031 10.0926 6.15278V3.81345C10.0926 2.90319 9.35466 2.16528 8.44441 2.16528H6.44179Z" fill="#E3E3E3"/>
<path d="M17.6422 4.60209H16.4194V3.38812C16.4194 3.02108 16.1219 2.72353 15.7548 2.72353C15.3878 2.72353 15.0902 3.02108 15.0902 3.38812V4.60209H13.8851C13.5181 4.60209 13.2205 4.89963 13.2205 5.26667C13.2205 5.63371 13.5181 5.93126 13.8851 5.93126H15.0991V7.14523C15.0991 7.51227 15.3966 7.80981 15.7637 7.80981C16.1307 7.80981 16.4283 7.51227 16.4283 7.14523V5.93126H17.6422C18.0093 5.93126 18.3068 5.63371 18.3068 5.26667C18.3068 4.89963 18.0093 4.60209 17.6422 4.60209Z" fill="#E3E3E3"/>
</svg>
