<svg width="16" height="16" viewBox="0 0 16 16" fill="none" xmlns="http://www.w3.org/2000/svg">
<path d="M15.3493 5.1637L10.7993 0.613697C9.96673 -0.204566 8.63195 -0.204566 7.79934 0.613697L4.96934 3.4037C4.80839 3.56537 4.62273 3.70039 4.41934 3.8037L1.34934 5.3437C0.732482 5.65037 0.300974 6.23524 0.189973 6.91513C0.0789713 7.59501 0.302052 8.28676 0.78934 8.7737L3.45934 11.4437L0.21934 14.6837C-0.0731134 14.9765 -0.0731134 15.4509 0.21934 15.7437C0.362186 15.8809 0.551343 15.9594 0.74934 15.9637C0.948186 15.9635 1.13882 15.8844 1.27934 15.7437L4.51934 12.5037L7.18934 15.1737C7.67628 15.661 8.36803 15.8841 9.04791 15.7731C9.72779 15.6621 10.3127 15.2306 10.6193 14.6137L12.1593 11.5237C12.2627 11.3203 12.3977 11.1346 12.5593 10.9737L15.3493 8.1837C16.1808 7.34871 16.1808 5.99868 15.3493 5.1637Z" fill="white"/>
</svg>
