<svg xmlns="http://www.w3.org/2000/svg" width="13" height="13" viewBox="0 0 13 13" fill="none">
    <g clip-path="url(#clip0_3529_7524)">
        <path fill-rule="evenodd" clip-rule="evenodd"
            d="M8.50402 0.480376L12.0888 4.06523C12.7439 4.72309 12.7439 5.78675 12.0888 6.44462L9.8907 8.6428C9.76577 8.77169 9.65967 8.91758 9.57554 9.07614L8.3622 11.5107C8.11805 11.9939 7.65758 12.3314 7.12322 12.4187C6.58885 12.5059 6.04496 12.3324 5.65979 11.9518L3.55615 9.84826L1.0113 12.3931C0.901086 12.5047 0.750562 12.5672 0.593722 12.5664C0.436341 12.5699 0.284748 12.5071 0.176146 12.3931C0.0635205 12.2833 0 12.1328 0 11.9755C0 11.8183 0.0635205 11.6677 0.176146 11.558L2.72099 9.0131L0.617358 6.90946C0.233434 6.52582 0.0576737 5.9808 0.14513 5.44515C0.232584 4.90947 0.572561 4.44866 1.05857 4.20705L3.49311 2.99371C3.65168 2.90958 3.79756 2.80349 3.92645 2.67856L6.14038 0.480376C6.79809 -0.160125 7.84632 -0.160125 8.50402 0.480376ZM9.00038 7.74462L11.1907 5.55432C11.3616 5.39507 11.3722 5.12776 11.2143 4.95553L7.63736 1.37856C7.55873 1.2977 7.45075 1.25207 7.33796 1.25207C7.22518 1.25207 7.11719 1.2977 7.03857 1.37856L4.84827 3.56887C4.61807 3.79516 4.35181 3.98156 4.06038 4.12037L1.62584 5.34159C1.50263 5.39881 1.41668 5.5144 1.39736 5.64887C1.37178 5.78195 1.41642 5.91885 1.51554 6.01128L6.55797 11.0537C6.63255 11.1356 6.73872 11.1815 6.84948 11.1798C7.01114 11.1825 7.15928 11.0899 7.22766 10.9434L8.44887 8.5325C8.58769 8.24108 8.77408 7.9748 9.00038 7.74462Z"
            fill="currentColor" />
    </g>
    <line x1="0.353553" y1="0.828087" x2="12.1717" y2="12.6463" stroke="currentColor" />
    <defs>
        <clipPath id="clip0_3529_7524">
            <rect width="13" height="13" fill="currentColor" />
        </clipPath>
    </defs>
</svg>