<svg width="24" height="24" viewBox="0 0 24 24" fill="none" xmlns="http://www.w3.org/2000/svg">
<path fill-rule="evenodd" clip-rule="evenodd" d="M0.917395 7.39897C2.7787 2.91535 7.15813 -0.00508206 12.0127 6.63942e-06C15.1941 4.88795e-06 18.2451 1.26467 20.4935 3.51544C22.7419 5.7662 24.0033 8.81844 24 11.9998C24 16.8545 21.075 21.2308 16.5894 23.0874C12.1038 24.944 6.9415 23.9151 3.51057 20.4805C0.0796342 17.046 -0.943913 11.8826 0.917395 7.39897ZM21.4214 15.6476C21.8606 14.4819 22.0823 13.2455 22.0755 11.9998C22.1038 9.70892 21.3494 7.47694 19.9372 5.67288C19.3711 6.61626 18.302 8.02505 16.9812 8.02505C16.4731 7.98419 15.9618 8.03533 15.4718 8.17599V8.31435C15.4718 8.54076 16.0882 9.15711 16.4152 9.48414C17.2297 10.0915 17.772 10.9954 17.9246 11.9998C17.9246 14.0124 18.1259 14.6287 18.302 14.7797C19.3894 14.8574 20.4501 15.1526 21.4214 15.6476ZM1.95 11.9998C1.93856 9.76219 2.67329 7.58457 4.03802 5.81124C4.39443 6.46127 5.08301 6.8589 5.82416 6.84267C6.84193 7.35585 7.74156 8.07555 8.46563 8.95585C7.93288 9.28343 7.44996 9.68585 7.03169 10.1508C6.99287 10.1882 6.95059 10.2294 6.9058 10.273C6.5588 10.6109 6.06098 11.0956 5.84932 11.1068C5.26697 11.0892 4.70319 11.3128 4.29122 11.7247C3.87925 12.1367 3.65564 12.7005 3.67325 13.2828C3.67506 13.427 3.70946 13.5689 3.77387 13.6979L4.90593 15.962C4.92038 17.2643 5.12809 18.5572 5.52228 19.7985C3.22769 17.862 1.91767 15.0021 1.95 11.9998ZM8.57884 21.4588C9.67962 21.8583 10.8417 22.0627 12.0127 22.0626V22.1003C15.4746 22.1236 18.7054 20.3657 20.5661 17.4463C19.8074 17.0789 18.9973 16.8287 18.1636 16.7042C15.9875 16.7042 15.9875 13.5847 15.9875 12.0753C15.9875 11.8473 15.4268 11.2875 15.0803 10.9416C15.0635 10.9248 15.0472 10.9086 15.0316 10.8929C14.2228 10.2824 13.6855 9.37929 13.5347 8.37724C13.5347 6.20117 15.7485 6.20117 16.9309 6.20117C17.258 6.1886 18.0378 5.25779 18.5158 4.32699C14.786 1.16963 9.32687 1.14841 5.57259 4.27667C5.59163 4.38486 5.59163 4.49553 5.57259 4.60371C5.58517 4.9056 5.72353 4.9056 5.8619 4.9056C7.37131 4.9056 10.7549 7.97473 10.8052 9.40867C10.8072 9.73203 10.6708 10.0408 10.4305 10.2571C10.1901 10.4735 9.86874 10.5767 9.54738 10.5407C9.32096 10.5533 8.70462 11.1697 8.37758 11.4967C7.76569 12.3061 6.86406 12.8471 5.8619 13.0061C5.76127 13.0061 5.61033 13.0061 5.61033 13.1319L6.70465 15.2325C6.76907 15.3615 6.80347 15.5034 6.80528 15.6476C6.80528 17.0186 7.10716 19.245 7.76124 19.9117C8.2176 20.307 8.50929 20.859 8.57884 21.4588Z" fill="#FAFAFA"/>
</svg>
