<svg width="16" height="21" viewBox="0 0 16 21" fill="none" xmlns="http://www.w3.org/2000/svg">
<path d="M15.8201 9.75C15.8201 9.33579 15.4843 9 15.0701 9C14.6559 9 14.3201 9.33579 14.3201 9.75C14.3495 11.4783 13.6904 13.1474 12.4879 14.3892C11.2855 15.6311 9.63851 16.3437 7.91012 16.37C6.18174 16.3437 4.53477 15.6311 3.33233 14.3892C2.1299 13.1474 1.47072 11.4783 1.50012 9.75C1.50012 9.33579 1.16434 9 0.750124 9C0.335911 9 0.000124188 9.33579 0.000124188 9.75C-0.0225887 13.86 3.07278 17.3185 7.16012 17.75V20.25C7.16012 20.6642 7.49591 21 7.91012 21C8.32434 21 8.66012 20.6642 8.66012 20.25V17.83C12.7783 17.3957 15.8844 13.8905 15.8201 9.75Z" fill="#6B6B6B"/>
<path fill-rule="evenodd" clip-rule="evenodd" d="M13 10C13 12.7614 10.7614 15 8 15C5.23858 15 3 12.7614 3 10V5C3 2.23858 5.23858 0 8 0C10.7614 0 13 2.23858 13 5V10ZM8 1.5C6.067 1.5 4.5 3.067 4.5 5V10C4.5 11.933 6.067 13.5 8 13.5C9.933 13.5 11.5 11.933 11.5 10V5C11.5 3.067 9.933 1.5 8 1.5Z" fill="#6B6B6B"/>
</svg>
