<svg width="16" height="16" viewBox="0 0 16 16" fill="none" xmlns="http://www.w3.org/2000/svg">
<path className="fill-current" d="M9.95394 15.5945V14.1088C11.3364 13.6689 12.4501 12.8701 13.295 11.7125C14.1398 10.5549 14.5623 9.24979 14.5623 7.79725C14.5623 6.3447 14.1398 5.03963 13.295 3.88203C12.4501 2.72441 11.3364 1.92563 9.95394 1.4857V0C11.7383 0.478036 13.192 1.43595 14.3152 2.87375C15.4384 4.31153 16 5.9527 16 7.79725C16 9.6418 15.4384 11.283 14.3152 12.7207C13.192 14.1585 11.7383 15.1165 9.95394 15.5945ZM0 10.2175V5.4249H3.55759L7.66818 1.31434V14.3281L3.55759 10.2175H0ZM9.95394 11.3235V4.27098C10.6003 4.62244 11.0999 5.11737 11.4525 5.75577C11.8052 6.39418 11.9816 7.08266 11.9816 7.82121C11.9816 8.54993 11.8037 9.22797 11.4479 9.85531C11.0922 10.4827 10.5942 10.9721 9.95394 11.3235ZM6.23041 4.80184L4.16956 6.86268H1.43775V8.77974H4.16956L6.23041 10.8406V4.80184Z" fill="#6F6F6F"/>
</svg>
