<svg width="16" height="16" viewBox="0 0 16 16" fill="none" xmlns="http://www.w3.org/2000/svg">
<g id="Interface essential/Close">
<path id="Icon" d="M13.1457 12.2603L8.88318 8.00008L13.1457 3.77126C13.3593 3.52386 13.3478 3.15258 13.1192 2.91913C12.8906 2.68569 12.522 2.66878 12.2733 2.88032L7.99827 7.07777L3.79806 2.84895C3.555 2.60569 3.16245 2.60569 2.91939 2.84895C2.80141 2.96676 2.73505 3.12713 2.73505 3.29442C2.73505 3.46172 2.80141 3.62208 2.91939 3.73989L7.11336 7.96244L2.85084 12.185C2.73286 12.3028 2.6665 12.4632 2.6665 12.6304C2.6665 12.7977 2.73286 12.9581 2.85084 13.0759C2.96844 13.1934 3.12765 13.2588 3.29329 13.2579C3.4559 13.2589 3.61244 13.1958 3.72952 13.0822L7.99827 8.8471L12.2733 13.1512C12.3909 13.2687 12.5501 13.3341 12.7157 13.3332C12.8792 13.3325 13.0359 13.2671 13.1519 13.1512C13.2691 13.0326 13.3343 12.8717 13.3332 12.7044C13.332 12.5371 13.2645 12.3772 13.1457 12.2603Z" fill="#E9E9E9"/>
</g>
</svg>
