<svg width="58" height="57" viewBox="0 0 58 57" fill="none" xmlns="http://www.w3.org/2000/svg">
<g filter="url(#filter0_dd_1770_60206)">
<g clip-path="url(#clip0_1770_60206)">
<rect x="5" y="3" width="48" height="48" rx="12" fill="white"/>
<rect x="5" y="3" width="48" height="48" rx="12" fill="url(#paint0_linear_1770_60206)"/>
<path fill-rule="evenodd" clip-rule="evenodd" d="M29.0001 6.05828C17.4343 6.05828 8.0584 15.4342 8.0584 27C8.0584 38.5658 17.4343 47.9418 29.0001 47.9418C40.566 47.9418 49.9419 38.5658 49.9419 27C49.9419 15.4342 40.566 6.05828 29.0001 6.05828ZM7.94189 27C7.94189 15.3699 17.37 5.94177 29.0001 5.94177C40.6303 5.94177 50.0584 15.3699 50.0584 27C50.0584 38.6302 40.6303 48.0583 29.0001 48.0583C17.37 48.0583 7.94189 38.6302 7.94189 27Z" fill="#D0D5DD"/>
<path fill-rule="evenodd" clip-rule="evenodd" d="M29 21.1169C25.7506 21.1169 23.1165 23.751 23.1165 27.0004C23.1165 30.2497 25.7506 32.8839 29 32.8839C32.2494 32.8839 34.8835 30.2497 34.8835 27.0004C34.8835 23.751 32.2494 21.1169 29 21.1169ZM23 27.0004C23 23.6867 25.6863 21.0004 29 21.0004C32.3137 21.0004 35 23.6867 35 27.0004C35 30.3141 32.3137 33.0004 29 33.0004C25.6863 33.0004 23 30.3141 23 27.0004Z" fill="#D0D5DD"/>
<path fill-rule="evenodd" clip-rule="evenodd" d="M28.9999 22.9802C26.7801 22.9802 24.9805 24.7797 24.9805 26.9996C24.9805 29.2194 26.7801 31.019 28.9999 31.019C31.2198 31.019 33.0194 29.2194 33.0194 26.9996C33.0194 24.7797 31.2198 22.9802 28.9999 22.9802ZM24.864 26.9996C24.864 24.7154 26.7157 22.8636 28.9999 22.8636C31.2841 22.8636 33.1359 24.7154 33.1359 26.9996C33.1359 29.2838 31.2841 31.1355 28.9999 31.1355C26.7157 31.1355 24.864 29.2838 24.864 26.9996Z" fill="#D0D5DD"/>
<path d="M28.9419 3H29.0584V51H28.9419V3Z" fill="#D0D5DD"/>
<path d="M53 26.9414L53 27.0579L5 27.0579L5 26.9414L53 26.9414Z" fill="#D0D5DD"/>
<path d="M44.9031 3H45.0196V51H44.9031V3Z" fill="#D0D5DD"/>
<path d="M20.9614 3H21.0779V51H20.9614V3Z" fill="#D0D5DD"/>
<path d="M36.9224 3H37.0389V51H36.9224V3Z" fill="#D0D5DD"/>
<path d="M12.9805 3H13.097V51H12.9805V3Z" fill="#D0D5DD"/>
<path d="M53 42.9023L53 43.0188L5 43.0188L5 42.9023L53 42.9023Z" fill="#D0D5DD"/>
<path d="M53 18.9609L53 19.0774L5 19.0774L5 18.9609L53 18.9609Z" fill="#D0D5DD"/>
<path d="M53 34.9219L53 35.0384L5 35.0384L5 34.9219L53 34.9219Z" fill="#D0D5DD"/>
<path d="M53 10.9805L53 11.097L5 11.097L5 10.9805L53 10.9805Z" fill="#D0D5DD"/>
<g filter="url(#filter1_dd_1770_60206)">
<circle cx="29" cy="27" r="12" fill="url(#paint1_linear_1770_60206)"/>
</g>
<g filter="url(#filter2_b_1770_60206)">
<path d="M5 27H53V31.8C53 38.5206 53 41.8809 51.6921 44.4479C50.5416 46.7058 48.7058 48.5416 46.4479 49.6921C43.8809 51 40.5206 51 33.8 51H24.2C17.4794 51 14.1191 51 11.5521 49.6921C9.29417 48.5416 7.4584 46.7058 6.30792 44.4479C5 41.8809 5 38.5206 5 31.8V27Z" fill="white" fill-opacity="0.2"/>
</g>
</g>
<rect x="5.15" y="3.15" width="47.7" height="47.7" rx="11.85" stroke="#D0D5DD" stroke-width="0.3"/>
</g>
<defs>
<filter id="filter0_dd_1770_60206" x="0.5" y="0" width="57" height="57" filterUnits="userSpaceOnUse" color-interpolation-filters="sRGB">
<feFlood flood-opacity="0" result="BackgroundImageFix"/>
<feColorMatrix in="SourceAlpha" type="matrix" values="0 0 0 0 0 0 0 0 0 0 0 0 0 0 0 0 0 0 127 0" result="hardAlpha"/>
<feOffset dy="1.5"/>
<feGaussianBlur stdDeviation="1.5"/>
<feColorMatrix type="matrix" values="0 0 0 0 0.0627451 0 0 0 0 0.0941176 0 0 0 0 0.156863 0 0 0 0.06 0"/>
<feBlend mode="normal" in2="BackgroundImageFix" result="effect1_dropShadow_1770_60206"/>
<feColorMatrix in="SourceAlpha" type="matrix" values="0 0 0 0 0 0 0 0 0 0 0 0 0 0 0 0 0 0 127 0" result="hardAlpha"/>
<feOffset dy="1.5"/>
<feGaussianBlur stdDeviation="2.25"/>
<feColorMatrix type="matrix" values="0 0 0 0 0.0627451 0 0 0 0 0.0941176 0 0 0 0 0.156863 0 0 0 0.1 0"/>
<feBlend mode="normal" in2="effect1_dropShadow_1770_60206" result="effect2_dropShadow_1770_60206"/>
<feBlend mode="normal" in="SourceGraphic" in2="effect2_dropShadow_1770_60206" result="shape"/>
</filter>
<filter id="filter1_dd_1770_60206" x="12.5" y="12" width="33" height="33" filterUnits="userSpaceOnUse" color-interpolation-filters="sRGB">
<feFlood flood-opacity="0" result="BackgroundImageFix"/>
<feColorMatrix in="SourceAlpha" type="matrix" values="0 0 0 0 0 0 0 0 0 0 0 0 0 0 0 0 0 0 127 0" result="hardAlpha"/>
<feOffset dy="1.5"/>
<feGaussianBlur stdDeviation="1.5"/>
<feColorMatrix type="matrix" values="0 0 0 0 0.0627451 0 0 0 0 0.0941176 0 0 0 0 0.156863 0 0 0 0.06 0"/>
<feBlend mode="normal" in2="BackgroundImageFix" result="effect1_dropShadow_1770_60206"/>
<feColorMatrix in="SourceAlpha" type="matrix" values="0 0 0 0 0 0 0 0 0 0 0 0 0 0 0 0 0 0 127 0" result="hardAlpha"/>
<feOffset dy="1.5"/>
<feGaussianBlur stdDeviation="2.25"/>
<feColorMatrix type="matrix" values="0 0 0 0 0.0627451 0 0 0 0 0.0941176 0 0 0 0 0.156863 0 0 0 0.1 0"/>
<feBlend mode="normal" in2="effect1_dropShadow_1770_60206" result="effect2_dropShadow_1770_60206"/>
<feBlend mode="normal" in="SourceGraphic" in2="effect2_dropShadow_1770_60206" result="shape"/>
</filter>
<filter id="filter2_b_1770_60206" x="-2.5" y="19.5" width="63" height="39" filterUnits="userSpaceOnUse" color-interpolation-filters="sRGB">
<feFlood flood-opacity="0" result="BackgroundImageFix"/>
<feGaussianBlur in="BackgroundImageFix" stdDeviation="3.75"/>
<feComposite in2="SourceAlpha" operator="in" result="effect1_backgroundBlur_1770_60206"/>
<feBlend mode="normal" in="SourceGraphic" in2="effect1_backgroundBlur_1770_60206" result="shape"/>
</filter>
<linearGradient id="paint0_linear_1770_60206" x1="29" y1="3" x2="29" y2="51" gradientUnits="userSpaceOnUse">
<stop stop-color="white"/>
<stop offset="1" stop-color="#D0D5DD"/>
</linearGradient>
<linearGradient id="paint1_linear_1770_60206" x1="23" y1="39" x2="35" y2="15" gradientUnits="userSpaceOnUse">
<stop stop-color="#53389E"/>
<stop offset="1" stop-color="#6941C6"/>
</linearGradient>
<clipPath id="clip0_1770_60206">
<rect x="5" y="3" width="48" height="48" rx="12" fill="white"/>
</clipPath>
</defs>
</svg>
